<?xml version="1.0" encoding="utf-8"?>
<!-- Generator: Adobe Illustrator 22.1.0, SVG Export Plug-In . SVG Version: 6.00 Build 0)  -->
<svg version="1.1" id="Layer_1" xmlns="http://www.w3.org/2000/svg" xmlns:xlink="http://www.w3.org/1999/xlink" x="0px" y="0px"
	 viewBox="0 0 512 512" style="enable-background:new 0 0 512 512;" xml:space="preserve">
<style type="text/css">
	.st0{fill:#3F3F51;stroke:#FFFFFF;stroke-miterlimit:10;}
	.st1{fill:#FFFFFF;}
	.st2{fill:#3F3F51;}
	.st3{fill:#77C6C0;}
	.st4{fill:none;stroke:#3F3F51;stroke-width:6;stroke-miterlimit:10;}
	.st5{clip-path:url(#SVGID_2_);}
	.st6{opacity:0.18;}
	.st7{fill:none;stroke:#77C6C0;stroke-width:2;stroke-miterlimit:10;}
	.st8{fill:none;stroke:#FFFFFF;stroke-miterlimit:10;}
	.st9{fill:#00FFFF;}
	.st10{fill:#3F3F51;stroke:#3F3F51;stroke-miterlimit:10;}
	.st11{fill:#29ABE2;}
</style>
<title>Artboard 1</title>
<g id="Layer_7">
	<path class="st0" d="M101.9,129.3l9.1-5.3c-2.2-2.9-3.8-5.3-5.4-7.9l-9.2,4.7C98.1,123.6,99.7,126.2,101.9,129.3z"/>
	<path class="st0" d="M106.4,61.5c0.4,3.3,1.3,6.5,2.4,9.5c9.8-3.1,21.4-2.2,23.9-2.2v-9.5C130.6,59.3,118.2,58,106.4,61.5z"/>
	<path class="st0" d="M96.3,120.8l9.2-4.7c-1.9-2.9-3.5-5.6-4.8-8.1c-3.2,0.4-6.2,2.7-9.3,4.1C92.8,114.9,94.5,117.8,96.3,120.8z"/>
	<path class="st0" d="M94.8,66.7c-10.7,7.2-16.3,20.5-3.4,45.5c3-1.5,6.1-2.9,9.3-4.1c-9.4-17.5-6.9-27.3-0.2-32.7
		c-1.8-1.9-3.3-4-4.4-6.3C95.8,68.5,95.2,67.6,94.8,66.7z"/>
	<path class="st0" d="M94.8,66.7c0.4,0.9,0.9,1.9,1.1,2.3c1.2,2.3,2.7,4.5,4.5,6.4c2.5-2,5.3-3.4,8.4-4.3c-1.2-3.1-2-6.3-2.4-9.5
		C102.3,62.6,98.4,64.4,94.8,66.7z"/>
</g>
<g id="Layer_10">
	<path class="st1" d="M438.5,355.4V156.3c0-3.3-1.8-6.3-4.6-8L261.4,48.7c-2.9-1.6-6.4-1.6-9.3,0L79.7,148.2c-2.9,1.7-4.6,4.7-4.6,8
		v199.1c0,3.3,1.8,6.3,4.6,8L252.2,463c2.9,1.6,6.4,1.6,9.3,0l172.4-99.6C436.7,361.7,438.5,358.7,438.5,355.4z"/>
	<path class="st2" d="M256.8,48.6c1.4,0,2.8,0.4,4,1.1l172.5,99.6c2.5,1.4,4,4.1,4,6.9v199.2c0,2.9-1.5,5.5-4,6.9L260.8,462
		c-2.5,1.4-5.5,1.4-8,0L80.3,362.4c-2.5-1.4-4-4.1-4-6.9V156.2c0-2.9,1.5-5.5,4-6.9l172.5-99.6C254,49,255.4,48.6,256.8,48.6
		 M256.8,42.6c-2.5,0-4.9,0.6-7,1.9L77.3,144.1c-4.3,2.5-7,7.1-7,12.1v199.2c0,5,2.7,9.6,7,12.1l172.5,99.6c4.3,2.5,9.7,2.5,14,0
		l172.5-99.6c4.3-2.5,7-7.1,7-12.1V156.2c0-5-2.7-9.6-7-12.1L263.8,44.5C261.7,43.2,259.3,42.6,256.8,42.6z"/>
	<path class="st1" d="M256.8,454.1c-1.7,0-3.4-0.4-4.9-1.3L88.7,358.5c-3-1.8-4.9-5-4.9-8.5V161.6c0-3.5,1.9-6.7,4.9-8.5l163.2-94.2
		c3-1.7,6.8-1.7,9.8,0l163.2,94.2c3,1.8,4.9,5,4.9,8.5v188.5c0,3.5-1.9,6.7-4.9,8.5l-163.2,94.2
		C260.2,453.6,258.5,454.1,256.8,454.1z"/>
	<path class="st3" d="M256.8,58c1.6,0,3.2,0.4,4.6,1.2l163.2,94.2c2.9,1.6,4.6,4.7,4.6,8v188.6c0,3.3-1.8,6.4-4.6,8l-163.2,94.3
		c-2.9,1.7-6.4,1.7-9.3,0L88.9,358.1c-2.9-1.6-4.6-4.7-4.6-8V161.6c0-3.3,1.8-6.4,4.6-8l163.2-94.3C253.6,58.5,255.2,58,256.8,58
		 M256.8,57c-1.8,0-3.6,0.5-5.1,1.4L88.4,152.7c-3.2,1.8-5.1,5.2-5.1,8.9v188.5c0,3.7,2,7.1,5.1,8.9l163.2,94.2
		c3.2,1.8,7.1,1.8,10.3,0L425.2,359c3.2-1.8,5.1-5.2,5.1-8.9V161.6c0-3.7-2-7.1-5.1-8.9L261.9,58.4C260.4,57.5,258.6,57,256.8,57z"
		/>
	<line class="st4" x1="49.4" y1="239.1" x2="73" y2="239.1"/>
	<line class="st4" x1="49.4" y1="258" x2="73" y2="258"/>
	<line class="st4" x1="440.5" y1="239.1" x2="464.1" y2="239.1"/>
	<line class="st4" x1="440.5" y1="258" x2="464.1" y2="258"/>
</g>
<g id="Layer_6">
	<g>
		<defs>
			<polygon id="SVGID_1_" points="429.3,355.4 429.3,156.2 256.8,56.6 84.3,156.2 84.3,355.4 256.8,455 			"/>
		</defs>
		<clipPath id="SVGID_2_">
			<use xlink:href="#SVGID_1_"  style="overflow:visible;"/>
		</clipPath>
		<g class="st5">
			<g id="Q5OcFM" class="st6">
				<path d="M54.8,537V-5.5c0-1.2-0.5-2.9,0.1-3.6s2.3-0.1,3.5-0.1h401c1.1,0,2.6-0.4,3.1,0.1s0.1,2.1,0.1,3.2v543H54.8z
					 M55.6,264.3v268.1c0,3.8,0,3.8,3.8,3.8H458c1,0,1.9,0,2.8,0s1.2-0.3,1.1-1.2c0-1.1,0-2.2,0-3.3v-535c0-0.8,0-1.6,0-2.5
					c-0.1-2-0.6-2.5-2.6-2.6c-0.7,0-1.4,0-2,0c-132.3,0-264.6,0-396.9,0c-5,0-4.8,0.2-4.8,4.9C55.7,85.8,55.6,175,55.6,264.3
					L55.6,264.3z"/>
				<path d="M191.1,328.6c-0.8-2.8-0.8-2.8-4.2-2c-0.2,0-0.5-0.2-0.7-0.3c0.1-0.3,0.3-1,0.4-1c1.8-0.1,3.5,0,5.3,0h4.9
					c2,0,2,0,2.4,2.3c0.1,1,0.7,1,1.4,1h8.1c4.6,0,9.2,0,13.8,0c0.8,0,2.1,0.6,2-1.1c0.4-0.2,0.8-0.3,1.3-0.3
					c0.7,0.1,1.4,0.6,2.2,0.6c1.2,0.1,2.6,0.3,3.5-0.3c0.5-0.3,0.2-2,0.3-3c0.1-0.2,0.2-0.5,0.3-0.7c0.1,0.3,0.4,0.6,0.4,0.9
					c0,5.2,0.1,10.4,0,15.6c0,1.3,0.5,1.7,1.6,1.5c1.7-0.2,3.4,0.4,5.1-0.5c0.6-0.3,1.6,0.2,2.4,0.5c3.6,1.3,7.1,2.6,8.9,6.5
					c1,2.1,1.6,4.4,1.6,6.7c-0.1,34.4-0.1,68.9,0,103.3c0,1,0,1.9,0,2.9s0.3,1.2,1.1,1.2c5.3,0,10.5,0,15.8,0c2,0,2.8-1,2.5-3.1
					c0-0.4-0.3-0.7-0.4-1.1c-0.3-1.3-1.6-2.8,0.9-3.4c0.3-0.1,0.3-1.5,0.3-2.2c0-11.8,0-23.5,0.1-35.2c0-1.1-0.6-2.3,0.5-3.2
					c0.1,1,0.3,2.1,0.3,3.2c0,12.8,0,25.7,0,38.5c0,1,0.4,2.4-0.1,2.8c-1.3,1,0.2,1.5,0.1,2.3s-0.1,1.7,1.2,1.5c0,0.3,0,0.8,0,0.8
					c-0.7,0-1.4,0-2,0c-6.2,0-12.4,0-18.6,0c-1.2,0-1.6,0.2-1.6,1.5c0.1,4.5,0,9,0,13.5c0,1-0.3,1.2-1.3,1.4c-1.4,0.3-2.8,0.6-4.1,1
					s-2.5-0.7-3.9-0.3c-0.4,0.1-1.1-0.5-1.7-0.8c-0.1-0.1-0.2-0.4-0.3-0.6c0.2-0.1,0.5-0.3,0.7-0.2c0.5,0.2,0.8,0.6,1.3,0.8
					s0.8,0,1.2,0c1.1,0.2,0.3-3,2.4-1.3c0.7,0.6,2,0.3,3,0.5c1.4,0.2,1.8-0.2,1.8-1.7c-0.1-6.7,0-13.4-0.1-20.1
					c-0.1-0.4-0.2-0.7-0.3-1.1c-0.1,0.3-0.3,0.6-0.5,0.9c-2.7,3.9-7.1,6.3-11.8,6.4c-3,0.2-6.1-0.8-9,0.7c-1.3-1.4-3-0.7-4.6-0.7
					c-26.2,0-52.4,0-78.6,0c-4.3,0-7.5-2-10.7-5.5c-2.9-3.2-3.8-6.7-3.8-10.8c0.1-26.9,0.1-53.9,0-80.8c0.1-1,0.1-1.9,0-2.9
					c-0.1-0.4-0.6-0.9-0.9-0.9c-5.8-0.1-11.6,0-17.4,0c-0.7,0-1.2,0.6-1.2,1.2c0,0.3,0.1,0.5,0.2,0.7c1.3,1.5,0.5,3.1,0.7,4.6
					c0,0.2-0.6,0.7-1,0.8c-0.6,0.1-1.4,0.2-1.3-0.9c0.2-2.2,0.5-4.4,0.8-6.6c0-0.3,0.8-0.6,1.2-0.6c1.8-0.1,3.5,0,5.3,0
					c2.4,0,4.9,0,7.3,0c2.1,0,4.2-0.2,6.4-0.3c-0.1-2,0-4.1,0.2-6.1c0.2-2.4,1-4.8,2.3-6.8c1.4-2.1,3.2-3.8,5.4-5.1
					c1.7-1,3.6-1.5,5.5-1.5c2.2,0.1,4.3,0,6.5,0c1,0,1.4-0.3,1.4-1.4c-0.1-4.2,0-8.5,0-12.7c0-1,0-1.9,0-2.9
					c0.1-0.4,0.2-0.7,0.4-1.1c0.2,0.3,0.4,0.6,0.4,1c0.1,1.1-0.1,2.2,0.1,3.3s0.6,0.2,1,0.1c1.4-0.2,3.2-0.7,4.3-0.1
					c1.2,0.5,2.5,0.8,3.8,0.6c6.8,0,13.5,0,20.3,0c0.9-0.1,1.9,0,2.8,0.1c0.4,0.1,0.7,0.7,1.1,1.1c-0.5,0.1-1.2,0.3-1.3,0.1
					c-0.8-0.9-1.8-0.6-2.6-0.6c-6.8,0-13.5,0-20.3,0c-1,0-2.1,0.2-3,0.7c-1.2,0.5-2.7,0.4-3.8-0.4c-1.6-0.9-2.2-0.4-2.2,1.2
					c0,3.1,0,6.3,0,9.4c0,1.1,0.4,1.4,1.4,1.3c0.5,0,1.1,0,1.6,0h71.8c0.7,0,1.4,0,2,0c0.9,0.1,1.1-0.4,1.1-1.2c0-3.3-0.1-6.6,0-9.8
					c0-1.2-0.5-1.4-1.4-1.3s-2.1-0.3-3,0.7c-0.7,0.4-1.6,0.5-2.3,0.1c-1.4-1.2-3-0.7-4.6-0.7c-6.4-0.1-12.7,0.1-19.1-0.1
					c-1.8,0-2.2,0.7-2.2,2.2c0,0.1-0.4,0.2-0.7,0.3c-0.1-1.8-0.1-3.7-0.2-5.5c-1.7-0.1-3.4-0.1-5.1-0.2c-1.2-0.1-1.2,0.6-1.2,1.5
					C191.8,328,191.3,328.3,191.1,328.6z M251.1,402.4c0-15.3,0-30.6,0.1-45.9c0-1.8-0.3-3.6-1.1-5.3c-2.2-5.1-4.5-7.5-11.2-7.7
					c-2.1-0.1-4.2,0.2-6.4,0.3c0,2.3-0.1,4.6-0.1,6.9c0,0.4,0.2,0.7,0.5,0.9c0.4,0,0.7-0.1,1-0.4c0.4-0.5,0.7-1.1,0.9-1.7
					c0.6-1.3,0.9-2.7,0.9-4.1c0-0.7,1.2-1,1.7-0.6c1.5,1.4,1.5,1.7,0.3,3.4c-0.4,0.5-0.9,1-1.3,1.5c-0.8,1.3-0.8,2,0.5,2.7
					c3,1.5,5.1,4.2,5.8,7.4c0.8,3.1,0,6.4-1.9,8.9c-1.8,2.4-4.1,4.5-7.6,4.2c-0.3,0-0.9,0.6-0.9,0.9c0,9.1,0,18.3,0,27.5
					c0,0.9,0.3,1.1,1.2,1.1c3.4,0,6.8,0,10.1,0c0.2,0,0.5,0.3,0.7,0.5c-0.2,0.1-0.5,0.2-0.7,0.3c-3.2,0-6.5,0.1-9.7,0
					c-1.1,0-1.6,0.2-1.6,1.5c0.1,8.3,0,16.7,0,25c0,1,0.2,1.3,1.3,1.4c3.3,0.3,7.5,3.9,8.4,6.9c1.1,3.4,0.7,4,0.1,7.5
					c-0.5,3.2-2.3,4.8-4.7,6.2c-3,1.6-6.4,1.9-9.6,0.9c-3.9-1.4-5.6-4.3-6.9-7.8c-0.8-2.2-0.8-2-3-2.3s-4.4,1.4-6.6,0
					c-5.6,0-11.1,0-16.6,0c-1.1-0.1-2.1,0.7-2.2,1.8c0,0.1,0,0.2,0,0.4c-0.1,2.5,0,4.9,0,7.4c-0.1,0.4-0.2,0.7-0.4,1.1
					c-0.2-0.3-0.3-0.6-0.4-1c0-4.9,0-9.8,0-14.8c0-1-0.1-1.4-1.3-1.5c-4.9-0.3-9.8-1.6-14.3-3.8c-2.8-1.2-4.9-3.3-7.1-5.4
					c-1.5-1.5-3-3.1-4.3-4.8c-1.4-1.7-1.9-4.1-3.1-6c-1.4-2.3-1.3-5.2-3-7.4c-0.2-0.2-0.2-0.9,0-1.1c2-1.4-1.1-2.6-0.2-3.9
					c-0.3-0.2-0.6-0.5-1-0.5c-1.4,0-2.7,0-4.1,0c-3.2,0-6.5,0-9.7,0c-0.2,0-0.4-0.2-0.6-0.4c0.2-0.1,0.4-0.4,0.6-0.4
					c2,0,4.1,0,6.1,0c2.7,0,3-0.3,3-3c0-7.1,0-14.2,0-21.3c0-1,0-1.9,0-2.9c-0.1-1.7-0.6-2.2-2.4-2.3c-3.6-0.6-6.7-3-8.1-6.4
					c-0.4-1.3-0.3-3.3-1.2-3.9s-2.8-0.3-4.3-0.3c-0.8,0-1.6,0-2.4,0s-1.1,0.4-1.1,1.2s0,1.9,0,2.9c0,23,0,45.9,0,68.9
					c0,2.1,0.2,4.3,0.2,6.5c2.1,0,4.3,0.1,6.4,0.1c1,0,1.2-0.2,1.6-1.2c0.3-0.7,0.5-1.4,0.7-2.2c0.5-1.5,1.4-2.9,2.5-4
					c2.2-1.3,3.8-3.7,6.8-3.3c1.2,0.2,1.3-0.5,1.3-1.4c0-1.4,0-2.7,0-4.1c0-6.8,0-13.7,0-20.5c0.1-0.4,0.2-0.7,0.4-1
					c0.2,0.3,0.3,0.7,0.4,1.1c0,7.1,0,14.2,0,21.3c0,1.5-0.3,3.2,0.3,4.4c0.4,0.8,2.3,0.7,3.4,1.3c3.2,1.7,5.7,4.2,5.9,8.1
					c0.1,1.7,0.7,1.7,1.9,1.7c7.4,0,14.9,0,22.3,0c0.9,0,1.9,0,2.8,0c0.2,0,0.4,0.3,0.6,0.4c-0.2,0.1-0.4,0.4-0.7,0.4
					c-0.9,0-1.9,0-2.8,0c-6.6,0-13.2,0-19.9,0c-1.3-0.1-2.6,0-3.9,0.3c-0.4,0.2,0,2-0.3,3c-0.3,0.8-1.1,1.4-1.6,2.2
					c-2.4,4.2-6.3,5.3-10.6,5c-3.8-0.2-6.3-2.6-8.1-6c-0.3-0.5-0.6-1.1-0.8-1.7c-0.6-2.9-0.6-2.9-3.1-2.9c-6.3,0-5.9-0.6-5.8,5.9
					c0.1,5.2,2.4,8.9,6.9,11.4c2.7,1.6,5.7,2.4,8.8,2.4c25,0,50,0,75,0c1.3,0,2.7,0.6,3.8-0.7c0.2-0.1,0.5-0.2,0.8-0.1
					c2.3,1.7,4.9,0.5,7.4,0.8c2.2,0.2,5.8-1,8.3-2.4c2.5-1.2,4.5-3.3,5.5-5.9c0.8-2.1,1.2-4.3,1.2-6.5
					C251,432.4,251.1,417.4,251.1,402.4L251.1,402.4z M172.3,403.3c-3.8,0-7.6,0.1-11.4,0c-2.1-0.1-0.8,0.8-0.8,1.6
					c0,5.5,2.1,10.2,4.9,14.8c3,5,7.4,9.1,12.7,11.8c3.9,2,8.1,2.7,12.2,3.8c1.6,0.4,1.8,0,1.9-1.6c0-6.3,0-12.6,0-18.9
					c0-0.3,0.1-0.5,0.3-0.7c0.2,0.3,0.5,0.5,0.5,0.8c0,5.5,0,10.9,0,16.4c-0.1,0.8-0.1,1.6,0,2.5c0.2,0.9,0.9,2,1.9,1.5
					c1.9-0.9,4.1-0.1,5.7-0.9c5-2.2,10.1-4.3,14-8.3c1.6-1.6,2.9-3.4,4.3-5.1c3.4-4.2,5.4-9.5,5.7-14.9c0.2-2.7,0-2.7-2.8-2.7h-19
					c-0.2-0.1-0.5-0.1-0.7-0.3c0.3-0.2,0.5-0.5,0.8-0.5c6.2,0,12.4,0,18.6,0c0.9,0.1,1.9,0,2.8-0.1c0.4-0.1,1-1.3,0.9-1.3
					c-1-0.9-0.3-2.1-0.5-3.1c-0.3-1.1-0.6-2.2-0.8-3.4c-0.4-3.4-3.3-9.7-5.5-12c-1-1.1-2.4-2-3.1-3.2c-1.4-2.5-3.8-3.7-6-5.1
					c-1.6-1-3.4-1.7-5-2.6c-1.1-0.6-2.4-0.3-3.7-0.9c-1.9-0.9-4.3-0.7-6.5-1c-0.9-0.1-1.1,0.4-1.1,1.2c0,6.1,0,12.3,0,18.5
					c0,0.7,0,1.4,0,2c0,0.1-0.2,0.3-0.3,0.3c-0.2-0.1-0.5-0.2-0.5-0.3c0-0.8,0-1.6,0-2.5c0-5.9,0-11.8,0-17.6c0-1.2-0.3-1.7-1.5-1.6
					c-1.6,0.1-3,0.5-4.6,0.7c-2.5,0.4-4.9,1.2-7.2,2.4c-2.6,1.4-5,3-7.3,4.9c-1.8,1.3-3.3,2.8-4.6,4.6c-2.2,3-3.5,6.5-4.9,9.9
					c-0.8,1.9-1.6,3.8-1.6,5.9c0,0.7-0.1,1.3-0.3,1.9c-0.5,1.7,0,2.5,1.5,2.5c0.9,0.1,1.9,0,2.8,0h19.5c0.2,0,0.5,0.1,0.7,0.3
					c-0.2,0.2-0.5,0.5-0.8,0.5C179.9,403.3,176.1,403.3,172.3,403.3L172.3,403.3z M192.8,343.4c-10.9,0-21.9,0-32.8,0
					c-2,0-4,0.1-6,0.2c-0.1,2.2-0.1,4.3-0.2,6.5c0,0.1,0,0.3,0,0.4c-0.1,0.9,0.3,1.1,1.1,1.2c4.4,0.6,7.9,4,8.5,8.4
					c0.1,1.3,0.6,1.5,1.7,1.5c8.4,0,16.8,0,25.1,0c1.1,0,1.7-0.1,1.6-1.5c-0.1-2.7,0-5.5,0-8.2c0-0.3,0.3-0.6,0.4-1
					c0.2,0.3,0.3,0.7,0.4,1.1c0,1.1,0,2.2,0,3.3c0,1.6,0.1,3.3,0,4.9c-0.1,1.1,0.3,1.4,1.4,1.4c8.5,0,17,0,25.5,0
					c1.3,0,1.3-0.5,1.6-1.6c0.4-1.7,1.1-3.4,2-4.9c0.6-1,1.9-1.4,2.6-2.5c0.9-1.3,2.9-0.8,4.4-1c1-0.2,1.6-1,1.5-2
					c-0.1-1.4,0-2.7,0-4.1c0-2,0-2-1.9-2L192.8,343.4z M231.6,387.6v-11.5c0-1,0.3-2.2-0.1-2.8s-1.7-0.3-2.6-0.5
					c-0.7-0.2-1.4-0.4-2.1-0.8c-3.1-2-5.3-4.7-5.6-8.4c-0.1-1.4-0.7-1.4-1.7-1.4c-8.4,0-16.8,0-25.1,0c-0.3,0-0.6-0.1-0.8,0
					s-0.7,0.4-0.7,0.7c-0.1,1.6,0,3.2,0.3,4.8c0.1,0.5,1.9,0.4,2.9,0.6s1.8,0.3,2.7,0.5c2.1,0.4,4.2,0.9,6.2,1.6
					c2.3,0.9,4.4,2.1,6.2,3.6c3.4,2.2,6.4,5.1,8.7,8.5c4.4,7,5.9,11,6.2,18.7c0,0.8,0.1,1.3,1.1,1.2c0.9-0.1,1.9-0.1,2.8,0
					c1.3,0.1,1.9-0.1,1.8-1.7C231.5,396.4,231.6,392,231.6,387.6L231.6,387.6z M207,441.8c4.3,0,8.6,0,12.9,0c0.4,0,1.1-0.5,1.1-0.7
					c-0.2-2.3,1.6-3.7,2.4-5.6s2.6-2,3.7-3.2c0.9-0.7,2-1.1,3.1-1c1.4,0,1.4-0.7,1.4-1.7c0-7.2,0-14.5,0-21.7c0-4.9,0-4.9-4.7-4.5
					c-0.4,0-1,0.5-1,0.8c0.1,2-0.6,3.9-0.8,5.8c-0.3,2.3-1,4.5-2.3,6.4c-1.7,3-3,6.3-5.8,8.7c-1.3,1.1-2.6,2.3-3.8,3.6
					c-1.4,1.3-3,2.4-4.7,3.4c-4.4,2.5-9.4,3.9-14.5,4c-1.2,0.1-1.6,0.4-1.5,1.6c0.1,1,0.1,1.9,0,2.9c-0.1,1.1,0.4,1.3,1.4,1.3
					C198.4,441.8,202.7,441.8,207,441.8z M153.8,387.5c0,4.1,0,8.2,0,12.3c0,2.7,0,2.7,2.5,2.7s2.5,0,2.4-2.3
					c-0.1-1.4,0.8-2.5,0.8-3.8c0-2.9,1.2-5.5,2.3-8.1c3-7,8.3-12.7,15-16.2c4.3-2.2,9-3.6,13.8-4c1.3-0.1,1.6-0.5,1.5-1.7
					c-0.1-0.8-0.1-1.6,0-2.5c0.1-1.1-0.1-1.7-1.4-1.7c-8.5,0.1-17,0-25.5,0c-0.9,0-1.4,0.1-1.4,1.3c-0.2,4.6-4.1,8.9-8.4,9.3
					c-1.1,0.1-1.3,0.5-1.3,1.5C153.8,378.7,153.8,383.1,153.8,387.5L153.8,387.5z M241.4,442.3c0.1-4.3-2.1-6.8-5.1-8.6
					c-0.8-0.4-1.6-0.7-2.5-0.8c-0.9-0.2-1.5,0.1-1.4,1.3c0,0.4-0.1,0.7-0.3,1.1c-0.2-0.4-0.4-0.8-0.4-1.3c0-0.9-0.4-1.1-1.2-1.1
					c-3.5,0-7.4,3.5-7.7,7.1c-0.1,0.8,0,1.6,0,2.5s-0.5,1.4-0.3,1.9c0.8,2.7,2.6,4.9,4.9,6.5c1.5,1.1,3.4,1.7,5.3,1.6
					c3-0.4,5.7-2.1,7.4-4.6C241,446.1,241.5,444.2,241.4,442.3z M231.6,357.1c0-0.4,0-0.8,0-1.2c-0.2-1.1,0.6-2.9-0.5-3.3
					c-1.4-0.3-2.8,0-4,0.9c-1.8,1.2-3.2,2.8-4.1,4.8c-0.2,0.6-0.3,1.3-0.3,1.9c-0.1,0.7,0,1.4,1,1.3c0.4,0,0.8,0,1.2,0
					c0.3,0.1,0.7,0.2,1,0.4c-0.3,0.2-0.7,0.3-1,0.4c-0.7,0.2-1.8,0.1-2.1,0.5c-0.3,0.8-0.3,1.6,0,2.4c0.6,1.8,1.4,3.8,3.1,4.8
					c1.1,0.6,2.3,1.1,3.5,1.5c1.6,0.6,2.4,1.3,2.3-1.1c0-0.2,0.2-0.4,0.4-0.6c0.1,0.2,0.4,0.4,0.4,0.6c-0.4,2.9,1.6,1.1,2.1,0.9
					c2.6-0.7,4.8-1.9,6-4.6c1.2-2.9,1.1-6.2-0.1-9.1c-0.7-2-2.5-3.5-4.7-3.7c-1.1-0.3-2.1-0.7-3.1-1.2c-0.1,1.2-0.2,2.4-0.3,3.5
					c0,0.4,0,0.8,0,1.2c0.1,1.3-0.1,2.8,0.4,3.9c0.2,0.4,2,0.1,3,0.2c0.2,0,0.4,0.3,0.6,0.4c-0.2,0.1-0.4,0.4-0.6,0.4
					c-0.5,0.1-1.1,0.1-1.6,0c-1.4-0.2-2,0.1-1.8,1.7c0,1.1-0.1,2.1-0.3,3.1c-0.2-1.1-0.4-2.2-0.4-3.4c0.1-1.3-0.5-1.6-1.6-1.5
					c-0.5,0-1.1,0-1.6,0c-0.2,0-0.5-0.1-0.7-0.2c0.2-0.2,0.5-0.5,0.7-0.5c1-0.2,2.5,0.1,3-0.4s0.2-2.1,0.2-3.1
					C231.6,357.6,231.6,357.3,231.6,357.1L231.6,357.1z M133.4,357.7l0.3,3.6c1.3,0,2.7,0.1,4,0.1c0.8,0,1.6,0,2.4,0
					s1.3-0.2,1.6-1.2c0.2-0.7,0.4-1.4,0.7-2.1c1.5-3.2,3.5-6.1,7.5-6.5c1.6-0.2,2.8-1.5,2.9-3.1c0-1.2-0.1-2.5,0-3.7
					c0.1-1-0.2-1.4-1.3-1.4c-2.3,0.1-4.6,0.1-6.9,0c-5.2-0.3-8.4,3.9-10.5,8.1C133.4,353.3,133.6,355.1,133.4,357.7L133.4,357.7z
					 M148,362.3c-1.2,0-2.4,0.1-3.6,0s-1.2,0.6-1.2,1.5c0.1,3.4,5.2,8.3,8.7,8.3c0.4,0,0.7-0.5,1.1-0.8c0.2-0.2,0.4-0.4,0.6-0.7
					c0.1,0.2,0.2,0.5,0.3,0.7c0.1,0.2,0.5,0.6,0.6,0.6c3.2-2,7.8-2.7,7.9-7.9c1.2-1.7,0.1-1.7-1.2-1.7c-0.2-0.1-0.5-0.1-0.7-0.3
					c0.2-0.2,0.5-0.5,0.8-0.5c1.3,0,1.8,0,1.2-1.8c-0.6-1.7-1.6-3.3-3-4.5c-0.9-0.8-1.8-1.4-2.9-1.9c-0.8-0.3-1.6-0.6-2.4-0.7
					c-0.1,0.8-0.2,1.6-0.3,2.4c0,1.1,0,2.2,0,3.3c0.1,1.1-0.1,2.3,0.4,3.1c0.3,0.5,1.7,0.1,2.7,0.2c0.1,0,0.3,0,0.4,0
					c0.2,0.1,0.4,0.3,0.5,0.5c-0.2,0.2-0.4,0.3-0.7,0.3c-0.7,0.1-1.3,0.1-2,0c-1.1-0.1-1.4,0.4-1.3,1.4c0.1,1,0.1,1.9,0,2.9
					c0,0.2-0.2,0.4-0.4,0.7c-0.1-0.2-0.4-0.4-0.4-0.6c0-0.4,0-0.8,0-1.2c-0.1-3.1-0.1-3.1-3.3-3.1L148,362.3z M152.9,441.8
					c2.3,0,4.6,0.1,6.8,0c1,0,2.5,0.6,2.8-0.5c0.2-1.1-0.2-2.3-0.9-3.2c-1.4-1.6-2.9-3.1-4.6-4.4c-0.9-0.7-2.1-1.8-3.4-0.4
					c-0.1,0.1-0.4,0.1-0.6,0c-1.6-1-3.6-0.8-5.1,0.4c-1.5,1.3-2.8,2.7-3.9,4.3c-0.5,0.8-0.7,1.6-0.8,2.5c-0.2,0.9,0.1,1.5,1.2,1.4
					C147.3,441.8,150.1,441.8,152.9,441.8L152.9,441.8z M147.5,442.6c-1.2,0-2.4-0.1-3.6,0.1c-0.4,0.2-0.6,0.6-0.7,1.1
					c0.4,1.3,0.9,2.6,1.6,3.8c2.3,3.8,8.6,6.5,13.1,2.7c0.1-0.1,3.9-3.9,3.9-4c0.2-1.1,0.5-2.2,0.7-3.3c-0.9-0.1-1.8-0.2-2.7-0.3
					c-0.8,0-1.6,0-2.4,0c-1.2,0-2.6-0.2-3.5,0.4c-0.5,0.3-0.2,2-0.3,3.1c0,0.2-0.2,0.4-0.4,0.6c-0.2-0.2-0.3-0.4-0.4-0.6
					c-0.7-3.5-0.7-3.5-4.2-3.5L147.5,442.6z M148,361.5v0.1l4.7-0.3c0.1-1.6,0.1-3.2,0.2-4.8c0-1,0-1.9,0-2.9s-0.3-1.3-1.1-1.1
					c-0.7,0.1-1.5,0.3-2.2,0.5c-2.4,0.8-4.5,2.5-5.7,4.8c-0.4,1-0.6,2-0.6,3.1c-0.2,1.2,1.4,0.5,2.3,0.6
					C146.4,361.5,147.2,361.5,148,361.5L148,361.5z"/>
				<path d="M158.6,127.7c0.8-1.8,2.3-0.6,3.5-0.8c0.9-0.2,1.4-0.2,1.4-1.4c-0.1-7.5,0-15,0-22.5c0-0.8,0.2-1.7-1.1-1.6
					c-0.1,0-0.6-0.8-0.5-0.9c1.1-1.4,0.6-3.1,0.8-4.6c0-1.1,0.9-1.9,2-1.9c0,0,0.1,0,0.1,0c2.2,0,4.3,0,6.5,0c9.1,0,18.1,0,27.2,0
					c1.2,0,1.6-0.4,1.6-1.6c-0.1-2.9-0.1-5.7,0-8.6c0.1-5,2.6-8.6,6.7-11.2c1.7-1.1,3.4-2,5.4-1.6c0.8,0.1,1.5,0.2,2.3,0.3
					c-0.6,1.1-1.6,0.5-2.4,0.5c-3,0.2-5.1,2.2-7.2,3.9c-1.1,0.8-1.7,2.3-2.5,3.4c-0.7,2.1-1.2,4.2-1.6,6.3c0,2.7,0.1,5.4,0.1,8.2
					c2.7,0.1,5.3,0.3,8,0.3c2,0,4.1,0,6.1,0c0.7,0,1.4,0,1.3-1c-0.3-4.2,2.3-6.4,5.5-8.3c1.3-0.7,2.7-1.3,4.2-1.7
					c0-1.8,0.1-3.5,0.1-5.3c0-10,0-20,0-29.9c0-1.2-0.2-2.6,1.8-2.2c2.7-1.9,5.5-0.4,8.2,0c0.2,0,0.3,0.3,0.4,0.5
					c0,0-0.2,0.2-0.3,0.3c-1.6,0.4-3.3,0.6-4.9,0.8c-0.8,0-1.6-0.7-2.5-0.7c-2-0.2-2,0-2,1.5c0.1,4.4,0,8.8,0,13.1
					c0,2,0.1,1.8,2.3,1.8c1.8,0,3.7-0.8,5.4,0.7c0.5,0.4,1.6,0.1,2.4,0.1c2.3,0,2.6-0.2,2.9-2.7c0.1-1,0.2-1.5,1.3-1.4
					c1.9,0.1,3.8,0,5.7,0c1.1,0,2.5-0.4,3.1,0.2s0.2,2,0.5,3c0.1,0.4,0.6,0.9,0.9,0.9c1.4-0.2,2.7,0.1,4.2-0.5
					c2-0.7,4.2-0.7,6.2,0.1c0.2,0.1,0.6-0.2,0.9-0.1c0.5,0.2,1,0.5,1.4,0.8c-0.4,0.4-1.2,1.2-1.2,1.2c-2.1-2-3.9,1-5.8,0.4
					c-0.8,1-0.9,0.4-1-0.4c0-0.2-0.5-0.6-0.8-0.6c-1.1-0.1-2.2,0-3.2,0s-1.8,0.2-1.6,1.5s-0.3,2-1.8,1.9c-2-0.2-4.1,0-6.1,0
					c-0.8,0-1.8,0.2-2.3-0.2s-0.2-1.5-0.4-2.2c-0.1-0.4-0.6-0.9-0.9-0.8c-2.1,0.2-4.2-0.5-6.2,0.7c-1.2,0.7-2.4-0.5-3.7-0.8
					c-1.8-0.3-2.2,0-2.1,1.8c0.1,1.4-0.7,3,0.6,4.2c0.2,0.2,0.2,0.5,0.1,0.7c-1.8,3.3-0.4,6.9-0.8,10.3c-0.1,1.4,0,1.4,1.6,2.1
					c0.3,0.2,0.7,0.3,1,0.4c3.9,1.2,6.7,4.6,7.1,8.6c0.1,0.8,0.2,1.3,1.1,1.2c0.5,0,1.1,0,1.6,0h49.5c2,0,2,0,2.2-2.1
					c0.5-3.4,2.7-6.4,5.9-7.7c1.2-0.4,2.9-0.4,3.5-1.2s0.3-2.6,0.3-3.9c0-1.9,0.1-3.8,0-5.7c-0.2-0.7-0.5-1.4-1-2
					c-0.4-0.4-0.8-0.7-1.2-0.9c0.5,0,1-0.1,1.5-0.2c0.4-0.3,0.6-0.7,0.7-1.2c0-7.1,0-14.2,0.1-21.3c0-1.2-0.5-1.4-1.4-1.3
					c-0.6,0.1-1.2,0.3-1.9,0.4c-1,0.2-2,0.2-3,0.2c-0.6-0.1-1.2-0.7-1.7-1.1c0.5-0.5,1-1,1.5-1.5c0.6-0.7,0.8,0,1.2,0.2
					c1,0.5,2.3-0.3,3.4,0.8c0.5,0.5,2.3,0,2.5,0.4c0.5,0.8,0.3,2.1,0.3,3.1c0,5.6,0,11.2,0,16.8c0,1.7-0.6,3.4,0.7,4.9
					c-1.4,1.5-0.5,3.4-0.7,5s0,3.6,0,5.3c0,2.5,0.1,2.9,2.6,2.9c1.7,0,2.1,2.1,3.7,1.9c1,2.2,3.3,3.8,3.4,6.3
					c0.1,1.7,0.7,1.7,1.9,1.7c3.1,0,6.2,0,9.3,0c0.3,0,0.6,0.3,1,0.4c-0.3,0.2-0.7,0.3-1.1,0.3c-3.1,0-6.2,0-9.3,0
					c-1.8,0-2.3,0.4-2.5,2.2c0,0.9-0.4,1.8-1,2.5c-0.7,0.6-1.2,1.3-1.5,2.2c-0.5,1.7-2.6,1.4-4,2c-2.3,1.1-2.4,0.8-2.4,3.2
					c0,7.1,0,14.2,0,21.3c0,1.4,0.2,1.8,1.8,1.8c11.5-0.1,23,0,34.5,0c1.9,0,3.8,0,5.7,0c0.4,0.1,0.7,0.2,1.1,0.3
					c-0.3,0.2-0.6,0.3-0.9,0.4c-1.1,0.1-2.2,0-3.2,0h-36.6c-2.3,0-2.3,0-2.3,2.4c0,7.6,0,15.3,0,23c0,1.1,0.1,1.6,1.5,1.7
					c3,0.2,5.6,2,6.8,4.7c1.4,3,2.1,5.7,0.8,8.9c-0.8,1.8-1.4,3.6-3.4,4.4c-0.7,0.3-1.2,1-1.8,1.5s-0.6,1-0.1,1.7
					c0.7,1.1,1,2.5,1.8,3.3c1,1,1.1,1.6-0.1,2.4c-0.4,0.2-0.9,0.7-1.1,0.6c-0.5-0.3-0.8-0.7-0.9-1.2c-0.4-1.5-0.7-3-0.8-4.6
					c0-1.2-0.5-1.3-1.5-1.3s-1,0.5-1,1.3c0,3.7,0,7.4,0,11.1c0,0.2-0.2,0.5-0.3,0.7c-0.2-0.3-0.5-0.5-0.5-0.8c0-3.7,0-7.4,0-11.1
					c0-0.9-0.3-1.2-1.2-1.1c-2.6,0.2-3.9-2.4-6.1-2.8c-0.7-1.5-2.3-2.5-2.5-4.3c-0.1-0.6-0.7-1.1-0.7-1.7c-0.1-1-0.6-1-1.3-1
					c-1.8,0-3.5,0-5.3,0h-44.2c-0.8,0-1.8-0.2-2.4,0.1s-0.4,1.4-0.6,2.1c-1.2,3.8-4.3,6.6-8.1,7.5c-1.3,0.3-1.4,0.7-1.4,1.8
					c0,3.4,0,6.8,0,10.2c-0.1,0.4-0.2,0.7-0.3,1.1c-0.2-0.4-0.4-0.8-0.5-1.3c0-3.6,0-7.1,0-10.7c0-0.9-0.3-1.2-1.2-1.1
					c-2.6,0.2-4.1-1.9-6-3c-1.3-0.7-1.8-2.9-2.5-4.6c-0.9-2.2-0.8-2.2-3-2.2c-3.6,0-7.3,0.1-10.9,0c-1.2,0-1.6,0.4-1.6,1.6
					c0.1,6.8,0,13.7,0,20.5c0,3.6-0.1,7.1,0,10.7c0.1,2.5,0.4,5,0.8,7.4c0.1,0.8,1.1,1.4,1.6,2.2c2.7,4.2,5.9,6,10.5,6h47
					c0.9,0,1.9,0,2.8,0c0.2,0,0.5,0.7,0.4,1s-0.7,0.7-0.8,0.6c-2.2-1.5-4.7-0.7-7-0.8c-13.2-0.1-26.5-0.1-39.7,0
					c-1.2,0-2.5-0.4-3.9,0.5c-0.7,0.5-2.4-0.3-3.5-0.7s-2.1-1.3-3.4-1.5c-0.6-0.1-1-1.3-1.6-1.9c-1-1-2.1-1.8-3.1-2.8
					c-0.1,1.3-0.2,2.7-0.2,4c0,0.5,0.1,1,0.4,1.4c0.5,0.5,1.6-0.6,1.8,0.6c0,0.2-1.2,0.4-1.6,0.9c-0.4,0.5-0.6,1.1-0.6,1.8
					c0,6.7,0,13.4-0.1,20.1c0,1.2,0.5,1.4,1.4,1.3c1.2-0.1,2.3-0.2,3.5-0.4c1.1-0.3,2.2-1.1,2.6,0.9c0,0.2,1.2,0.3,1.8,0.4
					c4.7,0,9.5,0,14.2,0c0.3,0,0.5,0.3,0.8,0.5c-0.2,0.1-0.5,0.3-0.7,0.3c-4.2,0-8.4-0.1-12.6,0c-1.4,0-2.9-0.6-4.2,0.7
					c-0.4,0.4-1.7-0.1-2.6-0.2c-0.5-0.1-0.9-0.4-1.4-0.5c-1.1-0.2-2.9,0.1-3.4-0.5s-0.2-2.3-0.2-3.6v-67.9c0-2.5,0-2.5-2.6-2.5
					c-10.3,0-20.6,0-30.8,0c-0.7,0-2,0.8-2.3-0.8c11.3,0,22.7,0,34,0c1.1,0,1.7,0,1.7-1.4c-0.1-11.3-0.1-22.7,0-34
					c0-1.4-0.5-1.5-1.6-1.5c-6.6,0-13.2,0-19.9,0c-1.4,0.2-2.7-0.9-2.8-2.3c0,0,0-0.1,0-0.1c-0.1-1.8-0.1-3.5,0-5.3
					c0-0.4,0.7-0.8,1-1.2c0.2,0.4,0.4,0.7,0.6,1.1c1.4,1.7,1,3.3,0,5.1c-0.4,0.5-0.2,1.3,0.3,1.7c0.2,0.2,0.5,0.2,0.8,0.2
					c6.8,0,13.5,0,20.2,0c1.2,0,1.3-0.5,1.3-1.5c0-5.5,0-10.9,0-16.4s0-10.7,0-16c0-0.9,0-1.5-1.2-1.5c-6.4,0.1-12.7,0-19,0
					c-1.9,0-2.6,0.8-2.4,2.7c0,0.4,0,0.9,0.2,1.1c1.9,1.7-0.9,3.2-0.2,4.8c-0.3,0-0.7,0.1-0.8-0.1c-0.4-0.3-0.6-0.8-0.7-1.3
					c-0.1-1.6-0.1-3.3,0-4.9c0.2-2.1,0.2-2.3-1.4-2.3c-3-0.1-5.9,0-8.9,0c-0.9,0-1.3,0.3-1.1,1.2c0.2,1-0.4,2.1,0.5,3.1
					c0.4,0.4,0.5,1.6,0.3,1.8c-1.3,1.1-0.7,2.6-0.7,3.8c-0.1,6.3,0,12.6,0,18.8c0,1-0.4,2.4,0.1,2.7c0.7,0.6,2,0.4,3,0.5
					c0.3,0,0.5,0.1,0.7,0.2c0.2,0.2,0.2,0.4,0.2,0.7c-0.1,0.2-0.4,0.4-0.6,0.5c-0.7-0.9-1.7-0.5-2.6-0.5
					C162.9,127.7,160.8,127.7,158.6,127.7z M300.5,144.5c0-4.4,0-8.8,0-13.1c0-0.1-0.1-0.2-0.3-0.3c-4.4-0.1-8.9-0.1-13.3-0.1
					c-0.4,0-0.8,0-1.2,0c-1.9-0.4-1.7,1.4-2.1,2.2c-0.7,1.4,1.2,1.3,1.7,1.5c1.2,0.5,2.6,0.2,3.9,0.4c0.6,0.1,1.2,0.6,1.5,1.1
					c0.1,0.4-0.3,1.2-0.7,1.6c-0.5,0.7-1,0.5-1.7,0c-0.8-0.6-1.6-1.2-2.5-1.8c-0.9-0.6-1.7-0.3-2.3,0.8c-0.2,0.6-0.5,1.2-0.8,1.7
					c-1.8,2.6-3.3,5.6-5.5,7.8c-2.3,2.1-5.2,3.7-8.2,4.5c-1.9,0.5-3.9,0.3-5.7,1.3c-2.1-1.3-4.7-0.7-6.7-1.7
					c-1.7-0.9-3.3-1.9-4.9-2.9c-5.6-3.6-8.2-8.8-8.6-15.2c-0.1-1.4-0.6-1.5-1.7-1.5c-4,0.1-8.1,0-12.2,0c-0.2,0-0.5-0.2-0.7-0.3
					c0.3-0.2,0.5-0.5,0.8-0.5c3.5,0,7,0,10.5,0c0.9,0,2.1,0.3,2.7-0.1s0.2-1.7,0.5-2.6c0.1-0.6,0.6-1.1,0.7-1.7
					c1.2-5.6,4.6-9.5,9.1-12.5c4.1-2.8,10.7-3.3,15.6-2c4,1.1,7.6,3.3,10.4,6.4c2.4,3,4,6.6,4.6,10.4c0.2,1.5,0.8,2.1,2.2,2.2
					c4.6,0.1,9.2,0,13.8,0c0.9,0,1.1-0.4,1-1.2c0-7.7,0-15.3,0-23c0-0.8-0.1-1.2-1-1.3c-0.7,0-1.4-0.6-2.1-0.8
					c-3.4-0.6-6-3.3-6.6-6.7c-0.3-1.9-0.7-2.4-2.4-2.4c-7.7,0-15.4,0-23.1,0c-1.2,0-1.3,0.5-1.3,1.5c0,1.8,0,3.6,0,5.3
					c0,0.2-0.3,0.4-0.4,0.6c-0.1-0.2-0.4-0.4-0.4-0.7c0-1.2,0-2.5,0-3.7c0-2.7-0.3-3-3-3c-7.2,0-14.3,0-21.5,0c-2.3,0-2.4,0-3.1,2.5
					c-0.6,3.3-3.1,5.8-6.4,6.5c-2.6,0.7-2.6,0.8-2.6,3.4c0,1.9,0,3.8,0,5.7v11.1c0,1.8-0.4,3.7,0.1,5.3c0.6,1.9-0.2,3.4-0.2,5.1
					c0.2,6.7,0.1,13.4,0.1,20.1c0,2.5,0.1,2.4,2.6,3.5c2.7,1.2,5.4,2.4,6.4,5.6c1.3,4.2,1.4,4.2,5.6,4.2h13.4c2.2,0,4.5,0.5,6.4-0.1
					c2.3-0.8,4.2,0.3,6.3,0.2c6.9-0.2,13.8-0.1,20.7-0.1c2.3,0,2.8-0.4,2.8-2.8c0-1.2,0.5-2.4,1.4-3.1c0.8-0.7,1.5-1.6,2.3-2.3
					c0.9-0.7,1.9-1.2,3-1.6c1-0.3,2.5,0.1,2.9-0.5s0.1-2.1,0.1-3.2L300.5,144.5z M225.9,131.5v-9c0-5.3,0-10.7,0-16
					c0-1.9-0.4-2.2-2.2-2.6c-3.6-0.7-6.6-3.4-7.5-7c-0.4-1.4-1-2-2.4-2c-3.9,0-7.8,0-11.7,0c-1.1,0-1.4,0.3-1.4,1.4
					c0,10.8,0,21.6,0,32.3c0,1.2,0.3,1.6,1.6,1.6c6.6-0.1,13.2,0,19.8,0c0.8,0,1.6,0,2.4,0c0.1,0,0.3,0.3,0.4,0.5
					c0,0-0.2,0.2-0.3,0.3c-0.5,0-1.1,0.1-1.6,0.1c-6.4,0-12.7,0-19,0c-3.2,0-3.3,0.2-3.3,3.5c0,7,0,13.9,0,20.9c0,3.7,0,7.4,0,11.1
					c0,0.9,0,1.5,1.2,1.5c4-0.1,8.1-0.1,12.1,0c0.8,0,1.2-0.1,1.3-1.1c0.2-0.7,0.4-1.4,0.8-2.1c1.2-3.6,4.6-6.5,8.2-6.6
					c1.3,0,1.5-0.4,1.5-1.6C225.9,148.1,225.9,139.8,225.9,131.5L225.9,131.5z M276.9,130.2c1.5,0,3-0.1,4.5,0
					c1.2,0.1,1.6-0.5,1.2-1.4c-0.9-2.6-1.5-5.3-2.8-7.8c-0.7-1.3-2.2-1.3-2.6-2.5c-0.4-1.5-1.6-2.8-3.1-3.1c-1.7-0.4-2.5-2-4.3-2.5
					c-3.4-0.9-6.6-1.5-10.1-0.7c-4.5,0.9-11.6,5.6-13.4,9.5c-0.7,1.4-1.2,2.8-1.7,4.2c-0.5,2.1,0.5,4.5-0.8,6.5
					c1.6,1.2,0.3,3.2,1.3,4.8c1.5,2.5,2.4,5.5,4.6,7.4c1.6,1.3,3.2,2.6,4.9,3.7c1.9,1.4,4.1,1.2,6,2.3c1.2,0.7,2.5-0.5,2.6-2.1
					c0.1-1.9,0-3.8,0-5.7c0.1-0.4,0.2-0.7,0.3-1.1c0.1,0.3,0.4,0.6,0.4,0.9c0,1.4,0,2.7,0,4.1s0.2,2.6,0.4,3.9
					c1.1-0.3,2.2-0.6,3.3-0.8c2.9-0.5,5.6-1.9,7.7-3.9c3.4-3,5.6-6.7,7.2-12.1c0.5-1.6-0.5-2.8-2.3-2.9c-2.6-0.1-5.1,0-7.7,0
					c-0.4-0.1-0.9-0.2-1.3-0.5c0.3-0.2,0.7-0.3,1.1-0.3C274,130.2,275.5,130.2,276.9,130.2L276.9,130.2z M309.5,168
					c0-0.9,0.3-2.1-0.1-2.8c-0.8-1.6-1.9-3.1-3.4-4.2c-1.3-0.9-2.8-2.5-4.9-1.3c-0.3,0.2-0.9-0.2-1.4-0.4c-0.4-0.2-0.9-0.3-1.4-0.2
					c-3.1,1.2-5.6,3.7-6.7,6.8c-0.2,0.5-0.2,1.1,0.1,1.6c0.2,0.3,0.9,0.3,1.4,0.4c0.3,0.1,0.6,0.3,0.9,0.5c-0.3,0.2-0.7,0.3-1.1,0.3
					c-1.4,0-1.7,0.4-0.9,1.7c0.3,0.4,0.2,1,0.5,1.4c1.5,2.5,3.3,4.7,6.4,5.1c1.1,0.1,1.9,0,1.7-1.4c0-0.3,0.3-0.7,0.4-1
					c0.1,0.4,0.4,0.7,0.4,1.1c-0.2,1.6,0.9,1.6,1.7,1.3C306.1,175.7,310.4,171.7,309.5,168z M234.7,167.6c0.7-1.8-0.2-3.3-1.1-4.6
					c-0.8-1.1-1.8-2.1-2.8-2.9c-1.6-1.3-2.3-1.2-4,0.7c-0.1,0.2-0.3,0.3-0.5,0.5c-0.1-0.2-0.2-0.4-0.3-0.7c-0.6-1.9-0.9-2.2-2.4-1.3
					c-2.7,1.6-5.5,2.9-6,6.8c-0.2,1.3-0.8,1.9,0.9,1.9c0.3,0,0.7,0.3,1,0.4l-1,0.4c-0.5,0.2-2.1-0.5-0.7,1c0.1,3.5,2.5,5.3,5.1,6.7
					c1.1,0.6,2.8,1.6,3.3-0.9c0.2,0.1,0.7,0.2,0.7,0.3c0,1,0.6,1.3,1.2,1c1.9-0.7,4.2-1,5.2-2.9S235.5,170.2,234.7,167.6
					L234.7,167.6z M225.9,89.5c0-1,0-1.9,0-2.9c0-1.5-0.6-2-1.9-1.6c-1,0.3-2.2,0.4-2.8,1.1c-1.5,1.9-3.2,3.7-4.2,5.9
					c-0.2,0.6-0.7,1.9,1,2.1c0.8,0.1,0.4,0.6-0.2,0.8c-0.3,0.1-0.7,0.4-0.7,0.5c1,2.8,2,5.7,5.1,6.8c0.8,0.3,1.7,0.1,2.5,0.8
					c0.6,0.6,1.6-1.2,2.6,0c0.2,0.3,1.6-0.5,2.4-0.7c2.3-0.8,3.5-2.8,4.9-4.6c0.6-0.9,0.4-2.1-0.5-2.8c-0.3-0.2-0.7-0.3-1-0.4
					c0.4-0.1,0.7-0.2,1-0.4c0.3-0.2,0.5-0.5,0.6-0.9c0.4-2.8-2-6.2-5-7.3s-3-1.1-3.1,2.2v1.6c0,1.3-0.4,3.1,0.2,3.9s2.5,0.3,3.8,0.5
					c0.1,0,0.3-0.1,0.4,0c0.2,0.1,0.3,0.3,0.4,0.5c0,0.1-0.2,0.2-0.3,0.3c-0.1,0-0.3,0-0.4,0c-1.2,0-2.8-0.4-3.6,0.1
					s-0.4,2.2-0.5,3.4c0,0.2-0.3,0.4-0.4,0.5c-0.1-0.2-0.3-0.4-0.3-0.7c-0.1-1.1,0.2-2.5-0.3-3.1s-2-0.2-3.1-0.3c-0.3,0-0.5,0-0.8,0
					c-0.2-0.1-0.5-0.2-0.6-0.4c0.2-0.2,0.4-0.3,0.6-0.4c0.3,0,0.5,0,0.8,0c1.1,0,2.7,0.3,3.1-0.2c0.6-0.9,0.3-2.3,0.4-3.5
					C225.9,90.1,225.9,89.8,225.9,89.5L225.9,89.5z M301.3,99.1c-0.1,1.1,0,2.2,0.1,3.3c0,0.3,0.8,0.7,1.1,0.7
					c0.6-0.2,1.2-0.5,1.7-0.8c2.5-1.2,4.4-3.4,5.1-6c0.3-1.1-0.1-1.4-1.1-1.4c-0.4,0-0.7-0.1-1.1-0.3c0.4-0.2,0.8-0.5,1.2-0.5
					c1.3,0.1,1.3-0.9,1.1-1.6c-0.9-2.5-2-4.9-4.2-6.4c-1-0.7-2.4-0.7-3.5-1c-0.1,0.9-0.2,1.8-0.3,2.8c-0.1,1-0.1,1.9,0,2.9
					c0,1.1-0.1,2.3,0.4,3.1c0.3,0.5,1.8,0.2,2.7,0.2c0.1,0,0.3,0,0.4,0c0.2,0.1,0.4,0.3,0.5,0.4c-0.2,0.2-0.4,0.3-0.7,0.3
					c-1,0.1-2.7-0.2-3,0.3c-0.5,0.9-0.3,2.3-0.3,3.5L301.3,99.1z M295.9,94.1L295.9,94.1l4.4-0.1l0.3-4.8c0-0.1,0-0.3,0-0.4
					c-0.3-1.2,0.9-3.2-0.7-3.5c-1.2-0.3-3,0.5-4.2,1.2c-1.2,0.7-2.2,1.7-2.8,2.9c-0.6,1.4-1,2.9-1.2,4.4l3.5,0.4
					C295.3,94.1,295.6,94.1,295.9,94.1L295.9,94.1z M245,67.1V67c1.1,0,2.1,0,3.2,0c0.8,0,1.3-0.1,1.2-1c0-0.7,0-1.4,0-2
					c0-3.5,0-3.5-3.2-3.5c-1.2,0-2.4,0-3.6,0c-2,0-2,0-2,1.8c0,1.5-0.5,3.5,0.3,4.3S243.5,67,245,67.1z M296.3,95v-0.1
					c-1.3,0-2.7,0-4,0c-0.2,0-0.6,0.6-0.6,0.8c0.9,2.8,2.1,5.4,5,6.5c3.9,1.6,3.9,1.5,3.9-2.9c0-1.5-0.2-2.9-0.3-4.4L296.3,95z"/>
				<path d="M345.1,144V75.1c0-1.1-0.1-2.2,0-3.3s1-0.6,1.6-0.7s0.8,0.1,0.4,0.9c-0.3,0.9-0.5,1.8-0.4,2.7c0,17.8,0,35.5,0,53.3
					c0,2.3-0.3,2.2,2.1,2.2c5,0,10-0.1,15,0c1.3,0,1.5-0.4,1.5-1.6c0-18.2,0-36.4,0-54.5c0-0.4,0-0.8,0-1.2
					c-0.1-0.6-0.5-1.1-0.4-1.6c0-0.3,0.8-0.4,1.3-0.6c0.2-0.1,0.5-0.2,0.5-0.1c0.1,0.2,0.3,0.6,0.2,0.7c-1.1,1.1-0.8,2.5-0.8,3.8
					c0,17.3,0,34.7,0,52.1v0.4c0,2.6,0,2.7,2.5,2.7h11c2.9,0,2.9,0,2.8-3.1c0-0.8-0.5-1.6-0.5-2.4c0-0.5,0.2-1,0.6-1.4
					c0.3-0.3,0.9-0.2,1.4-0.3c0.2,1.3,1.9,2.3,0.7,3.9c-0.3,0.4-0.4,0.9-0.4,1.5c-0.2,1.6,0,1.7,1.6,1.9c0.8,0.1,1.5,0.2,2.3,0.3
					c-0.8,0.2-1.6,0.4-2.5,0.5c-5.5,0-11.1,0-16.6,0c-2.2,0-2.7,0.5-2.7,2.9c0,8.2,0,16.4,0,24.6c0,1-0.1,1.9,0.9,2.5s1,1.2-0.4,1.2
					c-0.2,0-0.2,1.2-0.5,1.8c-0.7,1.2,1.1,2.1,0.2,3.5c-0.6,1-0.1,2.6-0.1,4v21.7c0,7.7-0.1,15.3,0,23c0,1.6-0.5,1.7-1.8,1.7
					c-14.5-0.1-28.9-0.1-43.4,0c-1.3,0-2.7-0.6-3.8,0.6c-0.2,0.2-0.5,0.2-0.7,0.1c-3.3-1.8-6.8-0.7-10.2-0.7
					c-12.6-0.1-25.1-0.1-37.7-0.1c-0.9,0-1.9,0-2.8,0c-0.3,0-0.6-0.3-0.9-0.5c0.2-0.1,0.5-0.3,0.7-0.3c1.1,0,2.2,0,3.2,0h69.7
					c1.8,0,3.5-0.1,5.3,0c1.2,0.1,1.3-0.5,1.3-1.4c0-2.7,0-5.5,0-8.2L345.1,144z M346.8,186c0,9.7,0,19.4,0,29.1c0,2,0,2,1.8,2
					c4.7,0,9.5,0,14.2,0c2.6,0,2.6,0,2.6-2.5c0-16.8,0-33.6,0-50.4c0-2-1.2-3.9,0-5.9c0-8.3,0-16.7,0-25c0-1.6-0.7-2.3-2.5-2.3
					c-4.9,0-9.7,0-14.6,0c-1.2,0-1.7,0.2-1.6,1.6c0.1,1.5,0,3,0,4.5v9.4c0,1.5,0,3,0,4.5s-0.2,3.1,0.6,4.5c-1.2,1.3-0.5,2.9-0.5,4.3
					C346.7,168.5,346.8,177.2,346.8,186z"/>
				<path d="M97.8,156c0-19,0-38,0-57c0-1.3,0.3-3.2-0.4-3.8s-2.5-0.3-3.9-0.3c-3.4,0-6.8,0-10.1,0c-0.4-0.1-0.7-0.2-1-0.4
					c0.3-0.2,0.7-0.3,1.1-0.4c4.3,0,8.6,0,13,0c1,0,1.4-0.2,1.4-1.3c0-6.3,0-12.6,0-18.9c0-0.8,0-1.6,0.1-2.4c0-0.2,0.7-0.3,1-0.3
					c0.1,0,0.4,0.4,0.3,0.5c-1.5,3.8-0.3,7.7-0.7,11.6c-0.1,1,0.5,1,1.3,1s1.6,0,2.4,0l9.2-0.3c-0.1-4,0.6-8.1-0.4-12.1
					c0-0.2,0.2-0.5,0.2-0.7c0.3,0.1,1,0.2,1,0.4c0.1,0.7,0.1,1.3,0,2c0,6.3,0,12.6,0,18.8c0,1.1,0.1,1.8,1.5,1.7
					c2.2-0.1,4.3,0,6.5,0c0.3,0,0.6,0.3,1,0.4c-0.3,0.2-0.7,0.3-1.1,0.3c-2.3,0-4.6,0-6.9,0.1c-0.3,0-0.7,0.6-0.9,0.9
					c-0.1,0.2,0,0.5,0,0.8c0,10.5,0,21,0,31.6c0,1.9,0,1.8,2,2s4.1-0.6,6,0.5c-2,0.1-4,0.2-6,0.3s-2,0-2,1.9c0,11.1,0,22.1,0,33.2
					c0,1.3,0.1,2,1.7,1.9c2.1-0.2,4.3,0,6.5,0c0.2,0,0.4,0.2,0.7,0.3c-0.3,0.2-0.6,0.4-0.8,0.5c-0.1,0.1-0.3,0-0.4,0l-7.3,0.1
					c-0.1,2.7-0.3,5.4-0.3,8.1c0,12.7,0,25.4,0,38.1c0,2.1,0,2.1,2.2,2.1c3.4,0,6.8,0,10.1,0c0.2,0,0.4,0.2,0.7,0.4
					c-0.2,0.1-0.4,0.4-0.6,0.4c-0.4,0-0.8,0-1.2,0c-8,0-15.9,0-23.9,0c-1.8,0-1.8,0-1.8-2.1c0-2.5,0-4.9,0-7.4L97.8,156z
					 M111.6,198.3c0-6.1,0-12.3,0-18.4c0-0.7,0-1.3-1-1.3c-3.6,0-7.3,0-10.9,0c-0.9,0-1.1,0.4-1.1,1.2c0,12,0,24,0,36
					c0,0.8,0,1.3,1,1.3c3.6,0,7.3,0,10.9,0c0.9,0,1.1-0.4,1.1-1.2C111.6,210,111.6,204.1,111.6,198.3L111.6,198.3z M111.8,120.9
					h-0.2c0-2.7,0-5.5,0-8.2c0-1-0.2-1.5-1.3-1.4c-1.8,0.1-3.5,0-5.3,0c-2.1,0.1-4.2,0.2-6.3,0.3c0,2,0,4.1-0.1,6.1s0,3.8,0,5.7
					s-0.6,4.1,0.2,5.7c0.8,1.9-0.3,3.4-0.2,5.1c0.2,4.6,0,9.3,0.1,13.9c0,1.8,0.6,2.4,2.3,2.4c3.2,0.1,6.5,0.1,9.7,0
					c0.4-0.1,0.8-0.5,0.9-0.9c0-5.6,0.1-11.2,0-16.8c0.1-1-0.7-1.9-1.7-2c-0.1,0-0.2,0-0.3,0h-2.4c-2,0-4,0-6.1,0
					c-0.2,0-0.5-0.1-0.7-0.3c0.2-0.2,0.5-0.4,0.7-0.5c0.4,0,0.8,0,1.2,0h8.9L111.8,120.9z M105,151.5c-1.5,0-3,0-4.4,0
					c-2,0-2,0-2,1.9c0,1.7-0.2,3.4,0.8,5c-1.7,2.2-0.5,4.7-0.8,7c-0.2,1.8,0.6,2.4,2.3,2.4c3.1,0.1,6.2,0,9.3,0c1,0,1.5-0.3,1.3-1.4
					c-0.4-2.7,0.9-5.6-0.8-8.3c-0.1-0.2-0.1-0.5,0.1-0.7c1.3-1.4,0.4-3.1,0.7-4.6c0.2-1-0.1-1.5-1.3-1.4
					C108.6,151.6,106.8,151.5,105,151.5z M104.9,94v0.1c1.8,0,3.5-0.1,5.2,0c1.4,0.1,1.5-0.6,1.4-1.7c-0.1-2.4-0.2-4.8-0.3-7.2
					l-6.8-0.1c-1.5,0-3,0.1-4.4,0s-1.6,0.6-1.4,1.7c0,0.3,0,0.5,0,0.8c0.1,2.1,0.2,4.3,0.3,6.4L104.9,94z M105.1,177.8v0.1l6.3-0.4
					c0-2.2,0.1-4.3,0.1-6.5c0-0.4,0-0.8,0-1.2c0.1-1-0.5-1-1.2-1c-3.5,0-7,0-10.5,0c-0.8,0-1.3,0.1-1.2,1s0,1.6,0,2.4
					c0,1.8,0.1,3.5,0.1,5.3c1.7,0.1,3.4,0.2,5.1,0.3C104.3,177.8,104.7,177.8,105.1,177.8L105.1,177.8z M105.1,103.2
					c1.7,0,3.5,0,5.2,0c0.4,0,1.2-0.4,1.2-0.6c0-2.4,0-4.9-0.1-7.3c-1.8-0.1-3.7-0.2-5.5-0.3c-1.5-0.1-3,0-4.4,0
					c-2.4,0-2.8,0.5-2.9,2.7c0,1.4,0.1,2.7,0,4.1s0.6,1.5,1.7,1.4C101.9,103.1,103.5,103.1,105.1,103.2L105.1,103.2z M104.7,110.5
					c0.7,0,1.3,0,2,0c1.6-0.1,3.2-0.2,4.7-0.3c0-1.6,0.1-3.2,0.1-4.8c0-0.9,0-1.5-1.2-1.5c-3.5,0.1-7,0-10.5,0c-0.8,0-1.3,0.1-1.2,1
					c0,0.7,0,1.4,0,2c0,3.5,0,3.5,3.2,3.5L104.7,110.5z"/>
				<path d="M370,403.3h-30c-0.5,0-1.1,0-1.6,0c-0.2,0-0.4-0.3-0.6-0.4c0.2-0.1,0.4-0.4,0.6-0.4c4.7,0,9.5,0,14.2,0
					c1.4,0,3,0.6,4.2-0.7c0.1-0.1,0.9,0,1,0.2c0.8,0.9,1.7,0.5,2.6,0.5c13.4,0,26.7,0,40.1,0c2,0,2,0,2-1.9c0-9.7,0-19.4,0-29.1
					c0-1.8,0-1.8-2-1.9c-2.3,0-4.6,0-6.9,0c-0.2-0.1-0.5-0.2-0.7-0.3c0.3-0.2,0.5-0.5,0.8-0.5c2.6,0,5.1-0.1,7.7,0
					c1.3,0,1.1-0.8,1.1-1.6c0-7.4,0-14.8,0-22.1c0-1.5-0.4-1.8-1.8-1.8c-11.9,0.1-23.8,0-35.7,0c-2.4,0-4.9,0-7.3,0
					c-0.2,0-0.6-0.5-0.7-0.7c0-0.4,0.2-0.7,0.5-0.8c0.5-0.1,1.1-0.1,1.6,0h42.5c2.3,0,2.3,0,2.3,2.4c0,18.2,0,36.3,0,54.5
					c0,0.8,0,1.6,0,2.5c-0.1,1.2,0.5,1.3,1.4,1.3c3.2,0,6.5,0,9.7,0c0.4,0.1,0.7,0.2,1,0.4c-0.3,0.2-0.6,0.3-1,0.4
					c-3.1,0-6.2,0.1-9.3,0c-1.3,0-1.9,0.1-1.9,1.7c0.1,5.3,0,10.6,0,16v37.7c0,0.8,0,1.6,0,2.5c0.1,1.1-0.8,1.9-1.8,2
					c-0.1,0-0.1,0-0.2,0c-0.5,0-1.1,0-1.6,0h-40.8c-0.7,0-1.3,0-2,0c-0.2,0-0.4-0.6-0.5-0.9c0-0.1,0.6-0.4,0.6-0.4
					c0.8,0.9,1.8,0.5,2.6,0.5c13.4,0,26.7,0,40.1,0c2,0,2,0,2-1.9c0-7.5,0-15,0-22.5c0-1.4-0.1-2.2-1.7-1.8c-0.2,0-0.4-0.2-0.7-0.3
					c0.1-0.2,0.3-0.4,0.4-0.6c0.6-0.4,1.6-0.6,1.9-1.2c0.2-0.9,0.2-1.9,0.1-2.8c0-8.6,0-17.2,0-25.8c0-2,0-2-1.9-2
					C390.6,403.3,380.3,403.3,370,403.3z"/>
				<path d="M304.2,496.4c-6-3.7,4.7-3.7,15.4-3.7c2.1,0,2.1,0,2.1,2.2c0,3.1,0,6.3,0,9.4c0,1.6-0.7,2.2-2.2,2.3c-0.7,0-1.4,0-2,0
					h-61.2c-0.7,0-1.4,0-2,0c-1.5-0.1-2.2-0.7-2.2-2.1c0-3.3-0.1-6.6,0-9.8c-0.1-1,0.7-1.9,1.7-2c0.1,0,0.2,0,0.3,0
					c1.1,0,2.2,0,3.2,0C267.3,492.6,277.4,492.6,304.2,496.4c16.6,2.6,16.6,1.5,16.6,0.4c0-3.3,0-3.3-3.4-3.3c-2.3,0-4.5,0-6.8,0.1
					c-0.1,2.4-0.3,4.8-0.3,7.2c0,1.6,0.1,3.2,0.1,4.8c1.6,0.1,3.2,0.2,4.7,0.2c1.9,0,3.8,0,5.6,0C320.8,503.9,320.8,502,304.2,496.4
					z M278.4,505.8c1,0,1.9,0,2.8,0l10.1-0.1c0.1-3.6,0.2-7.3,0.3-10.9c0-1.1-0.4-1.3-1.4-1.3c-7.7,0-15.3,0-23,0
					c-1.2,0-1.7,0.3-1.6,1.6c0.1,1.6-0.1,3.2,0.8,4.6c-1.4,1.1-0.7,2.8-0.8,4.1c-0.1,2,0,2,1.8,2.1
					C271.1,505.8,274.8,505.8,278.4,505.8z M259.3,493.6v-0.1c-1.6-0.1-3.2-0.1-4.8,0.1c-0.7,0.1-1.4,1-1.8,1.7
					c-0.3,0.5-0.1,1.3-0.1,2c0,1.9,0,1.9,2,1.9c1.2,0,2.6,0.2,3.5-0.4c0.5-0.3,0.2-2,0.3-3.1c0-0.2,0.2-0.4,0.4-0.7
					c0.1,0.2,0.4,0.4,0.4,0.6c-0.1,1.8,1.2,3.4,3,3.5c0.1,0,0.3,0,0.4,0c0.2,0,0.4,0.2,0.6,0.4c-0.2,0.1-0.4,0.4-0.6,0.4
					c-2.1,0-3.1,1.1-3.4,3.1c-0.1,0.3-0.2,0.7-0.4,1c-0.2-0.3-0.3-0.7-0.4-1.1c-0.2-3-0.2-3-3.3-3c-0.4,0-0.8,0-1.2,0
					c-0.9-0.1-1.2,0.2-1.2,1.1c0.1,0.7,0,1.4,0,2c0.1,2,0.6,2.5,2.6,2.6c2.3,0,4.6,0,6.9,0c2.2,0,2.6-0.5,2.7-2.9c0-1.2,0-2.5,0-3.7
					c-0.1-1.9-0.2-3.7-0.3-5.6L259.3,493.6z M299.9,499.4h-0.1c0,1.8,0,3.5,0,5.3c0,0.4,0.5,1,0.8,1c2.7,0.1,5.4,0.1,8.1,0
					c0.3-0.1,0.6-0.3,0.8-0.6c0.1-0.7,0-1.4,0-2c0.1-1-0.2-1.3-1.3-1.4c-2.6-0.2-2.8-0.5-2.7-2.8c0-0.4,0.4-0.8,0.6-1.3l1,0.9
					l0.6,0.6c-0.6-1.8,1.8-0.9,1.9-2.4c0.1-2.9,0.1-3.1-2.9-3.1h-0.8l-6,0.3L299.9,499.4z M292.4,499.6v2c0,4.7,0,4.7,4.6,4.2
					c0.1,0,0.3,0.1,0.4,0c0.5-0.5,1.4-1.1,1.4-1.6c0.1-3.2,0.1-6.5,0-9.8c0-0.3-0.4-0.8-0.6-0.8c-1.9,0-3.7,0-5.6,0.1
					c-0.1,1.5-0.2,2.9-0.3,4.4C292.4,498.5,292.4,499,292.4,499.6L292.4,499.6z"/>
				<path d="M292.4,329.5c-10.8,0-21.6,0-32.4,0c-2.5,0-2.5,0-2.5-2.6c0-3,0.1-6,0-9c0-1.4,0.6-1.6,1.7-1.5c0.5,0,1.1,0,1.6,0H324
					c3.3,0,3.3,0,3.3,3.5c0,2.7-0.1,5.5,0,8.2c0.1,1.4-0.6,1.5-1.7,1.5C314.6,329.4,303.5,329.4,292.4,329.5z M264,328.8v-0.1h0.8
					l4.8-0.2c0-1.3-0.4-3.3,0.3-3.9c1.7-1.6-0.2-2.5-0.1-3.7s0.2-2.9-0.4-3.4s-2.3-0.2-3.5-0.2c-0.5,0-1.1,0-1.6,0l-5.6,0.2
					c-0.1,1.9-0.2,3.8-0.2,5.6s0,3.5,0.1,5.3c1.8,0.2,3.7,0.3,39.8,0.3h18.6c3.1,0,6.2,0,9.3-0.1c0.1-3.4,0.2-6.7,0.3-10.1
					c0-0.1,0.1-0.3,0-0.4c-0.3-0.3-0.6-0.9-1-0.9c-2.8-0.1-5.7-0.1-8.5,0c-0.4,0.1-0.8,0.4-1,0.8c-0.2,0.8-0.3,1.5-0.3,2.3
					c-1.1-0.6-0.2-1.6-0.6-2.3c-0.2-0.4-0.6-0.7-1-0.8c-2.6-0.1-5.1,0-7.7-0.1c-1.4-0.1-1.9,0.2-1.8,1.8c0.1,3-0.2,5.9-0.3,8.9
					c-1.1-3-0.3-6-0.4-9.1c-0.1-1.3-0.4-1.6-1.6-1.5c-10,0-20,0-29.9,0c-0.3,0-0.6-0.1-0.8,0c-0.4,0.2-0.9,0.6-0.9,0.9
					c0.1,1.1-0.5,2.4,0.5,3.5c0.3,0.3,0.3,1.6,0,1.8c-1.2,0.8-0.6,1.9-0.6,2.8c-0.1,2.4,0,2.5,2.2,2.5
					C281.3,328.6,289.8,328.6,264,328.8z"/>
				<path d="M354.9,254.8c-3.9,0-7.8,0-11.8,0c-0.8,0-1.6-0.4-1.2-1c1.1-1.5,0.7-3.1,0.7-4.6c0.1-2.2,0.1-4.4,0-6.6
					c-0.1-0.4-0.5-0.8-0.9-0.9c-3.1-0.1-6.2-0.1-9.3,0c-1,0-1.9,0.8-1.9,1.8c0,0.1,0,0.2,0,0.2c0,1.5-0.2,2.9-0.3,4.4
					c-1-1.4-0.4-3-0.5-4.5c-0.1-2.3,0.5-2.8,2.8-2.8c5.9,0,11.9,0,17.8,0c1.3,0,1.1-0.1,0.6-1.2c-0.6-1.3-0.2-2.8,0.9-3.6
					c0.6-0.4,1.5-0.2,1.9,0.4c0.1,0.2,0.2,0.5,0.2,0.7c0,1.2,0.2,2.4-0.7,3.3c1.4,0.1,2.9,0.3,4.3,0.3c10,0,20,0,30,0
					c2.1,0,2.1,0,2.1,2.2c0,3.7,0,7.4,0,11.1c0,0.2-0.2,0.4-0.4,0.6c-0.1-0.2-0.4-0.4-0.4-0.6c0-3.6-0.1-7.1,0-10.6
					c0-1.4-0.1-2.2-1.7-1.8c-1.1,0.3-2.4-0.6-3.4,0.6c-0.3,0.2-0.7,0.2-1,0.1c-1-1.2-2.3-0.5-3.4-0.7s-2,0-1.9,1.7
					c0.2,2.6,0.2,5.2,0,7.8c-0.1,1.1,0.3,2.1,1.2,2.8c0.6,0.5,0.4,0.9-0.4,0.9c-1.1,0-2.2,0-3.2,0c-0.5-0.1-1-0.1-1.5-0.3
					c0.5-0.2,1.1-0.3,1.6-0.5c0.9-0.2,1.6-1,1.6-2c0-3.1,0-6.3,0-9.4c0-0.3-0.6-0.8-1-0.8c-1.7,0-3.5,0.1-5.2,0.1
					c-0.1,1.6-0.2,3.2-0.2,4.8s0.1,3.3,0,4.9c-0.1,0.8,0.2,1.6,0.9,2.1c0.5,0.3,1,0.6,1.4,0.9c-0.6,0.1-1.3,0.2-1.9,0.3
					c-0.4,0.1-0.8,0.1-1.2,0c-0.4-0.2-0.9-0.8-0.8-1c1.6-3.6,0.4-7.5,0.8-11.2c0.1-1.1-0.7-0.9-1.4-0.9h-10.7c-4.2,0-8.4,0.1-12.6,0
					c-1.3,0-1.7,0.5-1.5,1.6c0.3,1.5-0.8,3.3,0.8,4.6c-0.6,1.3-0.9,2.7-0.9,4.2c0.2,1.9,0.1,1.9,2,1.9c6.5,0,13,0,19.5,0
					c0.8,0,1.6,0,2.4,0c0.1,0,0.3,0.3,0.3,0.5s-0.2,0.3-0.3,0.3c-0.7,0-1.4,0-2,0L354.9,254.8z"/>
				<path d="M236.8,25.2h-25.9c-1.3,0-2.7-0.3-3.6,1.1c-0.1,0.1-0.6,0.1-0.8,0.1c-0.5-0.2-1-0.3-1.5-0.4c-4.2-0.3-4.2-0.3-4.2,4.1
					c0,12.6,0,25.1,0,37.7c0,1.4-0.3,2.9,1.9,2.5c0,0,0.1,0.5,0.2,0.7c-2.6,0.3-2,2.3-2.1,4c0,0.4,0,0.8,0,1.2
					c0,0.2-0.3,0.4-0.4,0.6c-0.1-0.1-0.3-0.2-0.3-0.3c-0.3-1.9,0.3-4-0.9-5.8c1.7-1.9,0.8-4.2,0.8-6.2c0.1-16.9,0.1-33.9,0-50.8
					c0-1.3,0.3-3.2-0.4-3.8s-2.5-0.3-3.9-0.3c-4.2,0-8.4,0-12.6,0c-0.4-0.1-0.7-0.2-1-0.4c0.3-0.2,0.7-0.3,1.1-0.4
					c5.4,0,10.8,0,16.2,0c1,0,1.4,0.2,1.4,1.3c-0.1,4.4,0,8.7,0,13.1c0,0.9,0.3,1.3,1.1,1.1c1.4-0.2,3,0.6,4.1-0.8
					c0.2-0.1,0.5-0.1,0.8,0c1.6,1.6,3.6,0.7,5.4,0.8c16.5,0.1,33,0,49.4,0c0.9,0,1.9,0,2.8,0c0.1,0,0.3,0.2,0.3,0.3
					s-0.2,0.5-0.3,0.5c-0.8,0-1.6,0-2.4,0L236.8,25.2z"/>
				<path d="M405.9,170.4c8.9,0,17.8,0,26.8,0c0.5-0.1,1,0,1.5,0.3c0.5,0.4,0.7,1,0.8,1.6c0,0.4-0.6,0.8-0.9,1.2
					c-0.2-0.2-0.6-0.5-0.5-0.7c0.1-1.1-0.1-1.9-1.5-1.6c-0.5,0-1.1,0-1.6,0.1c-0.4,0.1-1,0.6-0.9,0.9c0,1.6,0.4,3.2,0.4,4.8
					s-0.3,3.2-0.4,4.8c0,0.3,0,0.5,0.1,0.8c0.4,1.1,0.4,1.1-0.2,1.1c-3.2,0-6.5,0-9.7,0c-0.2,0-0.4-0.2-0.7-0.4
					c0.2-0.1,0.3-0.4,0.5-0.4c0.5-0.1,1.1-0.1,1.6,0c0.9,0.1,1.1-0.4,1.1-1.2c0-3,0-6,0-9c0-0.8-0.1-1.3-1.1-1.2c-2,0.1-4,0.1-6,0.2
					c-0.1,1.9-0.2,3.8-0.2,5.6c0,1.5,0,3,0,4.5c0,0.9,0.2,1.3,1.1,1.2c0,0,0.1,0.5,0.1,0.8h-0.4c-8.4,0-16.8,0-25.1,0
					c-0.2,0-0.5-0.3-0.7-0.5c0.2-0.1,0.5-0.2,0.7-0.3c6.5,0,13,0,19.5,0h2c2,0,2,0,2-1.9c0-2.7,0-5.5,0-8.2c0-1-0.2-1.4-1.3-1.4
					c-3.2,0.1-6.5,0-9.7,0c-3.8,0-7.6,0-11.4,0c-0.9,0-1.1,0.3-1.2,1.1c-0.1,1.2,0.6,2.6-0.5,3.7c-0.1-1.2-0.3-2.4-0.3-3.6
					c0-0.8,0-1.3-1-1.3c-3.1,0-6.2,0-9.3,0.1c-0.3,0-1,0.6-1,0.8c0.3,3.6-0.7,7.3,0.5,10.8c0,0.1-0.3,0.5-0.5,0.6
					c-0.2,0-0.5,0-0.7-0.2c-0.1-0.4-0.2-0.8-0.2-1.1c0-3.4,0.1-6.8,0-10.2c0-1.4,0.5-1.5,1.6-1.5C388.1,170.4,397,170.4,405.9,170.4
					z M423,176.7c0,1.5,0,3,0,4.5c0,0.9,0,1.4,1.2,1.5c4.5,0.1,4.5,0.2,4.5-4.4c0-1.9,0-3.8,0-5.7c0-0.9,0-1.4-1.2-1.5
					c-4.5-0.1-4.5-0.1-4.5,4.4V176.7z"/>
				<path d="M332.8,25.2H307c-0.7,0-1.4,0-2,0c-0.1,0-0.3-0.2-0.3-0.3s0.2-0.5,0.3-0.5c1.1,0,2.2,0,3.2,0c15.5,0,31.1,0,46.6,0
					c1.5,0,3.2,0.6,4.6-0.8c0.4-0.2,0.8-0.2,1.2,0c1.4,1.1,3,0.7,4.5,0.8c1.2,0,1.5,0.7,0.7,1.5s-0.5,2.1-0.5,3.1
					c0,10.8,0,21.6,0,32.4c0,0.8,0,1.6,0,2.5c-0.1,0.2-0.2,0.5-0.3,0.7c-0.2-0.3-0.5-0.6-0.5-0.9c-0.1-1.1,0-2.2,0-3.3
					c0-10.8,0-21.6,0-32.4c0-1.9-0.1-1.7-2-2C352.1,24.5,341.5,25.6,332.8,25.2z"/>
				<path d="M121.3,442.6h-5.7c-1.2,0-2.8,0.5-3.5-0.1s-0.1-2.4-0.6-3.3c-0.9-1.6-1.2-2.8,0-4.3c0.3-0.4,0.1-1.3,0.1-2
					c0-8.3,0-16.7,0-25c0-2,0-2-1.8-2.1l-4.4-0.1c-0.1-1.6-0.2-3.2-0.2-4.8c0-1.8,0.6-2.4,2.3-2.4c3,0,5.9,0,8.9,0
					c0.3,0,0.5,0,0.8,0c1.3,0.2,1.7,1.1,1.7,3.9c0,2.5-0.4,3.2-1.8,3.5c-0.1,0-0.3,0-0.4,0l-4,0.1c-0.1,1.6-0.3,3.2-0.3,4.8
					c0,7.1,0,14.2,0,21.3c0,1.3-0.4,2.6,0.7,3.8c0.4,0.4-0.1,1.8-0.2,2.7c-0.1,0.8-0.4,1.5-0.5,2.2s0.3,1.1,1.1,1.1
					c4.9,0,9.7,0,14.6,0c0.4,0,0.8,0,1.2,0c0.3,0.1,0.5,0.3,0.8,0.5c-0.2,0.1-0.4,0.2-0.7,0.3c-2,0-4.1,0-6.1,0L121.3,442.6z
					 M105.9,403.3c0,0.1,0,1.4,0.4,1.5c0.9,0.3,1.8,0.2,2.7-0.2c0.7-0.4,1-1.3,1.5-2c0.3,0.8,0.9,1.4,1.6,1.8
					c1.6,0.9,3.1,0.6,4.6,0.5c1.1-0.1,1.4-1.3,1.4-2.5s-0.1-2.9-1.3-3c-1.8-0.1-3.7-0.8-5.4,0.5c-0.6,0.4-0.6,0.3-2.5-0.5
					c-1-0.4-2.7,0.3-2.9,1.3C105.8,401.5,105.8,402.4,105.9,403.3z"/>
				<path d="M125.4,120.7v41.4c0,0.9,0,1.9,0,2.9c0,0.1-0.3,0.2-0.5,0.3s-0.3-0.2-0.3-0.3c0-0.5,0-1.1,0-1.6V78.2c0-0.5,0-1.1,0-1.6
					c0-0.1,0.3-0.3,0.5-0.3s0.3,0.2,0.3,0.3c0,1,0,1.9,0,2.9V120.7z"/>
				<path d="M272.1,370.9c0-6,0-12,0-18c0-1.3,0.1-2.6-1.1-3.7c-0.6-0.5-0.5-1.9-0.4-3c0-0.6,0.6-1.1,0.7-1.8c0.2-1.6,0-1.9-1.6-1.9
					h-22.3c-0.5,0-1.1,0-1.6,0c-0.1,0-0.3-0.2-0.3-0.2s0.1-0.5,0.3-0.5c0.3,0,0.5,0,0.8,0c8.9,0,17.8,0,26.7,0
					c0.4,0,0.7,0.4,1.1,0.5c-0.4,0.1-0.7,0.2-1.1,0.2c-1.3-0.2-1.3,0.7-1.1,1.5s0.9,1.8,0.7,2.5c-0.4,1.1,1.2,1.6,0.4,2.8
					c-0.5,0.8-0.3,2.1-0.3,3.1c0,12,0,24,0,36c0,0.7,0,1.4,0,2c0,0.1-0.2,0.3-0.3,0.3s-0.5-0.2-0.5-0.3c0-0.7,0-1.4,0-2L272.1,370.9
					z"/>
				<path d="M403.5,318c0,6.3,0,12.6,0,18.8c0,0.2-0.3,0.5-0.5,0.7c-0.1-0.2-0.2-0.5-0.3-0.7c0-3.3,0-6.6,0-9.8v-15.2
					c0-3.7,0-3.7-3.9-3.7c-4.3,0-8.6,0-13,0c-1.2,0-2.1,0.1-1.9-1.7c0.3-2.7,0.2-5.4,0.3-8.1c2.5,0,5.1-0.1,7.6-0.1s5.1,0,7.7,0
					c3.9,0,3.9,0,3.9,3.7L403.5,318z M394.2,299.1c-0.9,0-1.9,0-2.8,0c-2.1,0.1-4.2,0.2-6.4,0.3c0,2.3-0.1,4.6-0.1,6.9
					c0,0.4,0.5,1,0.8,1c5.4,0.1,10.8,0.1,16.2,0c0.3,0,0.7-0.6,0.8-1c0.1-0.5,0.1-1.1,0-1.6l-0.1-5.3c-1.7-0.1-3.4-0.2-5.1-0.3
					C396.4,299.1,395.3,299.1,394.2,299.1L394.2,299.1z"/>
				<path d="M103.4,235.5c-5.6-6.1-5.6-10-5.6-14c0.1-0.4,0.2-0.7,0.3-1.1c0.2,0.4,0.4,0.8,0.5,1.3c0,4.1,0,8.2,0,12.3
					c0,2.3,0.5,2.8,2.8,2.8c5.7,0,11.3,0,17,0c2,0,2.1,0,2.1,2.2c0,2,0,4.1,0,6.1c0,1.6-0.7,2.3-2.2,2.3c-6.1,0-12.1,0-18.2,0
					c-1.6,0-2.2-0.8-2.2-2.5C97.8,241,97.8,237.2,103.4,235.5c4.1,2,2.7,1.9,1.2,2c-2,0.1-3.9,0.2-5.9,0.3c0,2-0.1,4.1-0.1,6.1
					s0.6,2.6,2.5,2.6c3.8,0,7.5,0,11.3,0h7.2c0-2.6-0.1-5.2,0-7.7c0-1.2-0.5-1.3-1.4-1.3C115.2,237.6,112.1,237.6,103.4,235.5z"/>
				<path d="M170,217.9h-26.4c-0.8,0-1.6,0-2.4,0c-0.1,0-0.3-0.2-0.3-0.3s0.2-0.5,0.3-0.5c0.4,0,0.8,0,1.2,0
					c1.6-0.1,1.7-0.2,1.1-1.7c-1.1-2.4,0.4-4.6,0.5-6.9c0-0.1,0.2-0.3,0.3-0.3s0.5,0.2,0.5,0.3c0.2,2.5,2,5,0.1,7.6
					c-0.1,0.1,0.5,0.9,0.8,0.9c0.9,0.1,1.9,0.1,2.8,0.1h47.4c1,0,1.9,0,2.8,0c0.1,0,0.3,0.2,0.3,0.2s-0.2,0.5-0.3,0.5
					c-0.8,0-1.6,0-2.4,0L170,217.9z"/>
				<path d="M144,107.5c0-8,0-16.1,0-24.1c0-1.5,0.3-3.1-0.7-4.6c-0.6-1.2-0.6-2.7,0.1-3.9c1.2-1.8,0.6-2.7-0.6-3.8
					c-0.1-0.2-0.2-0.4-0.1-0.6c0.2-0.1,0.5-0.3,0.7-0.2c0.6,0.2,1.1,0.5,1.7,0.8c0.2,0.1,0.4,0.6,0.3,0.7c-1.5,2,1.1,3.7,0.4,5.6
					c1.2,1,0.3,0.9-0.5,1.3c-0.4,0.2-0.4,1.4-0.4,2.2c0,8.3,0,16.7,0,25v25.8c0,1,0,1.9,0,2.9c0,0.2-0.2,0.4-0.4,0.7
					c-0.1-0.2-0.4-0.4-0.4-0.6c0-1,0-1.9,0-2.9L144,107.5z"/>
				<path d="M164.3,167.9c-0.5-0.1-1.3-0.1-1.4-0.3c-0.8-1.8,0.7-4-0.9-5.8c0,0,0.1-0.2,0.1-0.3c2.2-1.6,1.3-3.9,1.4-6
					c0.1-6.3,0-12.6,0.1-18.9c0-1.2-0.2-1.8-1.5-1.6c-0.5,0.1-1.1,0.1-1.6,0c-1.9-0.1-2.5-0.7-2.6-2.6c0-1.4-0.1-2.7,0-4.1
					c0-0.2,0.5-0.4,0.8-0.7c0,1.5,0,3,0,4.5c-0.1,1,0.7,1.9,1.7,2c0.1,0,0.2,0,0.2,0c2,0.1,4.1,0.1,6.1,0c0.3,0,0.8-0.6,0.9-0.9
					c0.1-0.5,0.1-1.1,0.1-1.6c0-0.2,0.2-0.4,0.4-0.7c0.1,0.2,0.4,0.4,0.4,0.6c0,0.8,0,1.6,0,2.5c0.1,1-0.5,1.1-1.3,1
					c-0.4,0-0.8,0-1.2,0c-1.2-0.1-1.6,0.2-1.6,1.5c0.1,5.9,0,11.8,0.1,17.6c0,2.4-0.8,4.8,0.8,7.1c0.2,0.4,0.2,0.8,0,1.2
					C163.6,164.1,164.6,166.1,164.3,167.9z"/>
				<path d="M157.8,480.4h-18.6c-0.9,0-2.4,0.4-2.8-0.1c-1-1.2-1.5,0.2-2.2,0.1c-0.4-0.1-0.7-0.3-1-0.6c-0.2-0.2-0.4-0.4-0.6-0.6
					c0.2-0.1,0.4-0.4,0.6-0.4c1.9-0.2,4,0.5,5.8-0.8c0.2-0.1,0.5,0,0.7,0.2c1.3,2.1,3.3,1.4,5.1,1.4c10.2,0,20.5,0,30.8,0
					c0.9,0,1.9,0,2.8,0c0.1,0,0.2,0.3,0.3,0.5s-0.2,0.2-0.3,0.3c-0.7,0-1.4,0-2,0L157.8,480.4z"/>
				<path d="M263.9,49.8h-1.2c-1.1,0-2.4,0.3-3.1-0.2c-1-0.7-0.1-2.4-1-3.6s1.4-3.5,3.1-3.5c1.5-0.1,3-0.1,4.4,0
					c1,0.2,3-1.2,2.9,1.4c0,1,1.7,1.8,0.1,3.1c-0.5,0.4,0,2.3-0.4,2.5c-0.8,0.5-2,0.2-3.1,0.3C264.9,49.8,264.4,49.8,263.9,49.8z
					 M266.2,49c1.6,0,2-0.3,1.9-0.9c-0.2-1.1-1-0.6-1.6-0.7s-1.1,0-1.6,0c-0.2,0-0.5-0.1-0.7-0.2c0.1-0.3,0.3-0.6,0.5-0.9
					c0.8-1,1.6-1.7,2.6-0.2c0.1,0.1,0.5,0,0.8,0l-0.3-2.7c-0.5,0.2-1.1,0.4-1.7,0.6c-0.1,0-0.2-0.1-0.3-0.1c-1.6-1.9-3,0.8-4.7,0.3
					c-0.4-0.1-1.5,1.1-1.2,2.2c0.1,0.4,0.6,0.6,0.9,1c1-1.1,1.7-0.5,2.4,0.4C263.9,48.8,265.1,49.3,266.2,49L266.2,49z"/>
				<path d="M144,180.2v-23.8c0-0.7,0-1.4,0-2c0-0.1,0.2-0.3,0.2-0.3s0.5,0.2,0.5,0.3c0,0.4,0,0.8,0,1.2v50c0,0.4,0,0.8,0,1.2
					c0,0.1-0.2,0.3-0.2,0.3s-0.5-0.2-0.5-0.3c0-0.8,0-1.6,0-2.4V180.2z"/>
				<path d="M272.1,403.3c2.2,0,4.3,0,6.5,0c0.3,0,0.8,0.7,0.8,1c-0.2,1-0.6,0.2-1,0c-0.2-0.1-0.5-0.2-0.7-0.2c-2,0-4.1-0.2-6.1,0.7
					c-1.8-1.5-3.9-0.4-5.8-0.7c-1-0.2-1.1,0.5-1,1.3c0.1,0.4,0.4,1.1,0.7,1.1c0.9,0.1,1.9,0.1,2.8,0.1c0.2,0,0.3,0.3,0.5,0.5
					c0,0-0.2,0.2-0.3,0.3c-0.5,0-1.1,0-1.6,0.1c-2.2,0.1-2.2,0.1-2.1,2.2c0,0.9,0.4,1.1,1.2,1.1c3.9,0,7.8,0,11.7,0
					c0.2,0,0.5,0.3,0.7,0.5c-0.2,0.1-0.4,0.2-0.7,0.3c-4.2,0-8.4,0-12.5,0c-0.8,0-1.3-0.1-1.2-1c0.1-2.3,0.1-4.6,0.1-6.9l6.4-0.3
					C271.1,403.2,271.6,403.3,272.1,403.3z"/>
				<path d="M125.4,192.5c0,6.8,0,13.6,0,20.5c0,0.3-0.3,0.5-0.5,0.8c-0.1-0.2-0.2-0.5-0.3-0.7c0-0.8,0-1.6,0-2.5v-36
					c0-1,0-1.9,0-2.9c0-0.1,0.3-0.3,0.5-0.3c0,0,0.3,0.2,0.3,0.3c0,0.5,0,1.1,0,1.6L125.4,192.5z"/>
				<path d="M192.7,494.3c-2.1,0-4.3-0.1-6.4,0c-1.5,0.1-2-0.3-1.7-1.8c0.1-0.5,0.2-1,0.4-1.5c0.1,0.5,0.3,0.9,0.5,1.3
					c0.2,0.4,0.6,1,0.8,1c2-0.2,4.2,0.8,6.1-0.7c0.2-0.1,0.8,0.3,1.2,0.4c2.1,0.1,4.1,0.2,6.2,0.3c0.1,0,0.3-0.4,0.2-0.7
					s-0.2-0.6-0.3-0.7c-1-0.1-2.1,0-3.2-0.2c-0.2,0-0.6-0.5-0.5-0.8c0.1-0.3,0.3-0.6,0.7-0.7c0.4-0.1,0.8,0.1,1.2,0
					c0.8-0.2,2.2,0.8,2.1-0.9c0-1.3-1.2-0.5-1.9-0.8c-0.2-0.1-0.3-0.3-0.4-0.5s0.1-0.2,0.3-0.3c1.6-0.6,2.8,0.2,2.8,1.8
					s0.5,3.5-0.2,4.3s-2.7,0.4-4.1,0.4C195.2,494.3,194,494.3,192.7,494.3z"/>
				<path d="M403.5,473.4v5.7c0,1.4,0.5,3.1-0.1,4c-0.5,0.7-2.4,0.3-3.7,0.6c-0.5,0.1-0.9,0.6-1.3,0.7c-0.6,0.1-1.6,0.2-1.8-0.1
					c-0.6-0.7-0.4-1.8,0.3-2.4c0,0,0.1-0.1,0.1-0.1c0.2-0.2,0.7-0.3,0.8-0.2c1.2,1,2.6,0.3,3.9,0.5c0.9,0.1,1.1-0.3,1.1-1.1
					c0-4.9,0-9.8,0-14.8c0-0.4,0-0.8,0-1.2c0.1-0.3,0.3-0.5,0.5-0.8c0.1,0.2,0.2,0.5,0.3,0.7c0,2,0,4.1,0,6.1L403.5,473.4z"/>
				<path d="M190.8,487.7c1.6,0,3.2,0,4.9,0c0.4,0.1,0.7,0.2,1.1,0.4c-0.4,0.2-0.9,0.3-1.4,0.4c-1.9,0.1-0.2,0.9-0.3,1.3
					c-0.2,0.9-0.5,1.7-0.9,2.5c-0.2,0-0.4,0-0.6-0.1c0-1.5-0.5-1.3-1.7-0.9c-1.4,0.4-2.8,0.5-4.3,0.4c-0.2,0-0.5-0.6-0.5-0.9
					c0.1-0.3,0.4-0.6,0.7-0.7c1.2-0.1,2.4,0,3.6-0.1c0.2,0,0.4-0.6,0.4-1c0-0.2-0.2-0.6-0.4-0.6c-1.9,0-3.8,0-5.7,0
					c-0.1,0-0.2,0.7-0.4,1s-0.6,0.3-0.7,0.2c-0.5-0.6,0.1-2.1,0.9-2.1C187.3,487.7,189,487.7,190.8,487.7z"/>
				<path d="M222.7,480.4h-15.4c-0.2,0-0.5-0.1-0.7-0.3c0.2-0.2,0.5-0.5,0.7-0.5c8.4,0,16.7,0,25.1,0c2.2,0,4.3,0,6.5,0
					c0.2,0,0.5,0.1,0.7,0.3c-0.2,0.2-0.5,0.5-0.7,0.5C233.5,480.4,228.1,480.4,222.7,480.4z"/>
				<path d="M369.9,483.8c-2.1,0.4-4.5-1-6.5,0.7c-1.8-1.2-4-0.5-6-1.1c-0.3-0.1-0.6-0.5-0.9-0.8c0.7-0.6,0.8-1.2,0-1.7l1.4-0.2
					c0,1.9,1.5,1.5,2.5,1.4c1.6-0.1,3.4-1.5,4.7,0.8c0.1,0.2,0.8,0,1.2,0c1.2-0.1,2.4-0.1,3.6,0c1.7,0.2,3.5-0.8,5.1,0.5
					L369.9,483.8z"/>
				<path d="M388.9,101.2c0,0.8,0,1.6,0,2.4s-0.4,1.1-1.2,1.1c-1.4,0.1-3-0.7-4.1,0.8c-1.5-0.9-3.2-0.9-4.9-0.9
					c-0.1,0-0.4-0.4-0.4-0.6c0-2,0-4.1,0-6.1c0-0.2,0.5-0.6,0.9-0.5c0.9,0,0.6,0.3,0.3,0.9c-0.3,0.6-0.4,1.2-0.3,1.9
					c0.3,1.2-1,3,1,3.8c1.4-1,0.3-2.5,0.6-3.7c0.1-0.3,0-0.5,0-0.8c0-0.1,0.2-0.3,0.2-0.3s0.5,0.2,0.5,0.3c0,0.3,0,0.5,0,0.8
					c0.1,1.2-0.2,2.8,0.4,3.4s2.3,0.2,3.5,0.2c0.5,0.1,1.1,0.1,1.6,0c0.4-0.1,0.9-0.5,1-0.8c0.1-1.5,0-3,0-4.5c0-0.4-1.6-0.8,0-1.2
					c1-0.2,0.9,0.7,0.9,1.3C388.9,99.6,388.9,100.4,388.9,101.2z"/>
				<path d="M177.3,109.2c5.4-0.3,5.4-0.3,4.8,5.1c-0.2,1.5-1,1.9-2.6,1.4c-0.6-0.2-1.7-0.4-1.8-0.2c-0.9,1.9-2.6-0.7-3.5,0.8
					c-0.6-0.4-1.2-0.7-1.7-1.1c-0.1-0.1-0.1-0.5-0.1-0.7c0-1.7,0.1-3.5,0.1-5.2C174.1,108.9,175.7,109,177.3,109.2
					c0.1,0.5,0.1,0.4,0.1,0.4l-4,0.2l-0.3,4.4c-0.1,0.3-0.1,0.5,0,0.8c0.1,0.1,0.6,0.2,0.6,0.1c1-1.3,3,0.3,4-1.3
					c0.1-0.2,1.2,0.2,1.8,0.3c1.6,0.5,1.6,0.5,1.7-1.2c0.1-3.3,0.1-3.3-3-3.3C177.9,109.7,177.5,109.5,177.3,109.2z"/>
			</g>
		</g>
	</g>
</g>
<g id="Layer_2_1_">
	<g id="Layer_3">
		<path class="st0" d="M300.6,387.6l-1.2-0.6c-1-0.5-2.3-0.3-3.1,0.5l-5.8,5.5c-0.8,0.8-1.1,2-0.7,3l0.5,1.2c0.6,1.4-0.1,3-1.5,3.6
			c0,0,0,0-0.1,0l-10.3,3.9c-1.4,0.5-3-0.2-3.5-1.6c0,0,0-0.1,0-0.1l-0.4-1.2c-0.4-1.1-1.4-1.8-2.5-1.9l-8-0.3
			c-1.1,0-2.2,0.6-2.6,1.7l-0.5,1.2c-0.6,1.4-2.2,2.1-3.6,1.5c0,0,0,0-0.1,0l-10-4.5c-1.4-0.6-2-2.3-1.4-3.7c0,0,0,0,0,0l0.6-1.2
			c0.5-1,0.3-2.3-0.5-3.1l-5.5-5.8c-0.8-0.8-2-1.1-3-0.7l-1.2,0.5c-1.4,0.6-3-0.1-3.6-1.5c0,0,0,0,0-0.1l-3.9-10.3
			c-0.5-1.4,0.2-3,1.6-3.6c0,0,0,0,0.1,0l1.2-0.4c1.1-0.4,1.8-1.4,1.9-2.5l0.3-8c0-1.1-0.6-2.2-1.7-2.6l-1.2-0.5
			c-1.4-0.6-2.1-2.2-1.5-3.6c0,0,0,0,0-0.1l4.5-10c0.6-1.4,2.3-2,3.7-1.4c0,0,0,0,0.1,0l1.2,0.6c1,0.5,2.3,0.3,3.1-0.5l5.8-5.5
			c0.8-0.8,1.1-2,0.7-3l-0.5-1.2c-0.6-1.4,0.1-3,1.5-3.6c0,0,0.1,0,0.1,0l10.3-3.9c1.4-0.5,3,0.2,3.6,1.6c0,0,0,0,0,0.1l0.4,1.2
			c0.4,1.1,1.4,1.8,2.5,1.9l8,0.3c1.1,0,2.2-0.6,2.6-1.7l0.5-1.2c0.6-1.4,2.2-2.1,3.6-1.5c0,0,0,0,0.1,0l10,4.5
			c1.4,0.6,2,2.3,1.4,3.7c0,0,0,0,0,0.1l-0.6,1.2c-0.5,1-0.3,2.3,0.5,3.1l5.5,5.9c0.8,0.8,2,1.1,3,0.7l1.2-0.5
			c1.4-0.6,3,0.1,3.6,1.5c0,0,0,0,0,0l3.9,10.3c0.5,1.4-0.2,3-1.6,3.6c0,0,0,0-0.1,0l-1.2,0.4c-1.1,0.4-1.8,1.4-1.9,2.5l-0.3,8
			c0,1.1,0.6,2.2,1.7,2.6l1.2,0.5c1.4,0.6,2.1,2.2,1.5,3.6c0,0,0,0,0,0.1l-4.5,10C303.6,387.7,301.9,388.3,300.6,387.6
			C300.6,387.6,300.6,387.6,300.6,387.6z"/>
		<path class="st0" d="M268.9,388.4c-13.3,0-24.1-10.9-24.1-24.2s10.9-24.1,24.2-24.1h0.1c13.3,0,24.1,10.9,24.1,24.2
			s-10.9,24.1-24.2,24.1H268.9z"/>
		<circle class="st0" cx="269.1" cy="364.2" r="20.5"/>
		<polygon class="st0" points="276.5,368.6 269,372.9 261.6,368.5 261.6,359.9 269.1,355.6 276.6,360 		"/>
		<path class="st0" d="M263.3,365.3l0-2.2c0-0.2,0.2-0.4,0.4-0.4l10.7,0.1c0.2,0,0.4,0.2,0.4,0.4l0,2.2c0,0.2-0.2,0.4-0.4,0.4
			l-10.7-0.1C263.5,365.7,263.3,365.5,263.3,365.3z"/>
		<path class="st0" d="M319.2,361.7l0.5,0.5c1.2,1.3,3.1,1.6,4.7,0.8l6.5-3.3c1.6-0.8,2.4-2.5,2.1-4.3l-0.1-0.7
			c-0.4-2.2,1-4.3,3.2-4.7c0,0,0.1,0,0.1,0l8.8-1.4c2.2-0.3,4.2,1.2,4.6,3.3c0,0,0,0.1,0,0.1l0.1,0.7c0.2,1.7,1.6,3.1,3.3,3.4
			l7.2,1.1c1.7,0.3,3.5-0.6,4.2-2.2l0.3-0.6c1-2,3.4-2.8,5.3-1.9c0,0,0,0,0.1,0l8,4.1c2,1,2.7,3.4,1.7,5.4c0,0,0,0,0,0.1l-0.3,0.6
			c-0.8,1.6-0.6,3.5,0.7,4.7l5.2,5.2c1.2,1.2,3.2,1.5,4.7,0.7l0.6-0.3c1.9-1,4.4-0.3,5.4,1.6c0,0,0,0.1,0,0.1l4.1,8
			c1,2,0.2,4.4-1.8,5.4c0,0-0.1,0-0.1,0l-0.6,0.3c-1.6,0.8-2.5,2.5-2.2,4.2l1.1,7.2c0.3,1.7,1.7,3.1,3.4,3.3l0.7,0.1
			c2.2,0.3,3.7,2.3,3.4,4.5c0,0,0,0.1,0,0.1l-1.4,8.8c-0.4,2.2-2.4,3.7-4.6,3.3c0,0,0,0-0.1,0l-0.7-0.1c-1.7-0.3-3.5,0.5-4.3,2.1
			l-3.3,6.5c-0.8,1.6-0.5,3.5,0.8,4.7l0.5,0.5c1.6,1.5,1.7,4.1,0.1,5.7c0,0,0,0-0.1,0.1l-6.3,6.3c-1.6,1.6-4.1,1.6-5.7,0
			c0,0,0,0-0.1-0.1l-0.5-0.5c-1.2-1.3-3.1-1.6-4.7-0.8l-6.5,3.3c-1.6,0.8-2.4,2.5-2.1,4.3l0.1,0.7c0.4,2.2-1.1,4.3-3.2,4.6
			c0,0,0,0-0.1,0l-8.8,1.4c-2.2,0.3-4.2-1.2-4.6-3.3c0,0,0-0.1,0-0.1l-0.1-0.7c-0.2-1.7-1.6-3.1-3.3-3.4l-7.2-1.2
			c-1.7-0.3-3.5,0.6-4.2,2.2l-0.3,0.6c-1,2-3.3,2.8-5.3,1.9c0,0-0.1,0-0.1,0l-8-4.1c-2-1-2.7-3.4-1.7-5.4c0,0,0-0.1,0-0.1l0.3-0.6
			c0.8-1.6,0.6-3.5-0.7-4.7l-5.2-5.2c-1.3-1.3-3.2-1.5-4.7-0.7l-0.6,0.3c-1.9,1.1-4.4,0.3-5.4-1.6c0,0,0,0,0-0.1l-4.1-8
			c-1-2-0.2-4.4,1.8-5.4c0,0,0,0,0.1,0l0.6-0.3c1.6-0.8,2.5-2.5,2.2-4.2l-1.1-7.2c-0.3-1.7-1.7-3.1-3.4-3.3l-0.7-0.1
			c-2.2-0.3-3.7-2.3-3.4-4.5c0,0,0-0.1,0-0.1l1.4-8.8c0.4-2.2,2.4-3.7,4.6-3.3c0,0,0.1,0,0.1,0l0.7,0.1c1.7,0.3,3.5-0.5,4.3-2.1
			l3.3-6.5c0.8-1.6,0.5-3.5-0.8-4.7l-0.5-0.5c-1.6-1.5-1.7-4.1-0.1-5.7c0,0,0,0,0.1-0.1l6.3-6.3
			C315.1,360.1,317.6,360.1,319.2,361.7C319.2,361.7,319.2,361.7,319.2,361.7z"/>
		<circle class="st0" cx="349.2" cy="403.7" r="34.5"/>
		<path class="st0" d="M349.2,434.6c-17.1,0-30.9-13.8-30.9-30.9c0-17.1,13.8-30.9,30.9-30.9c17.1,0,30.9,13.8,30.9,30.9
			c0,8.2-3.3,16-9.1,21.8C365.3,431.3,357.4,434.6,349.2,434.6z"/>
		<polygon class="st0" points="363.3,399.9 359.5,413.9 345.5,417.7 335.2,407.4 339,393.4 353,389.6 		"/>
		<path class="st0" d="M341.1,408.2l12.7-12.7c0.3-0.3,0.7-0.3,1,0l2.6,2.6c0.3,0.3,0.3,0.7,0,1l-12.7,12.7c-0.3,0.3-0.7,0.3-1,0
			l-2.6-2.6C340.8,408.9,340.8,408.5,341.1,408.2z"/>
	</g>
</g>
<g id="Layer_1_1_">
	<path class="st2" d="M237.3,137.2c2.9-2.9,6.5-2.9,9.4,0l5.6,5.6c0.2,0.2,0.2,0.6,0,0.8l-3.8,3.8c-0.2,0.2-0.6,0.2-0.8,0l-3.9-3.9
		c-0.8-1-2.2-1.2-3.2-0.4c-0.2,0.1-0.3,0.3-0.4,0.4l-2.2,2.1c-0.1,0.1-0.2,0.3-0.2,0.4v12.6c0,0.2,0.1,0.3,0.2,0.4l2.2,2.2
		c0.8,1,2.2,1.2,3.2,0.4c0.2-0.1,0.3-0.3,0.4-0.4l3.9-3.9c0.2-0.2,0.6-0.2,0.8,0l3.8,3.8c0.2,0.2,0.2,0.6,0,0.8l-5.6,5.6
		c-2.9,2.9-6.5,2.9-9.4,0l-5.9-5.9c-0.1-0.1-0.2-0.3-0.2-0.4v-17.9c0-0.2,0.1-0.3,0.2-0.4L237.3,137.2z"/>
	<path class="st2" d="M273.5,146.7l4.4,4.5c0.1,0.1,0.2,0.3,0.2,0.4v16.9c0,0.3-0.3,0.6-0.6,0.6H274c-0.3,0-0.6-0.2-0.6-0.6
		c0,0,0,0,0,0v-6.2c0-0.3-0.2-0.6-0.6-0.6c0,0,0,0,0,0h-5.4c-0.3,0-0.6,0.3-0.6,0.6c0,0,0,0,0,0v6.2c0,0.3-0.3,0.6-0.6,0.6
		c0,0,0,0,0,0h-3.5c-0.3,0-0.6-0.3-0.6-0.6v-16.9c0-0.2,0.1-0.3,0.2-0.4l4.5-4.5c1.6-1.8,4.3-2,6.2-0.4
		C273.2,146.4,273.3,146.6,273.5,146.7z M267.5,157h5.4c0.3,0,0.6-0.3,0.6-0.6v-3c0-0.2-0.1-0.3-0.2-0.4l-1.8-1.9
		c-0.5-0.7-1.5-0.8-2.2-0.3c-0.1,0.1-0.2,0.2-0.3,0.3l-1.9,1.9c-0.1,0.1-0.2,0.3-0.2,0.4v3C266.9,156.7,267.1,157,267.5,157
		C267.5,157,267.5,157,267.5,157z"/>
	<path class="st2" d="M292.9,155.1h0.9c2.9,0,5.2,2.3,5.2,5.2v4.1c0.2,2.4-1.5,4.4-3.9,4.6c-0.3,0-0.5,0-0.8,0h-7.6
		c-0.3,0-0.6-0.3-0.6-0.6V165c0-0.3,0.3-0.6,0.6-0.6h5.3c1.3,0,2.3-1,2.3-2.3l0,0c0-1.3-1-2.3-2.3-2.3h-1.5
		c-2.4,0.2-4.4-1.5-4.7-3.9c0-0.3,0-0.5,0-0.8V151c0-2.9,2.3-5.2,5.2-5.2h6.2c0.3,0,0.6,0.3,0.6,0.6v3.5c0,0.3-0.3,0.6-0.6,0.6h-4.5
		c-1.3,0-2.3,1-2.3,2.3l0,0C290.6,154,291.6,155.1,292.9,155.1z"/>
	<path class="st2" d="M311.1,146.7c1.6-1.8,4.3-2,6.1-0.5c0.2,0.1,0.3,0.3,0.5,0.5l3.8,3.8c0.2,0.2,0.2,0.6,0,0.8c0,0,0,0,0,0
		l-2.5,2.4c-0.2,0.2-0.6,0.2-0.8,0l-2.6-2.6c-0.5-0.7-1.5-0.8-2.2-0.3c-0.1,0.1-0.2,0.2-0.3,0.3l-1.5,1.5c-0.1,0.1-0.2,0.3-0.2,0.4
		v8.7c0,0.2,0.1,0.3,0.2,0.4l1.5,1.5c0.5,0.7,1.5,0.8,2.2,0.3c0.1-0.1,0.2-0.2,0.3-0.3l2.6-2.6c0.2-0.2,0.6-0.2,0.8,0l2.4,2.4
		c0.2,0.2,0.2,0.6,0,0.8c0,0,0,0,0,0l-3.8,3.8c-1.5,1.8-4.3,2-6.1,0.5c-0.2-0.2-0.3-0.3-0.5-0.5l-4-4.1c-0.1-0.1-0.2-0.3-0.2-0.4
		v-12.4c0-0.2,0.1-0.3,0.2-0.4L311.1,146.7z"/>
	<path class="st2" d="M340.4,146.7l4.4,4.5c0.1,0.1,0.2,0.3,0.2,0.4v16.9c0,0.3-0.3,0.6-0.6,0.6h-3.5c-0.3,0-0.6-0.3-0.6-0.6v-6.2
		c0-0.3-0.2-0.6-0.6-0.6c0,0,0,0,0,0h-5.4c-0.3,0-0.6,0.3-0.6,0.6c0,0,0,0,0,0v6.2c0,0.3-0.3,0.6-0.6,0.6h-3.5
		c-0.3,0-0.6-0.3-0.6-0.6v-16.9c0-0.2,0.1-0.3,0.2-0.4l4.5-4.5c1.6-1.8,4.3-2,6.1-0.5C340.1,146.4,340.2,146.6,340.4,146.7z
		 M334.4,157h5.4c0.3,0,0.6-0.2,0.6-0.6c0,0,0,0,0,0v-3c0-0.2-0.1-0.3-0.2-0.4l-1.8-1.9c-0.5-0.7-1.5-0.8-2.2-0.3
		c-0.1,0.1-0.2,0.2-0.3,0.3L334,153c-0.1,0.1-0.2,0.3-0.2,0.4v3C333.8,156.7,334.1,157,334.4,157z"/>
	<path class="st2" d="M353.4,150.4h-1.2v-4.1c0-0.3,0.3-0.6,0.6-0.6h11.8c2.9,0,5.2,2.3,5.2,5.2v13.4c0.2,2.4-1.6,4.5-4,4.7
		c-0.2,0-0.5,0-0.7,0h-9.5c-0.3,0-0.6-0.3-0.6-0.6v-16.3c0.1-0.9-0.5-1.6-1.4-1.7C353.6,150.4,353.5,150.4,353.4,150.4z
		 M365.2,162.1v-9.3c0-1.3-1-2.3-2.3-2.3c0,0,0,0,0,0h-2.5c-0.3,0-0.6,0.3-0.6,0.6v12.8c0,0.3,0.3,0.6,0.6,0.6h2.5
		C364.2,164.4,365.2,163.3,365.2,162.1L365.2,162.1z"/>
	<path class="st2" d="M392,168.4c0,0.3-0.3,0.6-0.6,0.6c0,0,0,0,0,0h-6.8c-2.4,0.2-4.4-1.5-4.7-3.9c0-0.3,0-0.5,0-0.8v-11.7
		c0-1.3-1-2.3-2.3-2.3c0,0,0,0,0,0l0,0c-0.3,0-0.6-0.3-0.6-0.6v-3.5c0-0.3,0.3-0.6,0.6-0.6H391c0.3,0,0.6,0.3,0.6,0.6v3.5
		c0,0.3-0.3,0.6-0.6,0.6h-5.8c-0.3,0-0.6,0.3-0.6,0.6v3.1c0,0.3,0.3,0.6,0.6,0.6h5c0.3,0,0.6,0.3,0.6,0.6v3.5c0,0.3-0.2,0.6-0.6,0.6
		c0,0,0,0,0,0h-5c-0.3,0-0.6,0.3-0.6,0.6v2.1c0,1.3,1,2.3,2.3,2.3h4.4c0.3,0,0.6,0.2,0.6,0.6c0,0,0,0,0,0L392,168.4z"/>
	<g id="Layer_9">
		<path class="st1" d="M185.9,340.9c-2.8,0-5.5-1.1-7.4-3.1l-39.9-41.1c-1.3,4.4-4.7,8.8-9.4,8.8h-22c-5.8,0-10.5-4.8-10.5-10.6
			V193.6c0-5.8,4.7-10.5,10.5-10.6H153c5.8,0,10.5,4.8,10.5,10.6v4.5l14.6-14.9c2-2,4.6-3.1,7.4-3.1h45.1c5.8,0,10.5,4.8,10.5,10.6
			v43.9h13.3v-35.9c0-5.8,4.7-10.5,10.5-10.6h45.5c5.8,0,10.5,4.2,10.5,10.1v25.4l10.9,0.4v-12.7c0-2.8,1.1-5.4,3-7.4l25.2-25.6
			c2-2,4.6-3.1,7.5-3.1H384c5.8,0,10.5,4.8,10.5,10.6v40.4h13.4c5.8,0,10.5,4.8,10.5,10.6v40.5c0,2.8-1.1,5.4-3,7.4L398,302.3
			c-2,2-4.6,3.1-7.4,3.1h-77.7c-0.7,5.2-5.1,9.1-10.4,9.1h-36.2c-5.8,0-10.5-4.8-10.5-10.6v-16.9h-12.6l-49.8,50.7
			C191.4,339.8,188.7,340.9,185.9,340.9z"/>
		<path class="st7" d="M185.9,340.9c-2.8,0-5.5-1.1-7.4-3.1l-39.2-40c-1.3,4.5-5.4,7.6-10.1,7.6h-22c-5.8,0-10.5-4.8-10.5-10.6
			V193.6c0-5.8,4.7-10.5,10.5-10.6H153c5.8,0,10.5,4.8,10.5,10.6v4.5l14.6-14.9c2-2,4.6-3.1,7.4-3.1h45.1c5.8,0,10.5,4.8,10.5,10.6
			v43.9h13.3v-35.9c0-5.8,4.7-10.5,10.5-10.6h45.5c5.8,0,10.5,4.2,10.5,10.1v25.4l10.9,0.4v-12.7c0-2.8,1.1-5.4,3-7.4l25.2-25.6
			c2-2,4.6-3.1,7.5-3.1H384c5.8,0,10.5,4.8,10.5,10.6v40.4h13.4c5.8,0,10.5,4.8,10.5,10.6v40.5c0,2.8-1.1,5.4-3,7.4L398,302.3
			c-2,2-4.6,3.1-7.4,3.1h-77.7c-0.7,5.2-5.1,9.1-10.4,9.1h-36.2c-5.8,0-10.5-4.8-10.5-10.6v-16.9h-12.6l-49.8,50.7
			C191.4,339.8,188.7,340.9,185.9,340.9z"/>
		<path class="st7" d="M102.7,203.9v91c0,2.5,2,4.5,4.5,4.6c0,0,0,0,0,0h22c2.5,0,4.5-2.1,4.5-4.6c0,0,0,0,0,0v-0.3
			c0-2.5,1.9-4.5,4.4-4.5c1.2,0,2.4,0.5,3.3,1.3l41.5,42.2c1.7,1.7,4.5,1.8,6.2,0.1c0,0,0.1-0.1,0.1-0.1l50.2-51.2
			c0.8-0.9,2-1.3,3.2-1.3h14.8c2.5,0,4.5,2.1,4.5,4.6c0,0,0,0,0,0V304c0,2.5,2,4.5,4.5,4.6c0,0,0,0,0,0h36.2c2.5,0,4.5-2.1,4.5-4.5
			c0,0,0,0,0,0l0,0c0-2.5,2-4.5,4.5-4.6h79.1c1.2,0,2.3-0.5,3.2-1.3l17.3-17.7c0.8-0.9,1.3-2,1.3-3.2v-40.5c0-2.5-2-4.5-4.5-4.6
			c0,0,0,0,0,0h-14.9c-2.5,0-4.5-2.1-4.5-4.6c0,0,0,0,0,0v-41.9c0-2.5-2-4.5-4.5-4.6c0,0,0,0,0,0h-16.3c-1.2,0-2.3,0.5-3.2,1.3
			l-25.2,25.6c-0.8,0.9-1.3,2-1.3,3.2v14.1c0,2.5-2,4.5-4.5,4.6l-14-0.5c-2.5,0-4.5-2.1-4.5-4.6c0,0,0,0,0,0v-26.8
			c0-2.5-2-4.1-4.5-4.1H265c-2.5,0-4.5,2.1-4.5,4.6c0,0,0,0,0,0V236c0,2.5-2,4.5-4.5,4.6c0,0,0,0,0,0h-16.4c-2.5,0-4.5-2.1-4.5-4.6
			c0,0,0,0,0,0v-45.4c0-2.5-2-4.5-4.5-4.6c0,0,0,0,0,0h-45.2c-1.2,0-2.3,0.5-3.2,1.3L165.1,205c-1.7,1.8-4.6,1.8-6.3,0
			c-0.9-0.9-1.4-2-1.3-3.3v-8.2c0-2.5-2-4.5-4.5-4.6c0,0,0,0,0,0h-45.8c-2.5,0-4.5,2.1-4.5,4.6c0,0,0,0,0,0V203.9z"/>
	</g>
	<path class="st2" d="M138.5,250.2L138.5,250.2c-1,0.8-2.3,1.3-3.6,1.3h-3.3c-3.1,0-5.6,2.5-5.6,5.6v22.7c0,3.1-2.5,5.6-5.6,5.6
		h-2.2c-3.1,0-5.6-2.5-5.6-5.6v-67.9c0-3.1,2.5-5.6,5.6-5.6h26.4c3.1,0,5.6,2.5,5.6,5.6v0.1c0,3.1-2.5,5.6-5.6,5.6h-13.1
		c-3.1,0-5.6,2.5-5.6,5.6l0,0v11.5c0,3.1,2.5,5.6,5.6,5.6l0,0h3.3c3.1,0,5.6,2.5,5.6,5.6C140.5,247.6,139.7,249.2,138.5,250.2z"/>
	<path class="st2" d="M178.6,285.5h-19c-1.3,0-2.6-0.5-3.6-1.4l-9.8-8.4c-1.3-1.1-2-2.6-2-4.2v-17.1c0-1.6,0.7-3.2,2-4.3l9.8-8.3
		c1-0.9,2.3-1.3,3.6-1.3h19c3.1,0,5.6,2.5,5.6,5.6v33.8C184.1,282.9,181.7,285.4,178.6,285.5z M170.8,268.5v-11.1
		c0-3.1-2.5-5.6-5.6-5.6h-2.1c-3.1,0-5.6,2.5-5.6,5.6v11.1c0,3.1,2.5,5.6,5.6,5.6h2.1C168.3,274,170.8,271.5,170.8,268.5
		L170.8,268.5z"/>
	<path class="st2" d="M231,275.8l-9.8,8.3c-1,0.9-2.3,1.3-3.6,1.3h-18.9c-3.1,0-5.6-2.5-5.6-5.6v-67.9c0-3.1,2.5-5.6,5.6-5.6h2.1
		c3.1,0,5.6,2.5,5.6,5.6v22.8c0,3.1,2.5,5.6,5.6,5.6h0h5.6c1.3,0,2.6,0.5,3.6,1.3l9.8,8.2c1.3,1.1,2,2.6,2,4.3v17.4
		C233,273.2,232.3,274.8,231,275.8z M219.6,268.6v-11.4c0-3.1-2.5-5.6-5.6-5.6h-2c-3.1,0-5.6,2.5-5.6,5.6l0,0v11.4
		c0,3.1,2.5,5.6,5.6,5.6h2C217.1,274.2,219.7,271.7,219.6,268.6C219.7,268.6,219.7,268.6,219.6,268.6L219.6,268.6z"/>
	<path class="st2" d="M302.8,285.5h-19.2c-3.1,0-5.6-2.5-5.6-5.6v-67.9c0-3.1,2.5-5.6,5.6-5.6h2.3c3.1,0,5.6,2.5,5.6,5.6v56.6
		c0,3.1,2.5,5.6,5.6,5.6h5.6c1.3,0,2.6,0.5,3.6,1.3l0.1,0.1c2.4,2,2.6,5.5,0.6,7.9C306,284.7,304.4,285.4,302.8,285.5z"/>
	<path class="st2" d="M348.3,285.5h-19c-1.3,0-2.6-0.5-3.6-1.4l-9.8-8.4c-1.2-1.1-1.9-2.6-2-4.2v-17.1c0-1.6,0.7-3.2,2-4.3l9.8-8.3
		c1-0.9,2.3-1.3,3.6-1.3h19c3.1,0,5.6,2.5,5.6,5.6v33.8C353.9,282.9,351.4,285.4,348.3,285.5z M340.6,268.5v-11.1
		c0-3.1-2.5-5.6-5.6-5.6h-2.1c-3.1,0-5.6,2.5-5.6,5.6v11.1c0,3.1,2.5,5.6,5.6,5.6h2.2C338.1,274,340.6,271.5,340.6,268.5
		L340.6,268.5z"/>
	<path class="st2" d="M401.7,275.8l-9.8,8.3c-1,0.9-2.3,1.3-3.6,1.3h-18.9c-3.1,0-5.6-2.5-5.6-5.6l0,0v-67.9c0-3.1,2.5-5.6,5.6-5.6
		h2.1c3.1,0,5.6,2.5,5.6,5.6v22.8c0,3.1,2.5,5.6,5.6,5.6h5.6c1.3,0,2.6,0.5,3.6,1.3l9.8,8.2c1.3,1.1,2,2.6,2,4.3v17.4
		C403.7,273.2,402.9,274.8,401.7,275.8z M390.3,268.6v-11.4c0-3.1-2.5-5.6-5.6-5.6h-2c-3.1,0-5.6,2.5-5.6,5.6v11.4
		c0,3.1,2.5,5.6,5.6,5.6h2C387.8,274.1,390.3,271.6,390.3,268.6L390.3,268.6z"/>
</g>
<g id="Layer_12">
	<path class="st8" d="M356,260L356,260z"/>
	<path class="st8" d="M333,266h25.1"/>
	<path class="st8" d="M188.3,260L188.3,260z"/>
	<path class="st8" d="M165.2,266h25.1"/>
	<line class="st8" x1="209.7" y1="219.7" x2="189.6" y2="219.7"/>
	<line class="st8" x1="295.7" y1="265" x2="271.7" y2="265"/>
	<line class="st8" x1="295" y1="257.7" x2="270.3" y2="257.7"/>
	<path class="st8" d="M134.4,227c-3.3-1.9-7.2-3.4-10.8-2.3c-2.8,0.8-4.9,3.1-7.4,4.8s-5.8,2.8-8.2,1.1"/>
	<path class="st8" d="M134.4,234c-3.3-1.9-7.2-3.4-10.8-2.3c-2.8,0.8-4.9,3.1-7.4,4.8s-5.8,2.8-8.2,1.1"/>
	<path class="st8" d="M358.1,221.8c2.6-2.2,5.8-4.1,9-3.4c2.5,0.6,4.6,2.6,6.8,4.1s5.3,2.2,7.2,0.4"/>
	<path class="st8" d="M358.9,228.8c2.6-2.2,5.8-4.1,9-3.4c2.5,0.6,4.6,2.6,6.8,4.1s5.3,2.2,7.2,0.4"/>
	<line class="st8" x1="291.8" y1="228.7" x2="271.7" y2="228.7"/>
	<line class="st8" x1="109" y1="273" x2="128.3" y2="273"/>
	<path class="st8" d="M405.7,260L405.7,260z"/>
	<path class="st8" d="M215,270.3c0.1,3.2-2.7,5.6-5.1,7.8s-4.7,5.3-3.5,8.3"/>
	<path class="st8" d="M210.5,267.7c0.1,3.2-4.2,7.2-6.6,9.4s-5,6.3-3.9,9.3"/>
	<circle class="st1" cx="345.5" cy="249.4" r="2.7"/>
	<circle class="st1" cx="177.8" cy="278.3" r="2.7"/>
	<circle class="st1" cx="373.1" cy="278.3" r="2.7"/>
	<circle class="st1" cx="120.2" cy="214.3" r="2.7"/>
	<circle class="st1" cx="285.3" cy="278.3" r="2.7"/>
	<circle class="st1" cx="226.4" cy="262.1" r="2.7"/>
	<circle class="st1" cx="199.6" cy="231" r="2.7"/>
	<circle class="st1" cx="284.3" cy="217" r="2.7"/>
	<circle class="st1" cx="118.7" cy="273" r="2.7"/>
	<circle class="st1" cx="397.4" cy="260" r="2.7"/>
	<line class="st8" x1="108" y1="266" x2="127" y2="266"/>
</g>
<g id="Layer_4">
	<path class="st0" d="M125.2,56.6h7.9c1.3,0,2.3,1,2.3,2.3v9.4c0,1.3-1,2.3-2.3,2.3h-7.9c-1.3,0-2.3-1-2.3-2.3v-9.4
		C122.8,57.6,123.9,56.6,125.2,56.6z"/>
	<path class="st0" d="M144.4,142.3c0,3.2,8.2,9.7,12.6,12.4l0.9-0.2c0.1,0,0.2-0.1,0.2-0.2c0,0,0-0.1-0.1-0.1l-3.8-3.4
		c-0.1-0.1-0.1-0.2,0-0.3c0.1-0.1,0.1-0.1,0.2,0l5,1.3c0.1,0,0.2,0,0.3-0.1c0,0,0-0.1,0-0.1l-1.4-4.7c-0.1-0.2,0.2-0.4,0.4-0.2
		l3.6,3.5c0.1,0.1,0.2,0.1,0.3,0c0,0,0-0.1,0-0.1l1.3-4.7c0-0.1,0.2-0.2,0.3-0.1c0.1,0,0.1,0.1,0.1,0.1l1.3,4.7
		c0,0.1,0.2,0.2,0.3,0.1c0,0,0.1,0,0.1,0l3.6-3.5c0.2-0.1,0.4,0,0.4,0.2l-1.4,4.7c0,0.1,0,0.2,0.2,0.3c0,0,0.1,0,0.1,0l5-1.3
		c0.2-0.1,0.4,0.2,0.2,0.3l-3.8,3.4c-0.1,0.1-0.1,0.2,0,0.3c0,0,0.1,0,0.1,0.1l0.9,0.2c4.4-2.6,12.6-9.1,12.6-12.4v-0.7h-39.5V142.3
		z"/>
	<path class="st0" d="M189.9,126.1h-51.5c-4.5,0-8.1-3.3-8.1-7.5v14.2c0.1,1.8,1.6,3.2,3.4,3.2h60.8c1.8,0.1,3.4-1.4,3.4-3.2v-14.2
		C198,122.7,194.4,126.1,189.9,126.1z"/>
	<path class="st0" d="M189.9,31.3h-51.5c-4.5,0-8.1,3.3-8.1,7.5v79.2c0.1-1.8,1.6-3.2,3.4-3.2c0,0,0,0,0,0h10.6v-10.4
		c0-4.1,3.6-7.5,8.1-7.5h23.4c4.5,0,8.1,3.3,8.1,7.5v10.4h10.6c1.8-0.1,3.4,1.3,3.4,3.2V38.8C198,34.7,194.4,31.3,189.9,31.3z"/>
	<path class="st0" d="M194.6,114.9H184v-10.4c0-4.1-3.6-7.5-8.1-7.5h-23.5c-4.5,0-8.1,3.3-8.1,7.5v10.4h-10.6
		c-1.8-0.1-3.4,1.3-3.4,3.2c0,0,0,0,0,0v0.5c0,4.1,3.6,7.5,8.1,7.5h51.5c4.5,0,8.1-3.3,8.1-7.5v-0.5
		C197.9,116.2,196.4,114.8,194.6,114.9z"/>
	<rect x="144.4" y="136" class="st0" width="39.6" height="5.6"/>
	<path class="st9" d="M175.5,155.6l-4.2-1l-0.9-0.2c-0.1,0-0.2-0.1-0.2-0.2c0,0,0-0.1,0.1-0.1l3.8-3.4c0.2-0.1,0-0.4-0.2-0.3l-5,1.3
		c-0.1,0-0.2,0-0.3-0.1c0,0,0-0.1,0-0.1l1.4-4.7c0.1-0.2-0.2-0.4-0.4-0.2l-3.7,3.5c-0.1,0.1-0.2,0.1-0.3,0c0,0,0-0.1,0-0.1l-1.3-4.7
		c0-0.1-0.2-0.2-0.3-0.1c-0.1,0-0.1,0.1-0.1,0.1l-1.3,4.7c0,0.1-0.2,0.2-0.3,0.1c0,0-0.1,0-0.1,0l-3.6-3.5c-0.2-0.1-0.4,0-0.4,0.2
		l1.4,4.7c0,0.1,0,0.2-0.2,0.3c0,0-0.1,0-0.1,0l-5-1.3c-0.1,0-0.2,0-0.3,0.1c0,0.1,0,0.2,0,0.2l3.8,3.4c0.1,0.1,0.1,0.2,0,0.3
		c0,0-0.1,0-0.1,0.1l-0.9,0.2l-4.2,1c-0.1,0-0.2,0.1-0.2,0.2s0.1,0.2,0.2,0.2l5.1,1.2c0.1,0,0.2,0.1,0.2,0.2c0,0,0,0.1-0.1,0.1
		l-3.8,3.4c-0.1,0.1-0.1,0.2,0,0.3c0.1,0.1,0.1,0.1,0.2,0l5-1.3c0.1,0,0.2,0,0.3,0.2c0,0,0,0.1,0,0.1l-1.4,4.7
		c-0.1,0.2,0.2,0.4,0.4,0.2l3.1-3v79.6h4.7V162l3.1,3c0.2,0.1,0.4,0,0.4-0.2l-1.4-4.7c0-0.1,0.1-0.2,0.2-0.3c0,0,0.1,0,0.1,0l5,1.3
		c0.2,0.1,0.4-0.2,0.2-0.3l-3.8-3.4c-0.1-0.1-0.1-0.2,0-0.3c0,0,0.1,0,0.1-0.1l5.1-1.2C175.6,156,175.6,155.8,175.5,155.6
		C175.6,155.7,175.5,155.7,175.5,155.6z"/>
	<path class="st10" d="M165.2,81.9v-9.6c0-2.8,2.2-5,4.9-5.1c0,0,0,0,0,0h4.8c3.2,0,5.8-2.7,5.7-5.9c0,0,0,0,0,0V48.8"/>
	<rect x="130.4" y="43.3" class="st0" width="67.6" height="5.5"/>
	<rect x="130.4" y="81.9" class="st0" width="67.7" height="7.2"/>
</g>
<g id="Layer_5">
	<path class="st11" d="M137.2,59h-1v-3.9h10.6c2-0.2,3.7,1.2,3.9,3.2c0,0.2,0,0.4,0,0.7v5.9c0.2,2-1.3,3.8-3.3,3.9
		c-0.2,0-0.4,0-0.6,0h-4.2v5.9h-3.9V60.5c0.1-0.7-0.4-1.4-1.2-1.5C137.4,59,137.3,59,137.2,59z M146.9,63.4v-2.9
		c0.1-0.7-0.4-1.4-1.1-1.5c-0.1,0-0.3,0-0.4,0h-2.8v5.9h2.8c0.7,0.1,1.4-0.4,1.5-1.1C146.9,63.7,146.9,63.5,146.9,63.4L146.9,63.4z"
		/>
	<path class="st11" d="M160.9,55.9c1.3-1.5,3.6-1.7,5.1-0.4c0.2,0.1,0.3,0.3,0.4,0.4l3.6,3.6l-2.7,2.7l-2.6-2.5
		c-0.5-0.6-1.3-0.7-1.9-0.2c-0.1,0.1-0.2,0.1-0.2,0.2l-1.4,1.3v7.7l1.4,1.4c0.5,0.6,1.3,0.7,1.9,0.2c0.1-0.1,0.2-0.1,0.2-0.2
		l2.6-2.6l2.8,2.8l-3.6,3.6c-1.3,1.5-3.6,1.7-5.1,0.4c-0.2-0.1-0.3-0.3-0.4-0.4l-3.6-3.6V59.5L160.9,55.9z"/>
	<path class="st11" d="M179.7,55.9c1.3-1.5,3.6-1.7,5.1-0.4c0.2,0.1,0.3,0.3,0.4,0.4l3.6,3.6l-2.8,2.7l-2.6-2.5
		c-0.5-0.6-1.3-0.7-1.9-0.2c-0.1,0.1-0.2,0.1-0.2,0.2L180,61v7.7l1.4,1.4c0.5,0.6,1.3,0.7,1.9,0.2c0.1-0.1,0.2-0.1,0.2-0.2l2.5-2.5
		l2.7,2.7l-3.6,3.6c-1.3,1.5-3.6,1.7-5.1,0.4c-0.2-0.1-0.3-0.3-0.4-0.4l-3.6-3.6V59.5L179.7,55.9z"/>
</g>
</svg>
