<svg id="Layer_1" data-name="Layer 1" xmlns="http://www.w3.org/2000/svg" viewBox="0 0 1064.17 438.13"><defs><style>.cls-1{fill:#939598;}.cls-1,.cls-10,.cls-11,.cls-12,.cls-13,.cls-14,.cls-15,.cls-16,.cls-2,.cls-3,.cls-4,.cls-5,.cls-6,.cls-8{stroke:#231f20;}.cls-1,.cls-12,.cls-2,.cls-3,.cls-4,.cls-5,.cls-6,.cls-7,.cls-8{stroke-miterlimit:10;}.cls-2{fill:#74fffd;}.cls-3{fill:#ff5584;}.cls-4{fill:#a7a9ac;}.cls-5{fill:#58595b;}.cls-6{fill:#74f1ff;}.cls-7{fill:#7c8a00;stroke:#21409a;stroke-width:0.5px;}.cls-8{fill:#231f20;stroke-width:0.75px;}.cls-14,.cls-9{fill:none;}.cls-10,.cls-11,.cls-13{fill:#f1ff3f;}.cls-10,.cls-11{stroke-linecap:round;}.cls-10{stroke-linejoin:round;}.cls-10,.cls-11,.cls-12,.cls-13,.cls-14,.cls-15,.cls-16{stroke-width:2px;}.cls-12{fill:#4ab0ff;fill-rule:evenodd;}.cls-13,.cls-14,.cls-15,.cls-16{opacity:0.8;}.cls-15{fill:#ffb61f;}.cls-16{fill:#3fff7b;}</style></defs><title>SWEP_Logo</title><g id="Layer_3" data-name="Layer 3"><path class="cls-1" d="M1114.49,144.68l-1.51.46a3.23,3.23,0,0,0-2.25,2.93l-.5,9.39a3.3,3.3,0,0,0,1.83,3.13l1.39.63a3.23,3.23,0,0,1,1.63,4.29l-.08.08-5.65,11.66a3.22,3.22,0,0,1-4.28,1.47l-.08-.09-1.32-.7a3.42,3.42,0,0,0-3.67.4l-7.08,6.22a3.2,3.2,0,0,0-.85,3.55l.55,1.43a3.25,3.25,0,0,1-1.87,4.2l-.08.08-12.19,4.24a3.33,3.33,0,0,1-4.19-2h0l-.46-1.51a3.21,3.21,0,0,0-2.93-2.24l-9.39-.51a3.33,3.33,0,0,0-3.13,1.83l-.63,1.4a3.25,3.25,0,0,1-4.29,1.63l-.08-.09-11.66-5.64a3.41,3.41,0,0,1-1.55-4.37l.09-.09.7-1.31a3.42,3.42,0,0,0-.4-3.67l-6.22-7.08a3.18,3.18,0,0,0-3.55-.85l-1.43.55a3.25,3.25,0,0,1-4.2-1.87l-.08-.08-4.24-12.19a3.32,3.32,0,0,1,2-4.19l.08-.08,1.51-.46a3.23,3.23,0,0,0,2.25-2.93l.5-9.4a3.33,3.33,0,0,0-1.82-3.13l-1.4-.62a3.24,3.24,0,0,1-1.63-4.29l.08-.08,5.65-11.66a3.41,3.41,0,0,1,4.37-1.55l.08.09,1.31.7a3.47,3.47,0,0,0,3.68-.4l7.08-6.22a3.18,3.18,0,0,0,.84-3.55l-.54-1.43a3.25,3.25,0,0,1,1.86-4.2l.09-.08,12.18-4.24a3.32,3.32,0,0,1,4.19,2l.08.09.46,1.51a3.24,3.24,0,0,0,2.94,2.25l9.47.59a3.35,3.35,0,0,0,3.13-1.83l.62-1.4a3.25,3.25,0,0,1,4.29-1.63h0l11.67,5.65a3.39,3.39,0,0,1,1.54,4.37l-.08.08-.7,1.31a3.44,3.44,0,0,0,.4,3.68l6.21,7.07a3.2,3.2,0,0,0,3.56.85l1.43-.54a3.24,3.24,0,0,1,4.19,1.86l.08.09,4.25,12.18a3.6,3.6,0,0,1-2.28,4.27Z" transform="translate(-253.83 -46.87)"/><path class="cls-1" d="M1109.43,107.5l.83,0a4.63,4.63,0,0,0,4.66-3.12l2.89-8.08a4.64,4.64,0,0,0-1.69-5.37l-.65-.52a4.72,4.72,0,0,1-1.07-6.61l.09-.08,6.39-8.31a4.84,4.84,0,0,1,6.6-.9l.08.08.65.52a4.74,4.74,0,0,0,5.57.23l7-4.88a4.58,4.58,0,0,0,1.8-5.28l-.22-.75a4.77,4.77,0,0,1,3-5.92l.08-.08,10.16-3a4.68,4.68,0,0,1,5.82,3.24l.08.09.23.75a4.61,4.61,0,0,0,4.4,3.45l8.65.24a4.81,4.81,0,0,0,4.58-3.2l.27-.75a4.78,4.78,0,0,1,5.91-3l.08.09,10,3.52a4.72,4.72,0,0,1,2.83,6.07l-.09.08-.27.74a4.66,4.66,0,0,0,1.52,5.37l6.77,5.26a4.73,4.73,0,0,0,5.57.07l.68-.48a4.67,4.67,0,0,1,6.55,1.1l.08.08,5.92,8.65a4.68,4.68,0,0,1-1.26,6.55l-.08.08-.68.48a4.73,4.73,0,0,0-2,5.27l2.44,8.23a4.66,4.66,0,0,0,4.49,3.37l.83,0a4.7,4.7,0,0,1,4.7,4.79v.17l-.28,10.48a4.7,4.7,0,0,1-4.88,4.61h-.16l-.83,0a4.65,4.65,0,0,0-4.67,3.12l-2.88,8.08a4.65,4.65,0,0,0,1.68,5.37l.65.52a4.61,4.61,0,0,1,1,6.52l-.08.08-6.39,8.32a4.86,4.86,0,0,1-6.6.9l-.08-.09-.66-.51a4.73,4.73,0,0,0-5.57-.24l-7.12,4.8A4.57,4.57,0,0,0,1195,173l.23.75a4.75,4.75,0,0,1-3,5.92l-.09.08-10.15,3a4.68,4.68,0,0,1-5.82-3.24l-.08-.09-.23-.76a4.63,4.63,0,0,0-4.4-3.45l-8.66-.23a4.68,4.68,0,0,0-4.58,3.2l-.27.74a4.67,4.67,0,0,1-5.91,3l-.08-.09-10-3.52a4.72,4.72,0,0,1-2.83-6.07l.09-.08.27-.74a4.66,4.66,0,0,0-1.52-5.37l-6.76-5.26a4.74,4.74,0,0,0-5.58-.07l-.68.48a4.66,4.66,0,0,1-6.54-1.1l-.09-.08-5.92-8.66a4.67,4.67,0,0,1,1.26-6.54l.09-.08.68-.48a4.74,4.74,0,0,0,2-5.27l-2.44-8.23a4.65,4.65,0,0,0-4.48-3.37l-.83,0a4.69,4.69,0,0,1-4.7-4.79v-.17l.29-10.48a5.2,5.2,0,0,1,5.2-4.43Z" transform="translate(-253.83 -46.87)"/><path class="cls-2" d="M1111.21,150.17l-1.51.46a3.21,3.21,0,0,0-2.24,2.93L1107,163a3.32,3.32,0,0,0,1.83,3.13l1.4.63a3.25,3.25,0,0,1,1.63,4.29l-.09.08-5.64,11.66a3.24,3.24,0,0,1-4.29,1.47l-.08-.09-1.31-.7a3.43,3.43,0,0,0-3.68.4l-7.08,6.21a3.19,3.19,0,0,0-.84,3.56l.54,1.43a3.25,3.25,0,0,1-1.86,4.2l-.09.08-12.18,4.24a3.32,3.32,0,0,1-4.19-2h0l-.46-1.51a3.22,3.22,0,0,0-2.94-2.24l-9.39-.51a3.33,3.33,0,0,0-3.13,1.83l-.62,1.4a3.25,3.25,0,0,1-4.29,1.63l-.08-.09-11.67-5.64a3.4,3.4,0,0,1-1.54-4.37l.08-.09.7-1.31a3.42,3.42,0,0,0-.4-3.67l-6.21-7.08a3.19,3.19,0,0,0-3.56-.85l-1.43.55a3.25,3.25,0,0,1-4.19-1.87l-.08-.08-4.25-12.19a3.33,3.33,0,0,1,2-4.19l.09-.08,1.51-.46a3.22,3.22,0,0,0,2.24-2.93l.51-9.4a3.35,3.35,0,0,0-1.83-3.13l-1.4-.62a3.25,3.25,0,0,1-1.63-4.29l.09-.08,5.64-11.66a3.41,3.41,0,0,1,4.37-1.55l.08.09,1.32.7a3.46,3.46,0,0,0,3.67-.4l7.08-6.22a3.2,3.2,0,0,0,.85-3.55l-.55-1.43a3.25,3.25,0,0,1,1.87-4.2l.08-.08,12.19-4.24a3.32,3.32,0,0,1,4.19,2l.08.09.46,1.51a3.23,3.23,0,0,0,2.93,2.25l9.48.59a3.36,3.36,0,0,0,3.13-1.83l.62-1.4a3.24,3.24,0,0,1,4.29-1.63h0l11.66,5.65a3.41,3.41,0,0,1,1.55,4.37l-.09.08-.7,1.31a3.44,3.44,0,0,0,.4,3.67l6.22,7.08a3.18,3.18,0,0,0,3.55.85l1.43-.54a3.25,3.25,0,0,1,4.2,1.86l.08.08,4.24,12.19a3.59,3.59,0,0,1-2.28,4.27Z" transform="translate(-253.83 -46.87)"/><path class="cls-3" d="M1084.77,176.5a28.42,28.42,0,1,1-39-41.36l.08-.08a28.42,28.42,0,1,1,39,41.36Z" transform="translate(-253.83 -46.87)"/><circle class="cls-2" cx="811.53" cy="108.78" r="24.12"/><polygon class="cls-4" points="821.41 106.56 818.48 116.3 808.6 118.53 801.64 111.18 804.57 101.44 814.54 99.13 821.41 106.56"/><path class="cls-5" d="M1062,161.52l-1.68-1.78a.47.47,0,0,1,0-.63l8.72-8.09a.47.47,0,0,1,.63,0l1.68,1.78a.49.49,0,0,1,0,.63l-8.71,8.1A.48.48,0,0,1,1062,161.52Z" transform="translate(-253.83 -46.87)"/><path class="cls-3" d="M1106.15,113l.83,0a4.65,4.65,0,0,0,4.67-3.12l2.88-8.08a4.65,4.65,0,0,0-1.68-5.37l-.65-.52a4.7,4.7,0,0,1-1.07-6.61l.08-.08,6.39-8.31a4.84,4.84,0,0,1,6.6-.9l.08.08.65.52a4.76,4.76,0,0,0,5.58.23l7-4.88a4.6,4.6,0,0,0,1.81-5.28l-.23-.76a4.77,4.77,0,0,1,3-5.91l.09-.08,10.15-3a4.67,4.67,0,0,1,5.82,3.24l.08.09.23.75a4.61,4.61,0,0,0,4.4,3.45l8.65.24a4.85,4.85,0,0,0,4.59-3.2l.27-.75a4.77,4.77,0,0,1,5.91-3l.08.09,10,3.52a4.71,4.71,0,0,1,2.83,6.07l-.08.08-.27.74a4.65,4.65,0,0,0,1.52,5.37l6.76,5.26a4.74,4.74,0,0,0,5.58.07l.68-.48a4.66,4.66,0,0,1,6.54,1.1l.08.08,5.93,8.65a4.68,4.68,0,0,1-1.26,6.55l-.09.08-.68.48a4.73,4.73,0,0,0-2,5.27l2.43,8.23a4.67,4.67,0,0,0,4.49,3.37l.83,0a4.7,4.7,0,0,1,4.7,4.79v.16l-.29,10.49a4.69,4.69,0,0,1-4.87,4.61h-.17l-.83,0a4.63,4.63,0,0,0-4.66,3.12l-2.89,8.08a4.64,4.64,0,0,0,1.69,5.37l.65.52a4.61,4.61,0,0,1,1,6.52l-.08.08-6.39,8.32a4.86,4.86,0,0,1-6.6.9l-.08-.09-.65-.51a4.73,4.73,0,0,0-5.57-.24l-7.13,4.8a4.6,4.6,0,0,0-1.81,5.28l.23.75a4.72,4.72,0,0,1-3,5.91l-.08.09-10.16,3a4.67,4.67,0,0,1-5.82-3.23l-.08-.09-.23-.76a4.63,4.63,0,0,0-4.4-3.45l-8.65-.23a4.67,4.67,0,0,0-4.59,3.2l-.27.74a4.66,4.66,0,0,1-5.9,3l-.09-.09-10-3.52a4.72,4.72,0,0,1-2.83-6.07l.08-.08.27-.74a4.66,4.66,0,0,0-1.51-5.37l-6.77-5.27a4.74,4.74,0,0,0-5.58-.06l-.67.48a4.68,4.68,0,0,1-6.55-1.1l-.08-.08-5.93-8.66a4.68,4.68,0,0,1,1.27-6.54l.08-.08.68-.48a4.73,4.73,0,0,0,2-5.27l-2.44-8.23a4.66,4.66,0,0,0-4.49-3.37l-.83,0a4.7,4.7,0,0,1-4.7-4.79v-.17l.28-10.48a5.2,5.2,0,0,1,5.2-4.43Z" transform="translate(-253.83 -46.87)"/><circle class="cls-6" cx="1165.77" cy="124.61" r="40.6" transform="translate(322.77 1091.35) rotate(-65.93)"/><path class="cls-3" d="M1190.77,151A36.55,36.55,0,1,1,1202,125.6,36.31,36.31,0,0,1,1190.77,151Z" transform="translate(-253.83 -46.87)"/><polygon class="cls-4" points="920.91 63.08 929 78.12 920.11 92.69 902.97 92.22 894.89 77.18 903.78 62.61 920.91 63.08"/><path class="cls-5" d="M1162.49,135l.58-21.12a.78.78,0,0,1,.85-.81l4.33.12a.78.78,0,0,1,.81.85l-.58,21.13a.8.8,0,0,1-.86.81l-4.32-.12A.79.79,0,0,1,1162.49,135Z" transform="translate(-253.83 -46.87)"/></g><path class="cls-7" d="M266.33,283.44a1,1,0,0,0,.62.3,1.07,1.07,0,0,1,.65.5,2.32,2.32,0,0,0,1,.86c.53.24.81.5.79.78s.24.5,1.17.84c1.17.44,1.17.44.92,1.18-.3.89-.07,1.15,1.2,1.25,1.83.16,2.3.68,1.3,1.45-.44.33-.5.46-.3.73s1.38.73,2.87.87a5.17,5.17,0,0,1,1.43.27c.42.19.4.23-.41.56-1,.39-1.15.64-.89,1.33a2.37,2.37,0,0,0,2.27,1.05,2.77,2.77,0,0,1,1.24.16,2,2,0,0,0,1.11.11c.68-.17,1.43.11,1.27.46a3.39,3.39,0,0,1-1.29.63c-1.11.37-1.13.42-.87.9.43.75,2.32,1.52,3.58,1.45a5.26,5.26,0,0,1,1.3.06,8.73,8.73,0,0,0,1.92-.19c1.57-.27,2.81-.11,2.62.33a3.25,3.25,0,0,1-1,.52,2.27,2.27,0,0,0-1,.56,2,2,0,0,1-.72.47,8.63,8.63,0,0,0-2.8,1.84c.05.37,2.05,1.13,2.79,1.07a3.26,3.26,0,0,1,1.13.11,3.58,3.58,0,0,0,1.87-.36,7.41,7.41,0,0,1,2.27-.54,5,5,0,0,0,1.6-.33,8.34,8.34,0,0,1,1.77-.55l1.67-.31c1.27-.26,1,.42-.53,1.29a5.37,5.37,0,0,0-1.67,1.38,2.49,2.49,0,0,1-1.09,1c-.88.43-1.37,1.12-1.07,1.55.11.18-.07.63-.45,1.25-.73,1.14-.59,1.55.42,1.4a2.1,2.1,0,0,1,1,0,1.53,1.53,0,0,0,1-.17,14.24,14.24,0,0,1,1.37-.41,6.36,6.36,0,0,0,2.13-1.34c.8-.66,1.54-1.15,1.67-1s.57.18,1.76-.47,3.88-1.31,4.32-1.12-.08.71-1.12,1c-.69.24-1.08.52-1.09.77s-.42.53-1.13.76a2.83,2.83,0,0,0-1.62,1.16,8.18,8.18,0,0,1-1.54,1.61c-1.33,1-2.88,3.7-2.43,4.17.21.19.6.14,1.22-.19a2.48,2.48,0,0,1,1.13-.41,3.43,3.43,0,0,0,1.28-.22,2.69,2.69,0,0,1,1.39-.16c.44.19,1.21-.22,1.49-.78a1,1,0,0,1,1.47-.53c.35.16.92-.06,2.25-.91a22.19,22.19,0,0,1,4-1.88l2.23-.82.42.66c.6.93.12,1.48-1.19,1.34s-3.15.64-3,1.27a1,1,0,0,0,.52.6c.67.3.48.74-.4.82-1.15.09-3.07,1.67-3,2.42.07.43-.1.62-.83,1.08s-.94.74-1,1.09a7.47,7.47,0,0,1-.7,1.82c-1.39,2.67-1.36,2.55-.84,2.86a2.13,2.13,0,0,0,1.53,0,3.59,3.59,0,0,1,1.27-.25c.11.05.49-.15.84-.41a1,1,0,0,1,1.26-.22c.7.31,1.12.15,1.73-.62.43-.55.87-.53,1.1.07s.92.47,1.24-.18,1.86-2.22,2.24-2.18a1,1,0,0,1,.55.59c.2.49.34.55.72.45a1,1,0,0,0,.54-.33,27.82,27.82,0,0,1,2.26-2c1.69-1.34,2.3-1.7,2.63-1.56.52.24,3.13-1.11,5.7-3s3.87-2.42,5.84-2.51,6.62,1.08,6.36,1.65c-.1.22-1,.19-3-.1a16,16,0,0,0-5.43.13c-.4.19-.43.31-.27.78.26.88.05,1.07-1.48,1.12s-3,.51-3.24.94c-.07.16.07.51.32.75.53.53.37,1.12-.29,1.06a3.94,3.94,0,0,0-2.67,1.09c-.45.53-.46.74-.18,1.52l.3.9-.66.18c-2.47.65-2.55.7-2.72,1.38s-.34.75-1.22,1c-1.07.33-1.75,1.21-1.48,1.94a.52.52,0,0,1-.26.64,11.06,11.06,0,0,0-1.2,1.73c-.7,1.21-.75,1.45-.5,1.77a2.34,2.34,0,0,0,2.2.26,1.18,1.18,0,0,1,.84.11,1.19,1.19,0,0,0,1.23-.1,1.25,1.25,0,0,1,1.19-.13,1.74,1.74,0,0,0,1.51-.19c.88-.44.91-.43,1.18.19.39.88.91.78,1.63-.35s2.63-2.74,3-2.53a1.48,1.48,0,0,1,.25.9c.07,1.09.22,1.28,1.08,1.54,1.18.35.95.74-.74,1.28s-2.19,1.06-1.66,1.59c.3.32,0,1.27-.47,1.34s-.67.78-.42,1.29a.9.9,0,0,1-.19,1,9.6,9.6,0,0,0-.84,1.94c-.53,1.6-.34,1.82,1.24,1.35a2.52,2.52,0,0,1,1.45-.14,1.56,1.56,0,0,0,1.14-.25c.54-.31.87-.35,1.14-.12s.54.19,1.16-.43c.86-.85,1.09-.83,1.33.1.2.72.73.77,1,.07s1.43-1.94,1.82-1.92c.2,0,.48.27.61.57a1.5,1.5,0,0,0,.57.67c.46.21,1.41-.73,1.68-1.64a4.49,4.49,0,0,1,1.1-1.63,6.75,6.75,0,0,0,1.21-1.65c.52-1.13,1.36-.55,1,.73-.2.91,2.66,2.51,5,2.78.48,0,.53.1.31.42s-.53.29-1.43,0a6.67,6.67,0,0,0-1.81-.31,14.53,14.53,0,0,0-4.63,1.68c-1.23.69-1.28.74-1,1.21a1.72,1.72,0,0,0,.65.66c.79.35.42.76-1.37,1.59-2.13,1-2.57,1.56-1.68,2.22s.81.89-.26,1.2-1.71,1.31-1,2,.53.58-.37,1.1-1.06,1.31-.47,1.76c.32.28.32.41-.07.86-.75.91-2.05,4.22-1.86,4.72s.29.42,1,.13a2.23,2.23,0,0,1,1-.24,1,1,0,0,0,.66-.1,1.4,1.4,0,0,1,1,.05.82.82,0,0,0,1-.15.68.68,0,0,1,.89-.1c.53.35.65.24,1.32-.77a5.92,5.92,0,0,1,.73-.91c.35-.27.85.14,1,.81.27,1,1,.82,2.18-.68q1-1.24,1.38-1.14c.22,0,.34.18.28.31-.19.42.35,1.5.76,1.53s.54-.32,1-1.26c.85-1.88,1.73-3.2,2.14-3.17.2,0,.48.32.65.71.41,1,1.17,1.27,1.47.59a1.07,1.07,0,0,1,.56-.6c.21,0,.5-.53.83-1.49.45-1.25.6-1.45,1-1.49s.6-.26.86-.9c.43-1.07.76-1.24.9-.49.37,1.77.39,1.78,1,1.48a2.87,2.87,0,0,0,.89-1.13c.39-.85.82-.92,1.09-.19.1.25.25.32.61.22s.51,0,.78.61l.31.72L360,347c.89-.16,2.3.27,2.13.66s-.83.31-3.09.06c-2-.2-3.94.05-3.89.52,0,.14-.75.56-1.72.91-1.13.41-1.81.79-1.87,1.05-.09.44,0,.52,1.27.76a1.2,1.2,0,0,1,.92.7c.2.49.38.57,1.15.65,1.76.19,1.32.46-1.93,1.21-2.09.49-2.65.84-2.1,1.32l.59.56c.27.22,0,.42-1.57.92a11.4,11.4,0,0,0-2.38,1,1,1,0,0,0,.24,1.76c.94.42.86.65-.53,1.24-1.56.66-2.05,1.45-1.35,2.13.5.51.39,1-.28,1.19a1.42,1.42,0,0,0-.73,1.8c.26.38.18.66-.62,2.22-.66,1.29-.85,1.83-.68,1.91a4.17,4.17,0,0,0,2.44-.67.41.41,0,0,1,.79,0c.09.68,1,.37,1.47-.52s.85-.83,1.1-.16.77.34.93-.43c.33-1.54,1.4-1.82,1.48-.36,0,.44.14.85.28.91s0,.38-.28.8c-.45.64-.43.72.05.94.68.31,1.15,1.12.8,1.39a3.9,3.9,0,0,1-1.26.22,5.27,5.27,0,0,0-1.62.33c-.58.23-.61.3-.5,1s-.14,1.13-.64.9a1.15,1.15,0,0,0-.89.23c-.48.31-.59.5-.57,1a1.07,1.07,0,0,1-.38,1,9.06,9.06,0,0,0-1.84,2.21c-.29.65.13,1,1.25,1a1.79,1.79,0,0,1,1.12.26c.13.17.5.12,1-.11l.79-.41.18.71.2.72,1.19-.7c1.29-.77,1.87-.66,1.68.28-.3,1.5,1.06.87,3.05-1.45,1.62-1.85,2-1.64,1,.53-.8,1.8-.76,2.58.17,2.31.45-.11.8-.35,3.61-2.64,1.29-1.05,1.55-1,1,.28a2.6,2.6,0,0,0-.18,1.47c.14.57.27.68.73.65a3.14,3.14,0,0,0,1.92-1.75,3,3,0,0,1,.81-1,20.41,20.41,0,0,0,2.06-2.25,19.64,19.64,0,0,1,1.66-1.87c.41-.15.26.52-.5,2.05s-.78,1.8-.63,2.74c.1.6.22,1.44.24,1.87s.19.87.39,1c.37.17,1.12-.52,1.56-1.48a2.24,2.24,0,0,1,.83-1,3.3,3.3,0,0,0,1-1.28,4.87,4.87,0,0,1,1.06-1.49,4.12,4.12,0,0,0,1-1.28,26.26,26.26,0,0,1,2.77-4.23c.24-.07.22,2.15,0,3.33-.1.46-.05.88.09.91.29.06.48,2.56.24,3.09-.08.17-.45.3-.83.28a4,4,0,0,0-2.57.85,2.39,2.39,0,0,0,.56,2.33c.9,1,.61,1.27-.76.76-1.15-.43-2.17-.28-4,.6-.87.42-.92.48-.73,1,.26.77-.19,1-1.57.87-1.16-.13-3.19.65-3.49,1.33a1,1,0,0,0,.12.89c.44.67.26.88-1,1.33a6.42,6.42,0,0,0-1.65.92c-.46.45-.51.61-.28,1.27l.25.74-.73.39a1.36,1.36,0,0,0-.86,1.87,1.65,1.65,0,0,1-.29,1.45c-.29.42-.42.81-.3,1a1.13,1.13,0,0,1-.1.85c-.36.87-.31,2.81.11,3,.17.08.41-.05.52-.29a.94.94,0,0,1,.53-.48,4.62,4.62,0,0,0,2.41-2.36c.16-.59.27-.72.55-.6s.45-.06.74-.69c.51-1.14,1-1.17,1.23-.11.19.75.26.83.74.7s.59-.39.92-1.35c.54-1.67,1.61-2.7,2.59-2.49s1,.69.46,1.44-.16,1.48.54,1.32l1.26-.22a3,3,0,0,0,1.34-.64,3.57,3.57,0,0,1,1.27-.79,1.83,1.83,0,0,0,1-.78c.22-.48.81-.87,1.14-.73s.54,1.09.33,1.55a2.62,2.62,0,0,0,1.07,2.5c.54.25,1.47.06,1.64-.31.05-.11.42-.08.82,0,.75.26.75.26,1.31-1,.43-.91.71-1.29,1.08-1.36s.75-.56,1.2-1.38c1-1.73,2.57-3.66,3-3.64.67,0,.57.73-.3,2a6.5,6.5,0,0,0-1.17,4.26,2.26,2.26,0,0,1-.11,1.06.76.76,0,0,0-.05.63c.2.33,1.46.21,2-.19a1.38,1.38,0,0,1,1-.26c.68.12,1.35-.37,2.09-1.54a3.72,3.72,0,0,1,1-1.18,9.57,9.57,0,0,0,1.72-2.65c1.68-3.27,3.74-5.77,5.78-7,2.28-1.4,2.37-.7.18,1.24a8.94,8.94,0,0,0-1.63,2,24.69,24.69,0,0,1-1.41,2.21c-.64.89-.86,1.37-.84,1.8a4.69,4.69,0,0,1-.4,1.72c-.34.93-.36,1.21,0,1.56s.32.62.09,1.14c-.44,1-.43,1.47.06,1.69.26.12.39.52.37,1.09a1.59,1.59,0,0,0,.21,1,2.75,2.75,0,0,0,1.62-.61c0-.09.3-.1.59,0s.63,0,1.08-.72.89-1.05,1.61-1c.15,0,.6-.76,1-1.7.71-1.57.81-1.69,1.35-1.65s.64-.08.75-.62a20.9,20.9,0,0,1,2.36-5.6,34.94,34.94,0,0,0,1.72-3.17c.46-1.16,2.37-3.07,4.47-4.52,1.38-1,3.2-1.72,3.32-1.41s-1,1.1-2.38,2c-1.12.68-2.7,2.84-4.55,6.33-1.1,2-1.12,2.37-.26,3,.35.24.33.5-.24,2s-.6,1.86-.39,2.46a1.92,1.92,0,0,1,.07,1.19,1.33,1.33,0,0,0,.29,1.52,1,1,0,0,1,.12,1.08,1.55,1.55,0,0,0-.13,1,.76.76,0,0,0,1.29.34,1.29,1.29,0,0,1,.93-.37c.46.05.69-.11.91-.62s.36-.63.71-.34.53.29.71.16a2.14,2.14,0,0,0,.47-1.79.62.62,0,0,1,.88-.73c.53.23,1.18-.45,1.36-1.45.06-.36.27-1.3.45-2.06.35-1.29.43-1.41,1-1.53s.63-.17,1.43-2.94a24,24,0,0,1,2.49-5.85c2.69-4.88,3.14-5.46,5.19-6.91,1-.69,1.85-1.15,1.9-1a7.36,7.36,0,0,1-1.63,2.11,25.24,25.24,0,0,0-2.63,3.27,15.72,15.72,0,0,1-1.23,1.74c-.19.2-.19.44,0,.75s.27.64-.12,1.5a4.88,4.88,0,0,0-.39,2.35,8.34,8.34,0,0,1-.23,2.37c-.37,1.18-.2,2,.39,2.31.24.1.42.53.43,1s0,1.05,0,1.28.05.65.08.93c0,.77.3.92,1.33.62a2.11,2.11,0,0,0,1.3-.91c.29-.53.54-.66,1-.56s.67,0,1.35-1.24.79-1.35,1.34-1.23.7,0,1.09-.67a1.9,1.9,0,0,1,.94-.87c.59-.08,1.53.66,1.34,1.07s.39.71,1,.62a.76.76,0,0,1,.74.35,3.56,3.56,0,0,0,2.86.55c.61-.3,1.14.09,1.15.83,0,.9-.2,1-1.41.63a3,3,0,0,0-1.56,0,2.81,2.81,0,0,1-1.59-.05c-1.07-.3-2.45-.11-2.67.38a4,4,0,0,1-1.42.83,3.67,3.67,0,0,0-1.48.94,3.9,3.9,0,0,1-1.13,1.05,3.77,3.77,0,0,0-1.13,1,3,3,0,0,1-.72.92c-.44.38-.5.51-.28.9.33.57.23.73-.6,1.17a2.17,2.17,0,0,0-.89.82,1.2,1.2,0,0,1-.64.6,1.78,1.78,0,0,0-.82.77c-.26.46-.52.63-.86.56a1.43,1.43,0,0,0-.94.16c-.26.17-.56.19-.63,0-.22-.28-1.66-.35-1.79-.06a2.94,2.94,0,0,1-.77.6c-1.25.73-1.38,1.09-1,2.57a3.08,3.08,0,0,0,.72,1.56,1.24,1.24,0,0,1,.5.88,1.19,1.19,0,0,0,.74,1,1.52,1.52,0,0,1,.75.73c.19.69-.55.94-1.56.49a4,4,0,0,0-3.2.14,3.89,3.89,0,0,0-.84,1.28,1.68,1.68,0,0,0-.09,1.67,1.7,1.7,0,0,1,.23.95c0,.11.13.37.4.6s.42.5.35.68c-.16.35-.92.22-2.07-.38-.86-.43-.86-.43-1.32.41a2.3,2.3,0,0,0-.23,1.87,6.16,6.16,0,0,1,.16,1.47,19.12,19.12,0,0,0,.05,2c.07,1.43,0,1.54-.44,1.62a1.47,1.47,0,0,1-.66.05c-.37-.17-.82.71-.78,1.46a3.41,3.41,0,0,1-.17,1.32,3.27,3.27,0,0,0-.18,1.32c.17,2,.14,2.85-.08,3.36s.49,3.11,1,3.18a1,1,0,0,0,.62-.43c.3-.45.32-.44,1.09.38.41.42.75-.4.72-1.67a5.4,5.4,0,0,1,.21-1.94l.31-.62.19.74c.1.42.26,1.2.35,1.74s.27,1,.45,1.12c.63.29,1-.92.89-2.86a5.44,5.44,0,0,1,.24-2.47c.32-.54.38-.38.71,1.76a5.72,5.72,0,0,0,.64,2.37c.41,0,1-1.72,1-2.8s1.8-6.35,2.24-6.52.35.05.22,1.33a13.11,13.11,0,0,0,0,2.33,13.09,13.09,0,0,1,.11,1.45,9.75,9.75,0,0,0,1.22,3c.28.13.59-.26,1.57-2a3.37,3.37,0,0,0,.61-2.36c-.15-2.54.35-4.82,1.89-8.55,1-2.35,1.28-2.9,1.47-2.74s0,2.11-.61,3.52c-.38.91-.45,1.72-.37,4.1.13,2.77.35,3.58,1,3.49.13,0,.39-.35.58-.77s.47-.76.64-.79.64-.84,1.23-2.16c1.13-2.62,2.25-4.54,2.54-4.41.13.06.33-.27.51-.9s.47-1.58.71-2.29l.43-1.31.75.26.75.26,1.11-2.4c1.23-2.68,1.56-3,3.68-3.69.89-.28,1.25-.54,1.49-1.09a1.7,1.7,0,0,1,.93-.9c.52-.16.75-.48,1.35-1.82.39-.87.8-1.56.91-1.51.4.18.47,1.37.14,2.09s-.22.85.34,1.55a3.91,3.91,0,0,1,.71,1.11c0,.47,1.08.8,1.43.43a4.1,4.1,0,0,1,1.12-.66c.52-.24.8-.5.82-.79s.24-.52.68-.61.73-.36,1-1,.47-.81,1-.91.79-.28,1.22-1.24c.56-1.25.78-1.44,1.67-1.49a1,1,0,0,0,.78-.46c.1-.22.33-.44.47-.45s.32-.25.36-.5a1.41,1.41,0,0,1,.8-.91l.74-.42.16-1.54c.17-1.77.52-2.66,1.18-3s.76-.19.14.8-.53,1.18.33.91,1.26.3.7,1.13-.42,1.1.34,1.47c.35.16.38.38.15,1.12-.28.93-.19,1.07.74,1.23.2,0,.37.35.41.68.05,1.1.24,1.34.85,1.15s.9-.18,1.28.78a6.3,6.3,0,0,0,2.71,2.75c.72.11,1.49.8,1.32,1.17s.14.56,1.76.66,2.17.31,2.08.93c-.08.41.11.58,1.23,1.08a3.54,3.54,0,0,0,1.56.44c.54-.37,1.08.24,1.06,1.16a2.08,2.08,0,0,1-.24,1.07,4.15,4.15,0,0,1-1.67-.51c-.81-.36-3-1.17-4.9-1.81s-4.11-1.39-4.94-1.71c-1.81-.66-2.5-.65-3,.07s-.95,1-1.92.87c-1.16-.15-4.26,1.17-4.38,1.9a3.23,3.23,0,0,1-.8,1.2c-.7.68-1.24.78-2.74.48a1.3,1.3,0,0,0-1.3.44,3.87,3.87,0,0,1-1.11.71,3.78,3.78,0,0,0-1.82,1.42c-.1.22.07.42.51.62s.66.46.63.94c-.05.75-.05.75.85.73.58,0,.68.07.78.56s.22.57,1,.61.87.11,1.19.88l.32.8,1.52-.05c1.28,0,1.52,0,1.58.37.06.5.76.58,4.84.51a13.53,13.53,0,0,1,2.91.15c0,.1-.08.36-.29.58-.91,1-9.08.29-11.79-1.05-1.29-.64-1.54-.67-2.31-.41a3.11,3.11,0,0,1-2.43-.12,1.23,1.23,0,0,0-1.18.34,4,4,0,0,1-1.3.68,1.42,1.42,0,0,0-.87.58c-.1.22-.32.44-.46.45s-.37.23-.48.47a2,2,0,0,1-.63.72c-.57.38-.59,1.07,0,1.33a.71.71,0,0,1,.42.58c0,.24.27.52.7.72s.77.47.79.64.38.41.87.52a2.37,2.37,0,0,1,1.28.86c.42.59.51.63,1.8.68a8.06,8.06,0,0,1,1.62.15,8.48,8.48,0,0,0,2.15-.35c2.93-.71,2.9-.35-.06.84a7,7,0,0,1-3.76.58,7.2,7.2,0,0,0-3.6.33c-.58.19-.69.37-1.24,1.94a7.59,7.59,0,0,0-.5,2.07c0,.17.56.56,1.16.86,1.81.89,1.8,1.44,0,1.74-1.08.18-1.15.22-1.66,1.36-.58,1.29-.43,2.07.49,2.48.52.24.91.84.76,1.17a3.24,3.24,0,0,1-.87.47c-1,.43-1,.49-.77,1.5a1.47,1.47,0,0,0,.92,1.1c.9.4,1,.72.36,1.9a1.7,1.7,0,0,0,0,1.94,3.56,3.56,0,0,1,.29,1.74,5.58,5.58,0,0,0,.15,1.78,3.74,3.74,0,0,1,.18,1.31,1.76,1.76,0,0,0,.11.87,14.66,14.66,0,0,1,.29,2c0,1,.2,1.49.48,1.61a.4.4,0,0,0,.59-.2,2.22,2.22,0,0,1,1.09-.73l.95-.34-.19-.82c-.24-1.05,0-1.17.7-.31.3.37.66.63.8.62.41-.05.56-.56.33-1s0-1.13.47-.76a.68.68,0,0,0,.71.13c.46-.21.27-1.14-.74-3.7a11.62,11.62,0,0,1-.82-3.6c0-1.57.27-2.25.35-.79,0,.45.11.86.22.91a7,7,0,0,1,.82,1.69,5.72,5.72,0,0,0,.87,1.7c.39.18.75-.45.65-1.15a2.23,2.23,0,0,1,0-1.06,3.76,3.76,0,0,0-.2-1.59,4,4,0,0,1-.25-1.51,10.55,10.55,0,0,0,0-2.27,7.61,7.61,0,0,1,.45-3.7c.32-.93.64-1.6.69-1.48a16,16,0,0,1,.07,2.19,16.86,16.86,0,0,0,.27,3.15c.48,1.87,2.1,5.47,2.5,5.57.57.13,1.08-.93,1-2a5,5,0,0,1,.08-1.65,5.68,5.68,0,0,0-.08-2,4.26,4.26,0,0,1-.06-1.64,13.74,13.74,0,0,0,.26-2.67c.07-2.15.27-3.12,1.31-6.62.49-1.68,1.37-3.28,1.68-3.15.11.05,0,.55-.27,1.12a5,5,0,0,0-.43,1.73,12.39,12.39,0,0,1-.24,2.13,4.36,4.36,0,0,0,0,2.25,4.53,4.53,0,0,1,.08,2.15,4.24,4.24,0,0,0,0,2,1.79,1.79,0,0,1,.16,1c-.19.42.67,1.86,1.13,1.88.22,0,.62-.45,1.11-1.24s.88-1.26,1.27-1.3.56-.19.9-1.3c.28-.87.53-1.31.81-1.45s.55-.6.88-1.66a17.58,17.58,0,0,1,.91-2.46,2.26,2.26,0,0,0,.35-1.24c-.1-.12-.05-.47.08-.75a4.16,4.16,0,0,0,.26-1.12c.13-2.63.52-4.8,1-5.55s.61-.88,1.08-.3c.24.34.2.67-.22,1.61s-.49,1.2-.06,1.48.41.44.18,1.07c-.71,1.92-.48,2.47.45,1.1.36-.52.6-.62.84-.46s.25,1.14-.29,2.45a1.22,1.22,0,0,0,.11,1.41,1.86,1.86,0,0,0,.76.64c.16,0,.48.29.7.62.49.78,1.1.84,1.41.14.14-.31.36-.57.52-.58s.42-.34.58-.69a1.71,1.71,0,0,1,.8-.85.89.89,0,0,0,.51-.61c.06-1.13.33-1.73.68-1.57.52.24.91-.27,1-1.37.09-.86.17-1,.72-1.37a3.82,3.82,0,0,0,1.11-1.55,19.51,19.51,0,0,1,1.06-2.05,4,4,0,0,0,.61-2.54,5.57,5.57,0,0,1,.87-3.27,4.53,4.53,0,0,1,1.83-2.21c1-.58,1.72-.72,1.87-.36a5.25,5.25,0,0,1-1.43,1.32c-1.8,1.36-1.93,1.59-1.07,1.74.61.09.64.15.22.67l-.93,1.32c-.47.74-.47.79.1,1.05s.54.32.25.56a8.26,8.26,0,0,0-.95,1.41l-.61,1.13.7.31c.68.31.67.33.2,1.2s-.46.92.16,1.28a1.07,1.07,0,0,1,.65,1c0,.35.11.68.24.74a3.1,3.1,0,0,1,.72,1c.65,1.19,1.32,1.46,1.83.74a1.68,1.68,0,0,1,1.2-.62c.66-.07.86-.22,1.2-1s.44-.86,1-.6c.79.36,1.24-.07,1.45-1.35.15-1,.36-1.26.92-1a1.5,1.5,0,0,0,1.64-.66,2.72,2.72,0,0,0-.11-1.26c-.33-1.15.1-1.93.91-1.7,1,.3,1.28-.14,1.47-2.5.09-1.25.5-1.51,1.22-.79.3.29.53.37.81.2.66-.3,1,0,1.08,1s.51,1.63,1.05,1.42a.72.72,0,0,1,1,.87c-.26,1.39.48,2.14,1.38,1.37.63-.57,1.09-.36,1.1.49s.49,1.3,1,1.2a4,4,0,0,1,1.26.3c2.49.91,2.21.94,2.81-.39a5.44,5.44,0,0,1,.91-1.51c.26-.23.29-.53.1-1.09l-.26-.78.84-.22c.7-.16.88-.32,1-.86.08-.36,0-.71-.17-.79a1.06,1.06,0,0,1-.42-.58c-.11-.4,0-.53.74-.83,1.18-.47,1.38-1.2.61-2.36s-.56-1.51.34-1.45,1.23-.82.79-1.88a2.32,2.32,0,0,0-.54-.9c-.09,0,.08-.42.36-.87s.45-.88.37-1a27.87,27.87,0,0,0-5.39-2.48c-1.79-.48-1.1-.78,2.6-1.11s3.83-.26,6.72,1.46c.88.55,3.24,1.85,5.24,2.91s4.1,2.26,4.7,2.66a4.22,4.22,0,0,0,1.33.68c.25,0,.15-2.2-.15-3.07a4.64,4.64,0,0,0-1.41-1.32c-.68-.46-2-1.36-2.84-2s-3.21-2-5.17-3.13c-5.35-3-5-2.82-12.68-8.23-1.67-1.2-3.32-2.28-3.62-2.41-2-.89-2.74-2.52-3.91-8.37-.91-4.59-1-5.88-.21-7.78a6.32,6.32,0,0,1,1-1.92,9.45,9.45,0,0,0,1.14-1.25c2.78-3.38,3.68-4.56,3.74-4.93a1.83,1.83,0,0,1,.59-.79,5,5,0,0,0,1.42-3.15,1.58,1.58,0,0,1,.47-1.23,7.05,7.05,0,0,0,.78-1c.18-.29.53-.82.79-1.17.53-.77.41-1.45-.27-1.68-.46-.15-.47-.26.08-1.3.35-.66.51-1.14.38-1.2a1.45,1.45,0,0,1-.37-1.64c.4-.88-1.37-1.22-2.17-.43a.88.88,0,0,1-.78.32c-.41-.19-.65,0-1.52,1.1-.52.64-.91.91-1.39.93s-.77.18-1.49,1.57-.87,1.53-1.26,1.27-.8-.09-1.67,1.38-1.6,5.13-1.52,8.06,0,3.67-.32,3.36-.61-4.75-.39-7.05c.18-1.86.29-2.16,1.68-5a29.36,29.36,0,0,1,3.58-5.79,19.89,19.89,0,0,0,2.28-3.45,4.92,4.92,0,0,1,.93-1.48,6,6,0,0,0,1.09-1.77c.31-.81.28-1-.12-1.27s-.39-.41,0-1.24a6.59,6.59,0,0,1,.92-1.46.79.79,0,0,0,.23-1.11,1.58,1.58,0,0,1,0-1.11,1.5,1.5,0,0,0,0-1.1c-.26-.59-.29-.58-1.59,0a6.31,6.31,0,0,0-1.82,1.08,1.66,1.66,0,0,1-1.11.47c-.6,0-.77.13-1.77,1.66-.37.57-.66.75-1.14.72-.73,0-1.42.58-1.91,1.67-.2.44-.5.75-.7.74s-.68.56-1.36,1.86a7.09,7.09,0,0,1-1.29,1.92c-.64.09-.06-1.44,4.9-12.9.55-1.28.74-1.93.56-2.07s0-.62.25-1.25c.39-.88.4-1.12.06-1.53a1.3,1.3,0,0,1-.24-1.19c.23-1-.45-1.28-1.48-.56a6.73,6.73,0,0,0-1.21,1.12,3.54,3.54,0,0,1-.86.74,3.49,3.49,0,0,0-1.08,1.23A5.45,5.45,0,0,1,488,339c-.35.21-.9,1.18-2,3.52-1.36,3-1.93,3.85-1.78,2.5,0-.31.83-2.48,1.76-4.8,2.17-5.47,2.07-5.25,2.64-5.92.91-1.09.35-3.71-.71-3.18l-.95.43a3.1,3.1,0,0,0-1,.79,4,4,0,0,1-1.11.89,3.93,3.93,0,0,0-1.18,1.16c-.3.42-.62.72-.73.67s.23-1,.92-2.46c1.24-2.52,1.32-3.22.39-3.48-.35-.11-.77.18-1.62,1.06-1.32,1.38-1.78,1.63-1.84,1a.79.79,0,0,1,.16-.67,1.73,1.73,0,0,0,.2-1.09c0-.48,0-1.05-.06-1.27,0-.5-.94-1.08-1.39-.83a2.13,2.13,0,0,0-.69.66c-.39.64-.9.6-.83,0a2.34,2.34,0,0,0-.7-2,.88.88,0,0,0-.82.3c-.52.5-.59.49-1.05-.08a.8.8,0,0,0-.93-.32,2.32,2.32,0,0,1-1.53-.42c-.47-.29-1-.43-1.07-.35a6.26,6.26,0,0,0-.89,1.45,4.56,4.56,0,0,1-1.12,1.49c-.37.18-.47.4-.52,1a1.89,1.89,0,0,1-.59,1.32c-.51.5-.54.62-.19,1.3.48.93.41,1.14-.58,1.48a2.8,2.8,0,0,0-1.34,1.16,3.82,3.82,0,0,1-1.51,1.35c-.72.33-1.08.73-1.74,1.83A5.11,5.11,0,0,1,462.6,339a9.25,9.25,0,0,0-1.3,2.36c-1.19,2.65-1.74,3.28-1.54,1.79.23-1.82,2.71-6.68,5-9.91,1.5-2.06,2.18-3.68,2.15-5s-.54-1.66-1.69-1.05a15.62,15.62,0,0,1-1.66.78c-.69.25-1.12.68-2.11,2.06a7.26,7.26,0,0,1-1.38,1.67c-.48-.22,1.45-3.83,2.55-4.68a6.4,6.4,0,0,0,1.2-1.85c.59-1.32.59-1.45.16-2.06a1.74,1.74,0,0,0-.88-.69,8,8,0,0,0-3.15,2c-.23.29-.58.47-.76.39s-.15-.48.32-1.57c.78-1.86,1-3.21.71-3.7s-1.54-.43-2.31.28c-.35.31-.76.52-.94.44a3.67,3.67,0,0,1-.17-2.36,1.51,1.51,0,0,0-.16-.81c-.23-.5-.37-.59-.92-.6a1,1,0,0,0-.85.43c-.58,1.29-1.41,1.14-1.65-.32-.16-1.1-.33-1.25-1-1s-.73.17-1-.51c-.21-.47-.32-.51-1-.5a11.25,11.25,0,0,1-2.36-.43l-1.63-.47-.67,1.44a6.67,6.67,0,0,1-.9,1.6.69.69,0,0,0,.08,1.16c.59.27.56.75-.07,1-.85.38-.86,1,0,1.56a4.75,4.75,0,0,1,.91.78c.35.47,0,.92-.59.68a1,1,0,0,0-1.48.54c-.24.53.18,1.06,1.74,2.21s1.64,1.39.53,1.52a6,6,0,0,1-1.61,0c-.54-.1-.74,0-.94.45-.58,1.35.57,2.89,2.94,4a9.4,9.4,0,0,1,1.43.81c.45.38.42.82-.06.6a16.24,16.24,0,0,0-4.57.14,3,3,0,0,1-1,.24.9.9,0,0,0-.29,1.74,1,1,0,0,1,.45.76c.1.59.13.6,2.3,1.16,2.69.68,6,2.13,5.73,2.47s-1.23.1-2.45-.39a2.11,2.11,0,0,0-1.27-.18,3,3,0,0,1-1.38,0c-1.34-.34-2.94-.13-3.18.42a3.83,3.83,0,0,0,.73,2.53c.11.05.13.25.05.42-.28.61.52,1.13,4.89,3.12a36.62,36.62,0,0,1,4.71,2.35c.41.55-1.08.52-2.87-.07a4.69,4.69,0,0,0-2.17-.32,4.38,4.38,0,0,1-1.73,0c-.78-.14-1.21-.06-1.53.24a1.35,1.35,0,0,1-1.06.31,1.56,1.56,0,0,0-1.1.29c-.41.38-.42.58-.07,1.56a3,3,0,0,0,.76,1.29,1.25,1.25,0,0,1,.53.63,3.83,3.83,0,0,0,1.4,1.18c1.55.88,1.69,1.26.63,1.52-2.49.62-2.74.71-2.61,1.17s0,.57-.44,1a2.62,2.62,0,0,0,0,3.37,2,2,0,0,1,.52,1.42c-.1.53,0,.66,1,1.17a4.73,4.73,0,0,0,2,.58c1.29.06,1.35.11,1.13.83-.3,1,.69,1.75,3,2.45,6.35,1.91,9.18,3.1,10.19,4.27.8.91,2.19,4.72,1.9,5.14s-1.88-.4-3.89-1.77c-1-.69-4.85-2.79-13.21-7.23-1.77-.92-3.66-2-4.22-2.31a26.71,26.71,0,0,1-4.93-3.8,2.9,2.9,0,0,0-1-.8,7.69,7.69,0,0,1-1.29-.81c-.36-.3-.91-.73-1.21-.94-.53-.4-1.58-4.16-1.74-6.21,0-.51-.1-1.46-.14-2.09a9.09,9.09,0,0,1,.06-1.94c.19-1,1.9-5.1,4.9-11.78,1.72-3.83,2.51-5.9,2.36-6.26a1.82,1.82,0,0,1,.14-1,.94.94,0,0,0,0-.9c-.45-.46-1.48-.53-1.65-.13a1.63,1.63,0,0,1-.9.59c-.6.16-.89.45-1.47,1.51a6.69,6.69,0,0,1-1.13,1.64,2.55,2.55,0,0,0-.64.77,4.31,4.31,0,0,1-.71,1c-.48.47-.53.47-.5,0,.05-1.74,3.26-6.54,5.83-8.75a1.84,1.84,0,0,0,.54-.84,7.3,7.3,0,0,1,1.2-1.91c1.45-1.82,1.54-2,1.21-2.82-.22-.5-.19-.69.17-.95a2.6,2.6,0,0,0,.9-2.31c-.15-.3-.09-.62.22-1.08a1.38,1.38,0,0,0,.26-1.34l-.2-.72-1.27.48a4.19,4.19,0,0,0-1.37.65,2,2,0,0,1-.81.46,2.78,2.78,0,0,0-1.31,1.09c-.43.68-.7.87-1.19.84-.72,0-1.58.87-2.29,2.47-.34.74-.6,1-.86,1s-.45-.12-.48-.24a12.37,12.37,0,0,1,1.24-2.28c.72-1.18,1.73-3,2.23-4.08s1.27-2.54,1.68-3.22c.72-1.18.74-1.3.42-1.87a1.4,1.4,0,0,1-.11-1.23c.29-.74-.08-2.69-.54-2.9-.15-.07-.46.11-.7.39-.84,1.12-2.62,2.72-2.9,2.6s-.17-.32,0-.54a12.9,12.9,0,0,0,.79-1.64,8.42,8.42,0,0,1,1.24-2c.66-.71.71-.82.48-1.31a2.33,2.33,0,0,1,.06-1.37c.26-.75.23-.85-.37-1.11s-.79-.17-2.4,1.13a15,15,0,0,0-1.9,1.7c-.15.35-.69.43-.8.14a25.22,25.22,0,0,1,1.86-4.83c.54-1.15.62-1.56.42-2.12-.14-.38-.35-.68-.49-.67a9.61,9.61,0,0,0-2.63,2.35c-.32.72-1.17,1.44-1.29,1.13a9.2,9.2,0,0,1,.66-2.65,21.46,21.46,0,0,0,.81-3c.06-1.13-.63-1-1.7.34-.75.9-1.35.89-1.21,0,.33-2,.32-2.41,0-2.56a.63.63,0,0,0-.7.21.63.63,0,0,1-.68.22.62.62,0,0,1-.28-.66c.05-.42-.11-.57-1.34-1.12-1.67-.75-2.38-.75-2.7,0-.13.28-.37.54-.55.57s-.4.37-.52.82-.34.82-.72.89c-.85.19-1,.45-.84,1.23s.14.74-.25.85c-.67.2-.85.84-.41,1.5.5.81.37,1-.69,1a2.68,2.68,0,0,0-1.09.14c-.34.22.28,2.47.85,3.1s.44,1.12-.31,1-2.17.24-2.31.57.93,2.08,1.63,2.39a18.36,18.36,0,0,1,2.05,1.24c1.28.84,1.39,1,.9,1.06a2.25,2.25,0,0,1-1.1-.15,1.63,1.63,0,0,0-1.32.09c-.9.41-1.21.17-1.09-.86.06-.44,0-.84-.13-.9a6.84,6.84,0,0,0-2.71,1.65,1.67,1.67,0,0,1-.84.52,4,4,0,0,0-1.43,1.07c-.4.48-.78.75-.91.62-.39-.36.34-1.88,1.42-3s1.05-1.11,1-1.87a1.52,1.52,0,0,1,.43-1.31,3.56,3.56,0,0,0,1.07-2.49,1.87,1.87,0,0,1,.12-1.08c.34-.88.28-1-.63-1.18a1.37,1.37,0,0,0-1.4.42,5.08,5.08,0,0,1-1.44.91,2,2,0,0,0-1,.72c-.21.48-1.45,1.19-1.56.9a12.57,12.57,0,0,1,.81-2.4c1.2-3,1.66-4.57,1.69-5.74,0-1.46-.55-1.54-2-.27s-1.94,1.2-1.38,0a2.89,2.89,0,0,0,.25-1.42,2.27,2.27,0,0,1,.17-1.27c.32-.72.13-1.7-.35-1.73-.33,0-.65.21-1.62,1.14-.58.58-.75.61-.89.28a1.73,1.73,0,0,1,0-1.12c.27-.85-.27-1.4-1-1-.52.29-.86-.07-.59-.68.2-.44.08-.58-.9-.91a3,3,0,0,0-3.23.5,5.58,5.58,0,0,0-.92,1.11,1.13,1.13,0,0,1-.64.48c-.36.1-.53.36-.73,1s-.33.93-.84,1.06c-.81.22-.86.86-.14,1.55s.41,1.42-.56,1.22c-1.18-.24-1.49.41-.85,1.67a1.35,1.35,0,0,1,.18.95c-.08.18.07.54.33.78.54.56.21,1.23-.49,1a1.71,1.71,0,0,0-1.17.38c-.63.45-.67.56-.57,1.16a1.24,1.24,0,0,0,.31.77c.41.19-.19,1-1,1.3a1.91,1.91,0,0,0-1.13,1c-.38.86-2.26,2.81-2.59,2.66-.11-.05.06-.53.46-1.19,1.39-2.27,2.49-4.73,2.44-5.43a4.93,4.93,0,0,1,.55-1.86c.57-1.22.71-3.05.25-3.5-.14-.11-.73.23-1.39.75s-1.24.89-1.35.79a2.61,2.61,0,0,1,.39-1.35,5,5,0,0,0,.59-1.55,8,8,0,0,1,.5-1.57c.84-2.18-.09-2.57-1.72-.75-.53.61-1.07,1-1.18,1s.16-1.17,1-2.75c.35-.68.43-1.1.27-1.43s-.33-.44-1-.1c-1.16.53-1.51.08-.8-1,.56-.83.54-.86-.05-1-.36-.08-.62-.27-.61-.45,0-.34-1.67-1.15-2.24-1.06a2.42,2.42,0,0,0-.86.85,2.61,2.61,0,0,1-.8.85c-.14,0-.39.35-.58.77s-.48.7-.73.69-.48.18-.69.93-.36,1-1.08,1.25c-1,.32-1.25,1.2-.69,2.3s.1,1.31-1,.82c-.77-.32-.89-.29-1.2.23a1.83,1.83,0,0,0-.09,1.48,2.65,2.65,0,0,1,.13,1.22c-.06.16.13.53.44.85.74.81.31,1.49-.89,1.34-.59-.05-1,.06-1.15.33-.41.63-.08,2.65.59,3.84.43.8.51,1.21.3,1.67s-.43.62-.72.57c-2.09-.23-2.33-.05-1.53,1.18a1.74,1.74,0,0,1,.34,1.47c-.18.5-.08.75.4,1.15s.55.7.47,1,.07.61,1,1.18c1.44.85,1.65,1.37.55,1.29-.49,0-.89.11-1,.35s-.35.31-.94.05-.81-.24-.89-.06c-.19.41,1.08,3.8,1.59,4.19.25.19,1.46,1,2.67,1.72,2.33,1.5,3.49,2.6,3.26,3.13-.11.24-.33.19-.91-.2-2.22-1.5-3.19-1.93-3.57-1.68s-1.09.09-1.55-.52-1.07-.56-1.25-.16a.61.61,0,0,1-.63.24,1.13,1.13,0,0,0-.89.44c-.46.56-.19,1.31,1,2.91a2.86,2.86,0,0,1,.59,1.34,3,3,0,0,0,.61,1.28,13.6,13.6,0,0,0,3.52,3,58.67,58.67,0,0,1,8,4.67c1.25,1,1.8,2.13,1.12,2.25s-10.88-4.79-13.24-6.27c-2.57-1.6-3.23-2.53-3.66-5.22a26.37,26.37,0,0,1,.62-9.41,47.38,47.38,0,0,0,1-6.27c-.08-.54-.39-.44-1,.32-.37.41-.73.68-.79.59a5,5,0,0,1,.39-1.74,30,30,0,0,0,.81-3.27,10.92,10.92,0,0,1,.62-2.46,1.34,1.34,0,0,0-.47-1.82c-.15-.06-.68.36-1.18.95-1.18,1.39-1.34,1-.52-1.21,1.4-3.69,1.77-4.81,1.65-5.13-.19-.51-1.72.2-2.63,1.16-.42.47-.88.79-1,.74s0-.8.23-1.68c.49-1.73.44-2.49-.22-2.79-.29-.13-.49,0-.65.34a1.26,1.26,0,0,1-.69.64c-.36.1-.42,0-.41-.47a10.47,10.47,0,0,1,.15-1.1c.09-.32-.05-.54-.42-.71a2.14,2.14,0,0,1-.75-.55,6.19,6.19,0,0,0-3.39-.31,5.84,5.84,0,0,0-.9,1.52c-.48,1.07-.72,1.38-1.24,1.55s-.83.6-.85,1.59c0,.24-.32.54-.84.75-1,.41-1,.84-.23,2.27.61,1.11.38,1.91-.43,1.54-.44-.19-.59-.13-.79.31a4.17,4.17,0,0,0,.49,3.24c.64.63.59,1-.13,1.1a2.53,2.53,0,0,0-1.17.74c-.4.43-.7.56-1,.42s-.37-.4-.17-1.13a5.75,5.75,0,0,0,.23-1.74,16.37,16.37,0,0,1,.24-2.47c.31-1.87-.07-2.38-1.17-1.5-.85.67-1.1.5-1-.68a12.93,12.93,0,0,0,0-1.77c0-.46-.07-1.14-.08-1.57-.09-1.27-1.21-1.41-2-.23s-1.16.72-1.19-.93c-.05-1.36-.67-2-1.27-1.28a.58.58,0,0,1-.61.25.86.86,0,0,1-.33-.67c0-.76-.61-.93-1.17-.37l-.49.49-.26-.7c-.35-.81-.68-1-1.06-.63-.2.2-.43.18-.79-.12s-.62-.33-.81-.2a7.63,7.63,0,0,0-1.17,3.32,1.05,1.05,0,0,1-.44.93c-.41.32-.4.48,0,1.42l.46,1.07-.72.39c-.9.47-.87.82.25,2.14.41.5.72,1,.67,1.09a1.47,1.47,0,0,1-.79.28,1.27,1.27,0,0,0-.95.65c-.13.28-.34.53-.51.56s-.42-.3-1.09-2.39a3.51,3.51,0,0,0-.87-1.57.7.7,0,0,1-.34-.76,1.42,1.42,0,0,0-1-1.82c-.67-.16-.79-.3-.86-1-.12-1.08-.68-1.54-1.42-1.18-.55.3-.58.29-.76-.29a1.46,1.46,0,0,0-.59-.8,1.26,1.26,0,0,1-.52-.89c-.13-.82-.82-1.23-1.26-.77a5.76,5.76,0,0,0-.7,1.84c-.37,1.47-.44,1.57-1,1.7s-.6.26-.56.7a1.86,1.86,0,0,0,.31.85c.22.2.17.44-.17.95s-.39.77-.06,1.55c.45,1,.41,1.37-.17,1.32-.22,0-.43.07-.47.16a10.52,10.52,0,0,0,1.54,3.84c.46.21.28.6-.44.91-.49.23-.52.29-.24,1.37a2.55,2.55,0,0,0,.85,1.44c.62.38.55.71-.23,1.05-.53.23-.53.29-.25,1s.75,1.07,2.6,2.35c3.33,2.26,4.46,3.14,4.42,3.51s-1.67-.32-4-1.88c-2.15-1.42-2.71-1.93-3.2-3a57.3,57.3,0,0,1-2.39-6.79,4.69,4.69,0,0,0-.79-1.83c-.39-.31-.72-1.51-1.32-4.51-.08-.57-.11-.58-.75-.37s-.64.19-1-.78-1.09-1.56-1.53-1.1-.93.08-1.06-.51a1.6,1.6,0,0,0-.7-.84,5.78,5.78,0,0,1-1.28-1.2c-1.47-1.82-1.87-1.29-1.63,2.21a3.18,3.18,0,0,1-.3,1.21,1.73,1.73,0,0,0,0,1.49,1.16,1.16,0,0,1-.06,1.3c-.49.67-.41.92.84,2.35a9.43,9.43,0,0,1,1.07,1.32,1.94,1.94,0,0,1-.45.4c-.31.23-.31.57,0,1.68a2.76,2.76,0,0,0,1.3,1.9,2.12,2.12,0,0,1,1.09,1.38c.26,1,0,1.68-.51,1.43-1.53-.69-4.06-6-4.88-10.17a19.82,19.82,0,0,0-.53-2.26,2.71,2.71,0,0,0-.63,0c-.44,0-.57-.13-.81-.89a1.82,1.82,0,0,0-1-1.24,1.77,1.77,0,0,1-.9-.93,1.53,1.53,0,0,0-1.73-1,3,3,0,0,0-1,2.57,2.44,2.44,0,0,1-.18,1.28,1.72,1.72,0,0,0,.06,1.51,2.27,2.27,0,0,1,.17,1.39,4.65,4.65,0,0,0,.07,1.9c.24,1.21.08,2.51-.27,2.35a9.76,9.76,0,0,1-2-3,11,11,0,0,0-1.21-2.07,4,4,0,0,1-.71-1.63c-.31-1.41-.41-1.56-1-1.64a1.68,1.68,0,0,1-.86-.78,2.63,2.63,0,0,0-1.84-1.54c-.8-.14-1.24.37-1.2,1.39a3.28,3.28,0,0,1-.17,1.32,1.13,1.13,0,0,0,.08,1,1.08,1.08,0,0,1,.06,1.05,1.75,1.75,0,0,0-.07,1.15c.42,1.35-1,.44-1.66-1.06a2.65,2.65,0,0,0-.75-1.12,3.33,3.33,0,0,1-.77-1.4,3.17,3.17,0,0,0-.92-1.47,2,2,0,0,1-.75-.73,1.18,1.18,0,0,0-1.67-.62,1.12,1.12,0,0,0-.3,1.55.73.73,0,0,1,.06.74,2.19,2.19,0,0,0,0,1.2c.3,1.25,0,1.49-.75.61a11.54,11.54,0,0,1-1.12-1.55A2.79,2.79,0,0,0,288,287a1.82,1.82,0,0,1-.55-.77,8,8,0,0,0-2.95-2.38c-.68-.31-.79.52-.27,2.17.87,2.76.53,2.74-1.94-.13-1.66-1.93-2.63-2.64-3.16-2.29-.14.09-.12.5.1,1,.5,1.05.08,1.51-.7.79l-1.18-1c-.66-.59-1.24-.69-1.44-.25s-1.05,0-1.66-.77c-1-1.26-2.45-1.34-2.13-.12.14.46.06.45-.82-.1-.7-.45-1-.55-1.35-.4a1.77,1.77,0,0,1-1.18-.13c-1-.45-2.28-.37-2.53.2A.66.66,0,0,0,266.33,283.44Zm72.9,13.9c.55.24,1.16.83,1.07,1s-1.18.28-1.48,0S338.86,297.17,339.23,297.34Zm.32,4.09a3.16,3.16,0,0,1,.78.74,3.82,3.82,0,0,0,1.14.91,2.56,2.56,0,0,1,.88.63c.26.41-.18.74-.7.5a1,1,0,0,0-1.34.8c-.08.49.24.95,1.74,2.46a12.49,12.49,0,0,0,4.38,3.21c2.51,1.31,3.55,2,3,2.11a34.09,34.09,0,0,1-6.22-2.09,5.15,5.15,0,0,1-2.62-2,5.37,5.37,0,0,1-1.07-2.08c0-.44-.17-1.68-.29-2.76C339,301.71,339.07,301.21,339.55,301.43Zm-6.78,23.19a1.94,1.94,0,0,1,1.07.25c.46.44,0,.75-1,.62-1.22-.15-1.27-.17-1.09-.57C331.87,324.75,332.33,324.61,332.77,324.62Zm4.33-4c.54-.26.71-.24,1.16.17s.52.61.5.76-1.35.26-2,0C336.21,321.25,336.32,321,337.1,320.6Zm4-3.48c.91-.75,1.86-.63,1.52.13-.14.31,0,.54.36.77.94.55.57.91-.77.79a4.09,4.09,0,0,0-1.48,0,.7.7,0,0,1-.55,0C339.73,318.62,340.13,317.9,341.09,317.12Zm13.35-16.53c.9,0,.88,1.6,0,1.94s-1-.07-.48-1.69A.51.51,0,0,1,354.44,300.59Zm-.23,3.26a2.49,2.49,0,0,1,1,1,12.4,12.4,0,0,0,1.87,2.05c.74.64,1.19,1.22,1.08,1.35a2.23,2.23,0,0,1-1.1.22,5.19,5.19,0,0,0-2.78.85c-.44.46-.86-.49-.73-1.7a12.43,12.43,0,0,0,0-2.2C353.44,304.22,353.63,303.73,354.21,303.85Zm-9,26.7a1.12,1.12,0,0,0,.61-.49,9.37,9.37,0,0,1,1.24-1.53c1.13-1.22,1.72-1.3,1.66-.23,0,.49.12.72.63.95.35.15.6.4.56.51s.31.35,1,.57c1.11.34,1.58.87.85,1a27.86,27.86,0,0,1-4.17-.16c-.5-.07-1-.06-1,0a3.44,3.44,0,0,1-2,.66C344.16,331.66,344.62,330.71,345.19,330.55Zm9-19.38c.11.05.84.7,1.68,1.41a32.13,32.13,0,0,0,7.46,4.78,15.11,15.11,0,0,1,3.58,2.24c.38.43.59.79.49.82-.35.14-9.91-4.29-10.9-5-1.94-1.48-3-3.07-2.64-3.9C354,311.28,354.12,311.13,354.21,311.17Zm-2.86,14.38a27.28,27.28,0,0,1,6.63-4.26,6.45,6.45,0,0,1,4-.64c2.06.16,2.13.19,5.53,1.88,4.15,2,5.84,3,5.88,3.32s-.82.11-4.16-1.29c-4.62-1.91-7.62-2.31-10.56-1.4a8.62,8.62,0,0,1-1.83.39c-.87.06-1.07.31-.54.79a.68.68,0,0,1,.19.74c-.18.4.57,1.07,2,1.78.71.35.76,1.29,0,1-.22-.09-1.52-.49-2.92-.88-2.11-.58-2.54-.62-2.69-.29a2.94,2.94,0,0,1-2.31.51C350.22,327,350.5,326.46,351.35,325.55Zm7.27,16.06c.31-.1.74-.78,1.54-2.37q1.9-3.92,1.83-1.57c0,1.07.24,1.16.87.36a105.36,105.36,0,0,1,7.74-7.39c1.92-1.64,2.3-1.83,3.82-2.18,1.86-.4,4-.45,4.35-.12.13.11,2,.91,4.12,1.77,3.59,1.45,4.06,1.69,5.95,3.12a24.67,24.67,0,0,0,2.66,1.8,4.58,4.58,0,0,1,1.12.79c.47.48.48.51,0,.62-1.08.25-3-.59-5-2.11a14.59,14.59,0,0,0-4.79-2.57,16.81,16.81,0,0,0-5.42-1.41c-2.23-.24-2.53-.22-2.66.23s-.36.52-1,.51c-1.42,0-3.49.75-3.54,1.28a.84.84,0,0,0,.51.68c.41.18.47.34.29.76a.64.64,0,0,0,.25.9c.62.49,1.24,2,.87,2.1a3.94,3.94,0,0,1-1.2,0c-1.38-.15-7.39,1.32-7.64,1.88,0,.09.09.28.24.46a2.92,2.92,0,0,1,.59.74.68.68,0,0,0,.83.37c.81-.09,1.35.18,1,.54-.52.53-.25.73,1.65,1.08a12.77,12.77,0,0,1,1.91.49c.13.35-.65.39-2.83.15-3.3-.38-4.84-.3-5,.22-.08.3-.26.35-.66.18a2.18,2.18,0,0,0-1.68.29c-1.37.65-1.68.57-1.38-.44.12-.39.23-.81.26-.88S358.39,341.66,358.62,341.61Zm-5,25.22a3.6,3.6,0,0,1,1.31-.86,3.8,3.8,0,0,1,.11,2.16,3.52,3.52,0,0,1-1.3.44C351.86,369,351.82,368.46,353.6,366.83ZM392.93,298c.75.34,1.18,1.08.76,1.37a2.46,2.46,0,0,1-1.82-.4,1,1,0,0,1,.08-.78C392.16,297.76,392.3,297.75,392.93,298Zm-1.46,3c.13-.07.53.63.9,1.51.58,1.39.8,1.67,1.54,2,1.16.52,2.39,1.6,2.23,2-.08.17-.51.14-1.21-.13s-1.15-.3-1.49,0a1.35,1.35,0,0,1-1,.3,5.78,5.78,0,0,0-1.5,0c-.83.08-1.1.27-1.79,1.22a4.89,4.89,0,0,1-1.3,1.31c-.41.16-.27-.22,1.16-3.11a18.38,18.38,0,0,0,1.46-3.48C390.35,302.37,391.11,301.16,391.47,301Zm-21.62,54.56a3,3,0,0,1,.19,2.33.83.83,0,0,1-.82,0c-.51-.22-.52-.31-.06-1.34C369.44,356,369.74,355.52,369.85,355.57Zm21.55-45.33a6,6,0,0,1,1.77,1.74,2,2,0,0,0,1,.82,21.54,21.54,0,0,1,3.38,2.2c.28.21.35.4.19.46s-.67-.2-1.19-.59c-1.15-.88-2.59-1.24-3-.75a1.07,1.07,0,0,1-1,.21,1.66,1.66,0,0,0-1,.08,1.65,1.65,0,0,1-1.11-.05l-.79-.28.51-1.48c.28-.82.6-1.7.71-2S391.22,310.16,391.4,310.24ZM390,315.38a2.1,2.1,0,0,1,.77,2c-.22.48,1.25,2.25,2.65,3.22,1.11.76,1.74,1.76,1.44,2.2-.19.26-.5.23-1.34-.13-1.59-.68-1.61-.69-2-.08s-.45.54-1.18.29-.88-.21-1.17.26a.66.66,0,0,1-.95.37c-.52-.16-.6-.32-.51-.76C389.08,315.86,389.32,315.1,390,315.38Zm-13.58,33.68a3.91,3.91,0,0,1,.23,1.37,1.46,1.46,0,0,0,.45,1.22c.35.21.53.11,1.17-.73a9.28,9.28,0,0,0,1-1.53,1.32,1.32,0,0,1,.68-.62c.39-.11.45,0,.38.68s0,.82.72,1.08.81.42.86.84a2.38,2.38,0,0,0,.2.8,2.78,2.78,0,0,0,2,.8c.45,0,.72.09.71.24-.09,1,0,1,2.11,1.63a9.78,9.78,0,0,1,2.07.72c.3.8-5.44-.41-8.49-1.78-1.84-.83-2.06-.87-2.22-.5s-.43.31-1.82-.18a8.08,8.08,0,0,1-1.76-.77,6.65,6.65,0,0,1,.67-2C376.08,348.79,376.19,348.66,376.38,349.06Zm-3,9.14c1.14.51,1,.8-.37.6-.82-.11-1-.29-.78-.78C372.29,357.83,372.63,357.88,373.35,358.2ZM388,325.58a1.39,1.39,0,0,1,.61.8,1.72,1.72,0,0,0,1,1c.89.4,1.13.69,1.07,1.35-.07,1,2,2.3,8.51,5.56l4.87,2.4.94,1.53a10.77,10.77,0,0,1,.89,1.6,3.89,3.89,0,0,0-.06.53c0,.26-.1.35-.17.22s-2.76-1.77-8.1-4.77c-5-2.83-8.79-5.27-9.24-6.08a8.72,8.72,0,0,1-.88-3.92A.42.42,0,0,1,388,325.58Zm-5,18a47.81,47.81,0,0,1,3.34-3.56l2-1.9,2.05-.16c5.53-.43,8.55.71,16,6.13,1,.78,2.23,1.66,2.67,2l2.36,1.77c2.68,1.94,3.06,2.27,2.92,2.58s-2.25.2-3.36-.3a38.93,38.93,0,0,1-6.43-5.15c-2.17-2-2.71-2.3-6.15-3.53a6.4,6.4,0,0,0-2.82-.64,5,5,0,0,1-2.51-.46c-1.46-.5-2-.59-2.7-.37a2.62,2.62,0,0,1-1.18.1c-1-.44-1.73.88-1,1.78a1.12,1.12,0,0,1,.31,1.06c-.18.42,0,.66.54.8a2,2,0,0,1,.69.41c.37.27.39.47.08,1s-.33.69.5,1.35c.66.51.84.77.69,1.1s-.32.36-1.49-.25-1.32-.64-1.8-.22-.55.41-1.85-.33-1.38-.73-1.94-.38-2.44.35-2.74-.1c-.12-.15,0-.44.17-.68S382.26,344.46,383,343.54Zm-4.56,33.35c.59.11.58.13,1.25-2.54s3.07-7.71,4-8.45l.63-.51-.17.71c-.07.39-.19,1.07-.25,1.5a5.32,5.32,0,0,1-.43,1.54,1.72,1.72,0,0,0-.08,1.36,1.76,1.76,0,0,1-.06,1.31c-.23.5-.24.87,0,1.16a2.51,2.51,0,0,1,.37,1.22c0,.75,0,.8-.52.87a1,1,0,0,0-.68.35c-.07.16-.47.29-.9.31-1.39.09-1.53.65-.77,2.58a4.72,4.72,0,0,1,.24,1.11c.08.58,0,.75-.22.74a28.16,28.16,0,0,1-3.6-1.72,4.1,4.1,0,0,1,.32-.83C377.89,377,378.09,376.83,378.46,376.89Zm32.09-64.76a3.49,3.49,0,0,0,.88-1.79,5.1,5.1,0,0,1,1.18-2.2c.74-1.07,1.11-1.72,1-1.83s.2-1.2.58-1.24c.15,0,.41.21.55.54a8.42,8.42,0,0,0,1.15,1.78,11.91,11.91,0,0,0,1,.72c.45.31.67.56.49.56a2.35,2.35,0,0,0-.81.56.83.83,0,0,1-1,.27,2.68,2.68,0,0,0-1.38,0c-1,.29-1.17.85-.35,1.61.3.32.48.69.38.91-.26.56.06,1.1.85,1.45.48.22.72.49.74.87s.21.54.41.55a1,1,0,0,1,.63.36c.23.31.19.4-.43.73a2.78,2.78,0,0,1-2.54,0,.91.91,0,0,1,0-.9c.43-1,.2-1.56-.68-1.72-.52-.08-.82,0-1,.4a2.51,2.51,0,0,1-.92.74,11.13,11.13,0,0,0-3,3.85c-.47,1.05-1.14,1.65-1.09,1a29.51,29.51,0,0,1,2.09-5.11C409.46,313.75,410.1,312.8,410.55,312.13Zm-25.11,61.29c.7-.61.72-.6,1.64.05.4.29.56.57.44.83s.1.6.6,1.06c1.07,1,1,1.15-.41.74a16.9,16.9,0,0,0-2.13-.51C383.87,375.35,383.83,374.86,385.44,373.42Zm9.22-14c.6-.52,1.13-.81,1.17-.66a3.57,3.57,0,0,1-.72,1.42c-.61.88-.8,1.32-.74,1.72a3.68,3.68,0,0,1-.39,1.56c-.37.83-.41,1.16-.16,1.53s.25.62-.12,1.14-.37.72.05,1.3c.29.4.59.61.72.51.41-.26.79.12.79.75a2,2,0,0,0,.66,1.24,1.71,1.71,0,0,1,.6,1.07c-.11.82.35,1.31,2,2.21,1.43.75,1.6.9,1.48,1.35a1,1,0,0,1-.59.6c-.6.16-2.2-1.19-4.19-3.56-1.41-1.72-1.54-1.8-1.83-1.43s-.4.29-.7,0a12.69,12.69,0,0,0-1.39-1.07c-.55-.41-1.11-.82-1.22-.92s.2-1.09,1.63-4C393.42,360.64,393.69,360.23,394.66,359.4ZM412,320.53a5.92,5.92,0,0,1,.78.74,5.06,5.06,0,0,0,1.32,1c.52.24.61.38.45.76s-.1.51,1.18,1c2.46,1,3.25,1.44,3.08,1.81s-.45.19-1.66-.35c-1.77-.8-2.27-.86-2.5-.34-.13.29-.51.3-1.56.07-1.21-.29-1.41-.27-1.6.17s-.36.44-.73.33c-1.06-.29-1-.46.07-2.91A12.35,12.35,0,0,1,412,320.53Zm-2.58,6.87a.44.44,0,0,1,.13.59c-.14.3,0,.54.41.84s.55.53.41.84,0,.55.84,1.06a7.86,7.86,0,0,0,1.67.8,1.76,1.76,0,0,1,1,.73,2.12,2.12,0,0,0,.74.75c.63.29.25.61-.69.59-.68,0-.91.09-1,.43s-.25.44-1.23.21c-.83-.19-1.26-.18-1.62.14a2.41,2.41,0,0,1-.83.44,2.56,2.56,0,0,0-.83.45,1.24,1.24,0,0,1-1,.27c-1-.29-.49-3.83,1-7C408.91,327.56,409.12,327.28,409.38,327.4Zm-1.6,9.25a2.38,2.38,0,0,1,.71,1.17c.13.58.29.76.84.88s.67.22.5.59,0,.72,1.21,1.41c.42.24.47.42.22,1l-.29.66,1.86.83c1.86.84,1.86.84,1.66,1.46a.75.75,0,0,0,.34,1,8.74,8.74,0,0,0,4.18,1.53,13.47,13.47,0,0,1,8.31,4c.87.94,1.81,3.31,1.49,3.77s-1.28.06-3.76-1.53c-1.16-.76-3.08-1.86-4.26-2.47-4.49-2.3-11.75-7.77-13-9.8a9.87,9.87,0,0,1-.8-4.36C407.21,336.32,407.3,336.31,407.78,336.65Zm-7.68,25.77a.94.94,0,0,0,.66-.59c.24-.53,1.18-1.76,4.67-6.07a13.89,13.89,0,0,1,2.6-2,8,8,0,0,1,3.63-1.34c4.72-.6,5.39-.45,10.45,2,4.88,2.38,5.11,2.56,4.67,3.31-.28.46-.41.5-.95.18-3-1.72-4.13-2.22-4.27-1.92-.28.62-1.21.65-2.81.11s-2.17-.55-2.61.12a.7.7,0,0,1-.75.32c-1-.26-1.87-.18-2.12.21s-.47.34-1.19.07a2.53,2.53,0,0,0-2.59.2c-.57.46-.49,1,.21,1.59a1.65,1.65,0,0,1,.25,2.25c-.41.5-.51.48-2.05-.13l-1.6-.64-2.11.71c-2.25.78-2.77,1.29-2.06,2.13a1.72,1.72,0,0,1,.38,1c0,.38.15.62.61.83a1.37,1.37,0,0,1,.8,1.07c.16.76.3.87,1.67,1.51s1.46.79,1.49,1.25.29.71,1.2,1.25,1.22.86,1.25,1.27.19.62,1.84,1.22a25,25,0,0,0,3.64.93,8.46,8.46,0,0,1,2.19.51c.7.5-1.06.73-2.8.37s-6.5-2.34-7-2.95a26.23,26.23,0,0,0-3.91-4,9.9,9.9,0,0,1-2.83-2.5,1.62,1.62,0,0,0-.81-.6c-.68-.31-.72-.38-.45-1C399.59,362.67,399.87,362.4,400.1,362.42ZM424.53,368a3.65,3.65,0,0,0,1.34,0,21.12,21.12,0,0,1,5.7.27c1,.46-.67,1.09-3.49,1.27a8.18,8.18,0,0,1-5-1.12C422.64,368.2,424,367.8,424.53,368Zm10.34-5.25c.36.24,1.41.89,2.31,1.46,2.61,1.64,4.65,3.19,4.84,3.7s-1.31.59-3-.05-1.68-.65-3.12-2.53c-.82-1.06-1.57-2.08-1.67-2.28C433.9,362.47,434.2,362.32,434.87,362.78Zm.61,7.43a27.57,27.57,0,0,1,3.73.07,4.71,4.71,0,0,1,1,.21,4.36,4.36,0,0,0,1.58,0c3-.47,2.36-.62,7.48,1.74C457,375.83,461,378,465.1,380.91c2,1.42,4.85,3.26,6.26,4,3.53,2,3.54,2.25,0,2l-2.25-.2-1.26-1.25c-3.61-3.57-6-5.31-8.65-6.28-2-.73-3.82-.77-4.12-.09-.19.42-.46.43-1,.09a11.37,11.37,0,0,0-4.23-.32,1.56,1.56,0,0,0-1,.71c-.19.41-.45.48-1.54.38-2.12-.21-3,0-3.72.83a1.81,1.81,0,0,1-1.26.75c-.77,0-4.92,1.82-5.1,2.21a5.85,5.85,0,0,1-2.19.89c-2.87.84-3.1.92-3.31,1.41s-2.48,1.7-2.85,1.53,1.12-2.49,1.85-3.06c.89-.7,2.17-3.79,2.27-5.4a7.24,7.24,0,0,1,.38-2,8.3,8.3,0,0,0,.4-2.06,8.49,8.49,0,0,1,.59-2.49,4.24,4.24,0,0,0,.42-1.53C434.69,370.43,434.79,370.32,435.48,370.21Zm30.42-24.95c.32-.36,1-1.18,1.41-1.84.8-1.14.85-1.2,1.66-1,.45.12,1.27.28,1.79.36a19.49,19.49,0,0,1,6,2.41c1,.89.67,1.09-.67.49a11.42,11.42,0,0,0-4.93-1.08,9.49,9.49,0,0,0-4.77,1.83c-.64.71-.67.78-.38,1.36s.3.63-.59,1.73c-1.76,2.16-2.16,2.64-2.54,3.2-.22.3-.47.45-.55.34C462.13,352.7,465.16,346,465.9,345.26Zm-15,40.64c.76,0,1.28.48,1.12,1.14-.07.26-.35.29-1,.12a2.57,2.57,0,0,1-1.1-.49C449.66,386.32,450.13,386,450.91,385.9ZM467,357.37a13.48,13.48,0,0,1,1.24-1.87c.11-.08.47.24.77.69.51.78.68.88,1.88,1.14s1.35.34,1.42.76.25.51,1.3.69c2,.36,2.13.46,1.89,1.17s-.22.66-1.9.38c-.76-.13-1.08-.06-1.22.24s-.35.37-.85.15a2.12,2.12,0,0,0-1.77.12c-1.61.6-1.88,1.66-.61,2.23.7.32.86.62.41.84-.61.31-.05,1,.87,1.08,1.14.09,1.43.27,1.21.75s.77,1.16,2.78,2.07c.66.29,1,.57,1,.72-.2.44-1.1.51-1.92.17-1-.45-1.56-.34-1.84.28-.2.46-.31.46-1.24,0-.62-.33-1-.44-1.11-.28a3.55,3.55,0,0,1-1.26.62c-1,.34-1.13.41-1,.92a3.08,3.08,0,0,1,.14,1,.65.65,0,0,0,.3.61.42.42,0,0,1,.14.57c-.23.52,0,1,.85,1.64.54.43.64.68.5,1.22-.22.91.56,1.57,1.86,1.6,1,0,1.15.2.84.88s.69,1.39,2.6,2.07l1.43.51-.54.91c-.48.84-.49,1-.05,1.29a15.06,15.06,0,0,0,4.25,1.49,25.23,25.23,0,0,1,2.57.5c1.12.24,3,.6,4.17.79,2.53.4,3.42.75,4.18,1.7.57.67,2.37,5.27,2.2,5.64,0,.09-.51-.07-1.08-.4s-3.14-1.68-5.8-3a120.7,120.7,0,0,1-15.06-8.66c-5.29-3.51-6.54-4.7-6.76-6.51,0-.49-.29-2.29-.51-4l-.38-3.07.85-2.37A37.63,37.63,0,0,1,467,357.37Zm-12.42,30.11a3,3,0,0,1,1.64,0,8.11,8.11,0,0,0,2.67.15c6.05-.41,7.83-.43,7.64,0s-3,.8-6.75,1.26c-2.83.31-3.19.3-4.71-.24-.9-.33-1.59-.67-1.55-.78A2.53,2.53,0,0,1,454.59,387.48Zm12,10c.55.25.91-.43.93-1.82,0-.91.07-1,.69-1.24.91-.39,1.68-1.59,1.4-2.14s0-1.16.74-1.4,1-.74.35-1c-1.29-.58-.15-1.46,1.54-1.18a7.47,7.47,0,0,0,2.11,0c1.09-.2,1.25-.15,4.68,1.31,2,.83,4.74,2.1,6.19,2.86,2.28,1.18,2.66,1.46,2.85,2,.35,1.05,0,1.1-1.68.24s-2.58-.89-3.54.15c-.79.88-1,.93-2.26.38a3,3,0,0,0-3.25.22,3,3,0,0,1-3.06.36c-.83-.26-1.13-.24-1.59.14-.31.28-.65.44-.73.4a13.84,13.84,0,0,0-3.52.63c-.84.52-.41,1,.94,1,.29,0,.41.16.34.47s0,.51.92.65c.56.1,1,.26,1.09.39.15.33-1,.77-1.49.57a6,6,0,0,0-3.35-.11c-.73.35-1.15-.07-1.15-1.18C465.78,397.85,466.09,397.22,466.61,397.46Zm16.89-35.32c1.14.52,3.53,3.64,3,3.86-.13.05-.69-.41-1.24-1.06s-1.29-1.45-1.68-1.83C482.85,362.38,482.8,361.83,483.5,362.14Zm4.48-4c.26,1,.15,1.65-.26,1.81s-.45-1.34-.11-2.11C487.77,357.4,487.81,357.42,488,358.1Zm-23,65.58c.51-.25.51-.25.19.34-.2.33-.5.59-.69.59C464.05,424.55,464.34,424,465,423.68Zm10.39-11.29a31.66,31.66,0,0,0,6.44-.34,16.91,16.91,0,0,1,2.6-.28c.51.23-.08.54-2.12,1.2a14.06,14.06,0,0,1-7,.36c-.78-.19-.92-.31-.79-.59A1,1,0,0,1,475.36,412.39Zm14.72-30.84a.56.56,0,0,1,.06.45c-.06.13-.18.1-.26,0a.5.5,0,0,1-.06-.45C489.88,381.41,490,381.42,490.08,381.55Zm-6.87,22.68c1,.07,1.56.23,1.66.46.22.39-.25,1.55-.64,1.61s-2.93-1.74-2.73-2A3.87,3.87,0,0,1,483.21,404.23Zm7.45,4.16a54.87,54.87,0,0,0,7.4-1.12c1.59-.39,1.5,0-.13.7-2.35,1-6.94,1.49-8.27.89C489,408.56,489.2,408.47,490.66,408.39Zm-.58,3.87c1.42-.94,3.75-1.55,3.45-.89a17,17,0,0,1-3.59,2.2c-.59.19-1.05-.07-.85-.51A4.78,4.78,0,0,1,490.08,412.26Zm8.66-11.84c.45.41,1.69,1.33,2.73,2.06,3.63,2.48,5.07,3.6,5,3.9-.06.61-2.41.34-4.21-.47a5.18,5.18,0,0,1-2.73-2.17c-1.31-1.72-2.34-3.82-2-4C497.77,399.72,498.25,400,498.74,400.42Zm-7,15.72a.7.7,0,0,1,.24,1.18c-.32.23-.66,0-.92-.6S491.08,415.82,491.78,416.14Z" transform="translate(-253.83 -46.87)"/><path class="cls-7" d="M499.6,396.22c.41.19.46.15.27-.14-.29-.47-.53-.58-.66-.29C499.17,395.9,499.34,396.1,499.6,396.22Z" transform="translate(-253.83 -46.87)"/><path class="cls-8" d="M676.65,138.21c-2-6.4-4.8-13.7-14-13.7-5.8,0-9.6,4.1-9.6,9.7s3.7,8.81,12.5,13.21c10.7,5.3,17.5,10.5,17.5,20.4,0,11.8-9.8,20.4-24.1,20.4-6.4,0-12.1-1.7-16.8-3.1-.6-2.3-2.3-12.7-3-17.4l3.9-.9c2,6.3,7.6,17.2,17.4,17.2,6.1,0,9.8-3.8,9.8-10.2,0-5.8-3.6-9.2-12-13.7-10.4-5.6-17.2-10.6-17.2-21s8.2-18.8,23.2-18.8c6.9,0,12.1,1.5,14.3,1.8.4,3.7,1.1,8.9,1.9,15.2Z" transform="translate(-253.83 -46.87)"/><path class="cls-8" d="M745.75,139a30.83,30.83,0,0,0-4.3-9.8c-1.8-2.1-2.6-2.9-8.5-2.9h-6.4v47c0,8.4,1,9,9.9,9.7v3.7h-33.2V183c8.5-.7,9.4-1.3,9.4-9.7v-47h-6.1c-5.6,0-7.2.9-9.1,3.3-1.4,1.9-2.8,5.5-4.1,9.5h-3.8c.7-7.3,1.4-15.1,1.6-19.9h3c1.5,2.3,2.7,2.5,5.7,2.5h40a6.61,6.61,0,0,0,5.8-2.5h2.9c.1,4.2.5,13,1,19.5Z" transform="translate(-253.83 -46.87)"/><path class="cls-8" d="M811.45,169.72c-.5,2.7-3.3,14.2-4.2,17h-51.9v-3.6c9.1-.9,9.7-1.4,9.7-9.8V135.11c0-8.5-1.2-9.1-8-9.7v-3.7h32.5c10.5,0,14-.1,15.4-.2.1,1.8.6,10,1,16.2l-3.9.5c-.9-3.4-2.6-7.5-4.3-9.3-1.8-2-3.1-2.6-8.2-2.6h-6.5c-3.8,0-4.2.2-4.2,3.6v20.91h9.8c5.6,0,6.6-1.5,8.1-8.61h3.9v22.31h-3.9c-1.6-7.4-2.4-8.6-8.2-8.6h-9.7v17.2c0,6.9.2,9,6.4,9.1h7.1c5.6,0,7.1-.7,9.3-3.4a44.65,44.65,0,0,0,6.1-10Z" transform="translate(-253.83 -46.87)"/><path class="cls-8" d="M855.05,186.72V183c6.3-.9,6.3-2,4.9-6.3-1-3-2.6-7.5-4.1-11.5h-19.5c-1.1,3.1-2.5,6.9-3.5,10-2.1,6.3.3,7.1,8.2,7.8v3.7h-24.7V183c6.3-.8,7.9-1.7,11.3-10.1l20.8-51.71,4.8-.9c6.4,17.4,13.2,35.21,19.7,51.91,3.7,9.3,4.6,10,11.1,10.8v3.7Zm-8.8-47.8c-2.9,7.2-5.7,13.9-8.2,21.2H854Z" transform="translate(-253.83 -46.87)"/><path class="cls-8" d="M939.05,186.72V183c7.6-.8,8.1-1.5,8.1-10.5l-.1-39c-7.2,17.21-15.1,36.21-22.3,53.21h-3.3c-6.5-16.3-13.6-34.9-20.8-52.41-1.3,31.41-1.3,37.61-1.3,41.21.1,5.4,2.1,6.8,9.6,7.5v3.7h-24.8V183c5.7-.5,8.3-1.6,9.1-7.6.4-3,.8-8.7,3.1-41.71.3-4.8-.4-7.5-9-8.3v-3.7H909l19.3,44.11,19.4-44.11h21.1v3.7c-8,.8-8.9,1.6-8.7,9.6l.8,37.51c.1,9,.5,9.4,8.6,10.5v3.7Z" transform="translate(-253.83 -46.87)"/><path class="cls-8" d="M420.56,245.41c-7.2.9-8.5,2.4-11.3,10.6-2.6,7.71-10.1,31.41-16.4,51.81h-5.6c-5.1-14.4-10.8-29.2-16.5-44.2-5.2,15.1-10.2,29.7-14.9,44.2h-5.8c-4-14.1-10.4-34.8-16-52.51-2.5-7.6-4-9.3-10.1-9.9v-3.7h30.2v3.7c-7.5.7-7.7,2.2-6.3,7.4,3.3,11.51,6.8,23.21,10.1,34.11,5.1-14.1,9.9-29.21,14.5-44.71h5.3c5.5,15.3,11.2,30.21,16.7,44.81,3.7-10.8,8.5-27.51,9.9-33.21,1.4-5.9.4-7.7-8.2-8.4v-3.7h24.4Z" transform="translate(-253.83 -46.87)"/><path class="cls-8" d="M457.86,240.31c18.5,0,33.6,13.5,33.6,33.21,0,21.3-15.2,34.7-34.1,34.7-20,0-34.5-14.6-34.5-33.9C422.86,257.21,435.06,240.31,457.86,240.31Zm-1.5,4.4c-10.2,0-17.7,10-17.7,27.71,0,16.9,6.7,31.4,20.2,31.4,9.5,0,16.9-9.2,16.9-27.5C475.76,256.51,468,244.71,456.36,244.71Z" transform="translate(-253.83 -46.87)"/><path class="cls-8" d="M563.06,307.32c-.6,0-1.8,0-3-.1-12.7-.6-16.4-3.3-19.4-7.5-4-5.5-6.9-11.6-10.3-17.6-1.5-2.7-2.9-3.3-6.1-3.3l-2-.1v14.6c0,8.1,1,8.8,8.5,9.7v3.7h-30.6V303c7.6-.8,8.5-1.6,8.5-9.7V255c0-7.9-1-9-8.5-9.6v-3.7h29c8.9,0,14,1,18.1,3.8s6.7,7.1,6.7,13.3c0,8.91-5.9,13.61-12.5,16.21,1.5,3,5.4,9.5,8.4,14.1a80.82,80.82,0,0,0,7.6,10.4c2.3,2.6,3.4,3.4,6.3,4.4ZM525,274.62c4.3,0,7.6-.7,9.8-2.6,3.3-2.8,4.7-6.6,4.7-11.71,0-10.6-6.1-14.4-11.7-14.4-2.7,0-4,.4-4.6,1s-.9,1.8-.9,3.8v23.91Z" transform="translate(-253.83 -46.87)"/><path class="cls-8" d="M567.25,241.71h30.31v3.7c-7.2.9-8.3,1.4-8.3,9.8V272c2.1-.6,4.5-2.2,7.8-5.3a163.3,163.3,0,0,0,14.2-15.91c2.4-3.1,1.8-4.6-2.8-5.2l-1.9-.2v-3.7h26.2v3.7c-6.9.9-10.6,1.4-16.9,8.2-3.9,4.1-8.8,9.1-13.2,13.91,6.3,8.8,14.1,19.5,21.8,29.2,3.7,4.8,5,5.5,10.1,6.3v3.7h-19.9c-4.2-5.7-13-17.8-20.1-27.9-2.1-3-3.7-3.6-5.3-3.3v17.7c0,8.5.7,8.8,8.4,9.8v3.7H567.25V303c7.5-.8,8.51-1.3,8.51-9.8v-38c0-8.4-1-9.1-8.51-9.8Z" transform="translate(-253.83 -46.87)"/><path class="cls-8" d="M712.76,289.72c-.5,2.7-3.3,14.2-4.2,17H656.65v-3.6c9.1-.9,9.7-1.4,9.7-9.8V255.11c0-8.5-1.2-9.1-8-9.7v-3.7h32.51c10.5,0,14-.1,15.4-.2.1,1.8.6,10,1,16.2l-3.9.5c-.9-3.4-2.6-7.5-4.3-9.3-1.8-2-3.1-2.6-8.2-2.6h-6.5c-3.8,0-4.2.2-4.2,3.6v20.91H690c5.6,0,6.6-1.5,8.1-8.61H702v22.31h-3.9c-1.6-7.4-2.4-8.6-8.2-8.6h-9.7v17.2c0,6.9.19,9,6.4,9.1h7.1c5.6,0,7.1-.7,9.3-3.4a44.65,44.65,0,0,0,6.1-10Z" transform="translate(-253.83 -46.87)"/><path class="cls-8" d="M753.05,306.72V303c6.8-.9,6.5-2.5,4.8-5.7-1-1.7-3.1-5.2-10.3-17.6-4.6,7.1-9,13.6-10.8,17.1-2.3,4.1-1.8,5.2,5.2,6.2v3.7h-24.9V303c5.6-.5,9.2-2.1,12.1-5.6,3.6-4.4,10-13.2,15.7-21.8-4.7-7.9-8.9-14.91-14-23.11-2.7-4.5-4.9-6.3-12.4-7.1v-3.7h31.2v3.7c-6,.7-6.3,1.8-4.9,4.7,1.6,3.1,4.8,8.5,8.9,15.11,3-4.1,6.7-10,9.1-14.21,1.9-3.5,1.1-4.5-5.1-5.6v-3.7h24.21v3.7c-6.51.8-9.51,1.8-13.31,6.6-3.4,4.5-7.3,10.11-12.2,17,5.8,9.2,10.4,16.9,16.3,25.8,4,6.5,6.1,7.5,13,8.2v3.7Z" transform="translate(-253.83 -46.87)"/><path class="cls-8" d="M818,241.71c7.9,0,13.9,1.4,18,4.1,5,3.3,7.8,8.1,7.8,15,0,14.51-12.3,20.61-23,20.71a25.06,25.06,0,0,1-3-.2l-5.8-1.5v13.6c0,8.4.7,8.8,9.4,9.6v3.7h-31.8V303c7.5-.9,8.5-1.2,8.5-9.6V255.21c0-8.4-1-9.3-8.5-9.8v-3.7Zm-6,33.91a12.82,12.82,0,0,0,5.3,1c4.6,0,12.1-2.7,12.1-15.91,0-11.2-6.1-14.9-12.6-14.9a6.1,6.1,0,0,0-3.9,1c-.7.6-.9,1.6-.9,3.1Z" transform="translate(-253.83 -46.87)"/><path class="cls-8" d="M906.65,289.72c-.5,2.7-3.3,14.2-4.2,17h-51.9v-3.6c9.1-.9,9.7-1.4,9.7-9.8V255.11c0-8.5-1.2-9.1-8-9.7v-3.7h32.5c10.5,0,14-.1,15.4-.2.1,1.8.6,10,1,16.2l-3.9.5c-.9-3.4-2.6-7.5-4.3-9.3-1.8-2-3.1-2.6-8.2-2.6h-6.5c-3.8,0-4.2.2-4.2,3.6v20.91h9.8c5.6,0,6.6-1.5,8.1-8.61h3.9v22.31H892c-1.6-7.4-2.4-8.6-8.2-8.6h-9.7v17.2c0,6.9.2,9,6.4,9.1h7.1c5.6,0,7.1-.7,9.3-3.4a44.65,44.65,0,0,0,6.1-10Z" transform="translate(-253.83 -46.87)"/><path class="cls-8" d="M975.45,307.32c-.6,0-1.8,0-3-.1-12.7-.6-16.4-3.3-19.4-7.5-4-5.5-6.9-11.6-10.3-17.6-1.5-2.7-2.9-3.3-6.1-3.3l-2-.1v14.6c0,8.1,1,8.8,8.5,9.7v3.7H912.54V303c7.61-.8,8.51-1.6,8.51-9.7V255c0-7.9-1-9-8.51-9.6v-3.7h29c8.9,0,14,1,18.1,3.8s6.7,7.1,6.7,13.3c0,8.91-5.9,13.61-12.5,16.21,1.5,3,5.4,9.5,8.4,14.1a80.82,80.82,0,0,0,7.6,10.4c2.3,2.6,3.4,3.4,6.3,4.4Zm-38.1-32.7c4.3,0,7.6-.7,9.8-2.6,3.3-2.8,4.7-6.6,4.7-11.71,0-10.6-6.1-14.4-11.7-14.4-2.7,0-4,.4-4.6,1s-.9,1.8-.9,3.8v23.91Z" transform="translate(-253.83 -46.87)"/><path class="cls-8" d="M979.64,306.72V303c7.6-.7,8.5-1.3,8.5-9.7V255.21c0-8.4-1-9.2-8.5-9.8v-3.7h30.91v3.7c-7.51.7-8.51,1.4-8.51,9.8v38.11c0,8.3.91,8.9,8.51,9.7v3.7Z" transform="translate(-253.83 -46.87)"/><path class="cls-8" d="M1074,289.72c-.5,2.7-3.3,14.2-4.2,17h-51.91v-3.6c9.1-.9,9.7-1.4,9.7-9.8V255.11c0-8.5-1.2-9.1-8-9.7v-3.7H1052c10.5,0,14-.1,15.41-.2.09,1.8.59,10,1,16.2l-3.91.5c-.9-3.4-2.59-7.5-4.29-9.3-1.81-2-3.11-2.6-8.21-2.6h-6.5c-3.8,0-4.2.2-4.2,3.6v20.91h9.8c5.6,0,6.6-1.5,8.11-8.61h3.89v22.31h-3.89c-1.61-7.4-2.41-8.6-8.21-8.6h-9.7v17.2c0,6.9.2,9,6.4,9.1h7.1c5.6,0,7.11-.7,9.3-3.4a44.33,44.33,0,0,0,6.11-10Z" transform="translate(-253.83 -46.87)"/><path class="cls-8" d="M1149.54,245.41c-6.09.8-8,2.1-8.29,6.6-.31,3.9-.61,7.3-.61,16v39.8H1135l-41.7-50v22.61a151.87,151.87,0,0,0,.5,15.5c.4,4.4,2.5,6.7,9.9,7.1v3.7h-24.8V303c5.7-.5,8.2-2,8.8-6.7a134.49,134.49,0,0,0,.6-15.9V256.71c0-3.3-.2-5.5-2.1-8.1s-4.2-2.8-8.4-3.2v-3.7h19.5l38.1,44.31V268c0-8.71-.1-12-.4-15.71-.3-4.3-1.9-6.4-10.2-6.9v-3.7h24.7Z" transform="translate(-253.83 -46.87)"/><path class="cls-8" d="M1218.24,289.52a141.71,141.71,0,0,1-5.6,16.1c-2.6.6-10.8,2.6-18.4,2.6-26.9,0-38-17.3-38-33.2,0-20.71,15.8-34.71,39.8-34.71,8.7,0,16.4,2.1,18.9,2.4.5,4.7,1.2,12.1,1.9,16.5l-4,.71c-2.1-7.81-5.1-11.51-10.4-13.61a25.2,25.2,0,0,0-8.7-1.4c-14.5,0-21.8,12.1-21.8,27.81,0,18.3,9.4,30.7,23.1,30.7,8.4,0,14-4.4,19.4-15.4Z" transform="translate(-253.83 -46.87)"/><path class="cls-8" d="M1281.64,289.72c-.5,2.7-3.3,14.2-4.2,17h-51.9v-3.6c9.1-.9,9.7-1.4,9.7-9.8V255.11c0-8.5-1.2-9.1-8-9.7v-3.7h32.5c10.5,0,14-.1,15.4-.2.1,1.8.6,10,1,16.2l-3.9.5c-.9-3.4-2.6-7.5-4.3-9.3-1.8-2-3.1-2.6-8.2-2.6h-6.5c-3.8,0-4.2.2-4.2,3.6v20.91h9.8c5.6,0,6.6-1.5,8.1-8.61h3.9v22.31h-3.9c-1.6-7.4-2.4-8.6-8.2-8.6H1249v17.2c0,6.9.2,9,6.4,9.1h7.1c5.6,0,7.1-.7,9.3-3.4a44.65,44.65,0,0,0,6.1-10Z" transform="translate(-253.83 -46.87)"/><path class="cls-8" d="M582.36,361.71c7.9,0,13.9,1.4,18,4.1,5,3.3,7.8,8.1,7.8,15,0,14.51-12.3,20.61-23,20.71a25.06,25.06,0,0,1-3-.2l-5.81-1.5v13.6c0,8.4.71,8.8,9.41,9.6v3.7H554V423c7.5-.9,8.5-1.2,8.5-9.6V375.21c0-8.4-1-9.3-8.5-9.8v-3.7Zm-6,33.91a12.9,12.9,0,0,0,5.31,1c4.6,0,12.1-2.7,12.1-15.91,0-11.2-6.1-14.9-12.6-14.9a6.1,6.1,0,0,0-3.9,1c-.7.6-.91,1.6-.91,3.1Z" transform="translate(-253.83 -46.87)"/><path class="cls-8" d="M679.06,427.32c-.6,0-1.8,0-3-.1-12.71-.6-16.41-3.3-19.41-7.5-4-5.5-6.9-11.6-10.3-17.6-1.5-2.7-2.9-3.3-6.1-3.3l-2-.1v14.6c0,8.1,1,8.8,8.5,9.7v3.7h-30.6V423c7.6-.8,8.5-1.6,8.5-9.7V375c0-7.9-1-9-8.5-9.6v-3.7h29c8.9,0,14,1,18.1,3.8s6.71,7.1,6.71,13.3c0,8.9-5.9,13.61-12.51,16.21,1.5,3,5.4,9.5,8.4,14.1a81.6,81.6,0,0,0,7.61,10.4c2.3,2.6,3.4,3.4,6.3,4.4ZM641,394.62c4.3,0,7.6-.7,9.8-2.6,3.3-2.81,4.7-6.6,4.7-11.71,0-10.6-6.1-14.4-11.7-14.4-2.7,0-4,.4-4.6,1s-.9,1.8-.9,3.8v23.91Z" transform="translate(-253.83 -46.87)"/><path class="cls-8" d="M717.85,360.31c18.5,0,33.6,13.5,33.6,33.21,0,21.3-15.2,34.7-34.1,34.7-20,0-34.5-14.6-34.5-33.9C682.85,377.21,695.05,360.31,717.85,360.31Zm-1.5,4.4c-10.2,0-17.7,10-17.7,27.71,0,16.9,6.7,31.4,20.2,31.4,9.5,0,16.9-9.2,16.9-27.5C735.75,376.51,728,364.71,716.35,364.71Z" transform="translate(-253.83 -46.87)"/><path class="cls-8" d="M828.85,399.32c-5.7,1-6.4,1.4-6.4,8.2v7.7a56.62,56.62,0,0,0,.6,9.7c-5.1.9-16.1,3.3-24.2,3.3-23.5,0-37-14.3-37-34.1,0-22.51,18.3-33.81,39.6-33.81,8.1,0,16.9,2,20.2,2.3.2,4.4,1,12,1.7,17.5l-3.9.7c-2.4-8.5-6.1-12.8-12.3-14.9a30.1,30.1,0,0,0-8.5-1.2c-12.1,0-21.2,10.5-21.2,27.71,0,17.6,6.2,31.5,22.6,31.5a13,13,0,0,0,6.4-1.4c1.5-.9,2.3-2.6,2.3-5.7V408c0-7-1.4-7.7-9.8-8.7v-3.7h29.9Z" transform="translate(-253.83 -46.87)"/><path class="cls-8" d="M898.75,427.32c-.6,0-1.8,0-3-.1-12.7-.6-16.4-3.3-19.4-7.5-4-5.5-6.9-11.6-10.3-17.6-1.5-2.7-2.9-3.3-6.1-3.3l-2-.1v14.6c0,8.1,1,8.8,8.5,9.7v3.7h-30.6V423c7.6-.8,8.5-1.6,8.5-9.7V375c0-7.9-1-9-8.5-9.6v-3.7h29c8.9,0,14,1,18.1,3.8s6.7,7.1,6.7,13.3c0,8.9-5.9,13.61-12.5,16.21,1.5,3,5.4,9.5,8.4,14.1a80.82,80.82,0,0,0,7.6,10.4c2.3,2.6,3.4,3.4,6.3,4.4Zm-38.1-32.7c4.3,0,7.6-.7,9.8-2.6,3.3-2.81,4.7-6.6,4.7-11.71,0-10.6-6.1-14.4-11.7-14.4-2.7,0-4,.4-4.6,1s-.9,1.8-.9,3.8v23.91Z" transform="translate(-253.83 -46.87)"/><path class="cls-8" d="M940.35,426.72V423c6.3-.9,6.3-2,4.9-6.3-1-3-2.6-7.5-4.1-11.5H921.64c-1.1,3.1-2.5,6.9-3.5,10-2.1,6.3.3,7.1,8.2,7.8v3.7h-24.7V423c6.3-.8,7.9-1.7,11.3-10.1l20.81-51.71,4.8-.9c6.4,17.4,13.2,35.21,19.7,51.91,3.7,9.3,4.6,10,11.1,10.8v3.7Zm-8.81-47.8c-2.89,7.2-5.7,13.9-8.2,21.2h15.91Z" transform="translate(-253.83 -46.87)"/><path class="cls-8" d="M1024.35,426.72V423c7.6-.8,8.1-1.5,8.1-10.5l-.1-39c-7.2,17.21-15.1,36.21-22.3,53.21h-3.3c-6.5-16.3-13.61-34.9-20.81-52.41-1.3,31.41-1.3,37.61-1.3,41.21.1,5.4,2.1,6.8,9.61,7.5v3.7H969.44V423c5.7-.5,8.3-1.6,9.1-7.6.4-3,.8-8.7,3.1-41.71.3-4.8-.4-7.5-9-8.3v-3.7h21.61l19.3,44.11,19.4-44.11h21.1v3.7c-8,.8-8.9,1.6-8.7,9.6l.8,37.51c.1,9,.5,9.4,8.6,10.5v3.7Z" transform="translate(-253.83 -46.87)"/><path class="cls-4" d="M456.45,78.68l-1.41,0c-.8,0-1.71.06-2,.07s-1.57.16-2.77.24A81.92,81.92,0,0,0,375.86,157l-.12,2.39h80.71V78.68Z" transform="translate(-253.83 -46.87)"/><path class="cls-4" d="M460.51,78.68H459V211.33h132.7l-.12-3.2A134,134,0,0,0,465,78.85C463.33,78.77,461.32,78.68,460.51,78.68Z" transform="translate(-253.83 -46.87)"/><path class="cls-4" d="M425.19,161.93h-49.4v.72A59.31,59.31,0,0,0,378,175.31a50.9,50.9,0,0,0,45.48,35.95l1.76.12V161.93Z" transform="translate(-253.83 -46.87)"/><path class="cls-4" d="M435.52,162c-2.44.69-2.89.89-4.25,1.93a9.75,9.75,0,0,0-2.88,4c-.75,2-1,1.83,3.36,1.83h3.8v-3.89C435.55,163.67,435.54,161.93,435.52,162Z" transform="translate(-253.83 -46.87)"/><path class="cls-4" d="M438.25,162.07c-.05.08-.09,4.16-.09,9.06l0,8.93h18.24l-.13-1.15A19.61,19.61,0,0,0,440,162.17C438.32,161.89,438.37,161.89,438.25,162.07Z" transform="translate(-253.83 -46.87)"/><path class="cls-4" d="M435.55,172.29H427.9l.11.55a9.25,9.25,0,0,0,6.82,7l.72.17v-7.74Z" transform="translate(-253.83 -46.87)"/><path class="cls-4" d="M442.12,182.65H427.78v28.68h.4a40.45,40.45,0,0,0,5.85-1,29.9,29.9,0,0,0,22.23-25.84c.11-.93.19-1.73.19-1.78S450,182.65,442.12,182.65Z" transform="translate(-253.83 -46.87)"/><rect class="cls-9" width="1064.17" height="438.13"/><path class="cls-10" d="M1258,372.91a10,10,0,0,1-14.1,0" transform="translate(-253.83 -46.87)"/><path class="cls-11" d="M1237.71,372.92a11.33,11.33,0,0,1,5.64-1.4,11.45,11.45,0,0,1,5.65,1.39" transform="translate(-253.83 -46.87)"/><polygon class="cls-12" points="989.21 354.02 989.21 390.99 985.29 390.99 985.29 354.02 978.49 354.02 978.49 326.04 985.68 326.04 985.78 332.42 997.96 339.45 997.96 344.64 992.1 344.64 992.1 354.02 989.21 354.02"/><polygon class="cls-12" points="1006.62 354.02 1000.61 354.02 1000.61 338.36 988.43 331.33 988.43 326.04 1012.94 326.04 1012.94 345.1 1016.16 350.67 1016.16 354.02 1010.53 354.02 1010.53 390.99 1006.62 390.99 1006.62 354.02"/><path id="_145087576" data-name=" 145087576" class="cls-13" d="M1277.32,401.26v6h0c0,3.12-11.81,5.65-26.37,5.65s-26.37-2.53-26.37-5.65h0v-6" transform="translate(-253.83 -46.87)"/><path class="cls-11" d="M1252.33,372.91a12.18,12.18,0,0,1,11.3,0" transform="translate(-253.83 -46.87)"/><path id="_145085232" data-name=" 145085232" class="cls-14" d="M1273.37,399.17c2.47.88,3.77,1.89,3.77,2.91,0,3.12-11.8,5.65-26.37,5.65s-26.36-2.53-26.36-5.65c0-1,1.3-2,3.77-2.91" transform="translate(-253.83 -46.87)"/><path id="_145086000" data-name=" 145086000" class="cls-13" d="M1228.55,401.75V353.24a22.61,22.61,0,0,1,45.21,0v48.51h0c0,2.67-10.13,4.84-22.61,4.84s-22.6-2.17-22.6-4.84Z" transform="translate(-253.83 -46.87)"/><path class="cls-10" d="M1197.23,372.91a10,10,0,0,1-14.1,0" transform="translate(-253.83 -46.87)"/><path class="cls-11" d="M1176.94,372.92a11.34,11.34,0,0,1,5.65-1.4,11.47,11.47,0,0,1,5.65,1.39" transform="translate(-253.83 -46.87)"/><polygon class="cls-12" points="928.44 354.02 928.44 390.99 924.53 390.99 924.53 354.02 917.72 354.02 917.72 326.04 924.92 326.04 925.02 332.42 937.2 339.45 937.2 344.64 931.33 344.64 931.33 354.02 928.44 354.02"/><polygon class="cls-12" points="945.86 354.02 939.85 354.02 939.85 338.36 927.67 331.33 927.67 326.04 952.18 326.04 952.18 345.1 955.39 350.67 955.39 354.02 949.77 354.02 949.77 390.99 945.86 390.99 945.86 354.02"/><path id="_145087576-2" data-name=" 145087576" class="cls-15" d="M1216.55,401.26v6h0c0,3.12-11.81,5.65-26.37,5.65s-26.37-2.53-26.37-5.65h0v-6" transform="translate(-253.83 -46.87)"/><path class="cls-11" d="M1191.57,372.91a12.16,12.16,0,0,1,11.29,0" transform="translate(-253.83 -46.87)"/><path id="_145085232-2" data-name=" 145085232" class="cls-14" d="M1212.61,399.17c2.46.88,3.77,1.89,3.77,2.91,0,3.12-11.81,5.65-26.37,5.65s-26.37-2.53-26.37-5.65c0-1,1.31-2,3.77-2.91" transform="translate(-253.83 -46.87)"/><path id="_145086000-2" data-name=" 145086000" class="cls-15" d="M1167.79,401.75V353.24a22.6,22.6,0,1,1,45.2,0v48.51h0c0,2.67-10.12,4.84-22.6,4.84s-22.6-2.17-22.6-4.84Z" transform="translate(-253.83 -46.87)"/><path class="cls-10" d="M1136.77,372.91a10,10,0,0,1-14.11,0" transform="translate(-253.83 -46.87)"/><path class="cls-11" d="M1116.47,372.92a12.14,12.14,0,0,1,11.3,0" transform="translate(-253.83 -46.87)"/><polygon class="cls-12" points="867.97 354.02 867.97 390.99 864.06 390.99 864.06 354.02 857.25 354.02 857.25 326.04 864.45 326.04 864.55 332.42 876.73 339.45 876.73 344.64 870.87 344.64 870.87 354.02 867.97 354.02"/><polygon class="cls-12" points="885.39 354.02 879.38 354.02 879.38 338.36 867.2 331.33 867.2 326.04 891.71 326.04 891.71 345.1 894.93 350.67 894.93 354.02 889.3 354.02 889.3 390.99 885.39 390.99 885.39 354.02"/><path id="_145087576-3" data-name=" 145087576" class="cls-16" d="M1156.08,401.26v6h0c0,3.12-11.81,5.65-26.37,5.65s-26.37-2.53-26.37-5.65h0v-6" transform="translate(-253.83 -46.87)"/><path class="cls-11" d="M1131.1,372.91a12.18,12.18,0,0,1,11.3,0" transform="translate(-253.83 -46.87)"/><path id="_145085232-3" data-name=" 145085232" class="cls-14" d="M1152.14,399.17c2.46.88,3.77,1.89,3.77,2.91,0,3.12-11.81,5.65-26.37,5.65s-26.37-2.53-26.37-5.65c0-1,1.31-2,3.77-2.91" transform="translate(-253.83 -46.87)"/><path id="_145086000-3" data-name=" 145086000" class="cls-16" d="M1107.32,401.75V353.24a22.6,22.6,0,1,1,45.2,0v48.51h0c0,2.67-10.12,4.84-22.6,4.84s-22.6-2.17-22.6-4.84Z" transform="translate(-253.83 -46.87)"/></svg>